<mxfile host="app.diagrams.net" modified="2023-12-08T14:28:01.349Z" agent="Mozilla/5.0 (Windows NT 10.0; Win64; x64; rv:120.0) Gecko/20100101 Firefox/120.0" etag="PJ-VJ6NkvCblHZeOWCib" version="22.1.7" type="device">
  <diagram name="Page-1" id="Kx0CaBYJjJsfejVhTJjO">
    <mxGraphModel dx="2074" dy="1114" grid="1" gridSize="10" guides="1" tooltips="1" connect="1" arrows="1" fold="1" page="1" pageScale="1" pageWidth="850" pageHeight="1100" math="0" shadow="0">
      <root>
        <mxCell id="0" />
        <mxCell id="1" parent="0" />
        <mxCell id="A2xlnPnC4mBpnPeIcrtY-1" value="" style="sketch=0;outlineConnect=0;fontColor=#232F3E;gradientColor=none;fillColor=#232F3D;strokeColor=none;dashed=0;verticalLabelPosition=bottom;verticalAlign=top;align=center;html=1;fontSize=12;fontStyle=0;aspect=fixed;pointerEvents=1;shape=mxgraph.aws4.users;" vertex="1" parent="1">
          <mxGeometry x="130" y="130" width="78" height="78" as="geometry" />
        </mxCell>
        <mxCell id="A2xlnPnC4mBpnPeIcrtY-2" value="" style="sketch=0;outlineConnect=0;fontColor=#232F3E;gradientColor=none;fillColor=#232F3D;strokeColor=none;dashed=0;verticalLabelPosition=bottom;verticalAlign=top;align=center;html=1;fontSize=12;fontStyle=0;aspect=fixed;pointerEvents=1;shape=mxgraph.aws4.servers;" vertex="1" parent="1">
          <mxGeometry x="440" y="130" width="78" height="78" as="geometry" />
        </mxCell>
        <mxCell id="A2xlnPnC4mBpnPeIcrtY-4" value="GET /api/v1/aggregation/{userId}" style="text;html=1;strokeColor=none;fillColor=none;align=center;verticalAlign=middle;whiteSpace=wrap;rounded=0;" vertex="1" parent="1">
          <mxGeometry x="215" y="140" width="210" height="30" as="geometry" />
        </mxCell>
        <mxCell id="A2xlnPnC4mBpnPeIcrtY-5" value="" style="edgeStyle=orthogonalEdgeStyle;html=1;endArrow=block;elbow=vertical;startArrow=block;startFill=1;endFill=1;strokeColor=#545B64;rounded=0;" edge="1" parent="1" source="A2xlnPnC4mBpnPeIcrtY-1" target="A2xlnPnC4mBpnPeIcrtY-2">
          <mxGeometry width="100" relative="1" as="geometry">
            <mxPoint x="370" y="570" as="sourcePoint" />
            <mxPoint x="470" y="570" as="targetPoint" />
            <Array as="points" />
          </mxGeometry>
        </mxCell>
        <mxCell id="A2xlnPnC4mBpnPeIcrtY-8" value="" style="shape=image;verticalLabelPosition=bottom;labelBackgroundColor=default;verticalAlign=top;aspect=fixed;imageAspect=0;image=data:image/png,iVBORw0KGgoAAAANSUhEUgAAAQAAAAEACAYAAABccqhmAAAACXBIWXMAAAsSAAALEgHS3X78AAAgAElEQVR42u19CZwcR3V+72Eb3wc2tqTdqZpdydqd7lnJso0xtv8c4YoJDiQ4mMOExOYIBgIBEiDhCBAS7psQjgDmNncwgXBjYy6DD0k73TO7Wh0ryTfY2GBLuzv7f6/qVdWrnpG8kmZ2Z+Sq369+M9M9u9NXVb3je98XRaGFFlpooYUWWmihhRZaaKGFFlpooYUWWmihhRZaaKGFFlpooYUWWmihhRZaaKGFFlpooYUWWmihhRZaaKGFFlpooYUWWmihhRZaaKGFFlpooYUWWmihdUYbT5ap1/XJg6MsKURpIqEXoyyW0XhJqH0VeB9aaKF1cctgMG998kOjdGi5GuRZIvC1J01EL7zvyxLZn8ayL4uF6iltg4kA3/fCvp4MJweaDCrJQISfQwsttA5saRkGeaxX8BQHO7yHwdyrB7ro2e+JRE8Y/fA/e/B/puw3JlauDBc+tNCWbpUvKPNdDUg14EWPWt1h4Oe/W03EoWABSBi4j4fvPBdeXwuv74RtH8IOf/Mu+B+vhwnjebDvCbDyy2oiD2mcEKyFoKwK/dsymr8w3I/QQmv/oFerOw16NO3RVEdTPvEHPQzmw2D7Q6G/HPZ9Dv5uAvq9E4mcnx4rzt+8Zkj1nWO63wTvb4GO+/A7MKjvhb+rwt9/Fv7uRTDoy5WcJYEuBPReFUcoD0XZyDI7IYUWWmgtapVRYf1vWukj8t29QQ+fT4LBeiEM1o/CwJyCv5nfAYN7BwzqTWU5Dyv6PAzoOuybhb4bvgddzmDP8HOMn8Usfge/O1WW6m+3Q9d/I66H3/gP2H8ufO43v1srKXejT01GZBVU4RgrZRFuXmih7fdqX9aDvlqmIF6sA3j+oJcnwaB8Fuz7PPTbtpSLakXHAZ+plVzMZDjAEzEHvQ6Dva5fRV3tx9dYqvf0qval+v0cvM5gxwlhM/1vtBDgf4xD/zfYd1rOKujNyCowxx+Ch6GFtsBWBb++Amb0ttWnqNQcBd/yg/5IGPRPhgH4aRhwt22DFXqHM93n4G9w0M6ZAa0HujSDen5h3UwW9F5ZDmKWLIa6mQzU9kReBf15OBnl3JA+DECqyWB4yGQiwk0OLTTeJuNhG13PVKQdB77sSxt8bnEWdAzWbcaV3g56MNtxpYeuV/lYmIG/DwP+/icEbSWgxYDvhZpocNs2chPg/W2w/eNw7I8ej4u9zDVBi6BPuS6Jswrq4daH9oBe7clEro1J49f3pjkTHwZzEQbVy6H/sko+PZr3KZrnuBrjoM+Z8K0b9M27tQx0PKGu4gYwGUzQ8U3qfTfA9/4Jj7/BKtCpRTj/QTXZZSFWENoDx6+HgV5yqyCm7nBQVJhpDIPiWBhAF8H+r8G+e3Cl31pWK2xd++Q46PVKrE170fZBv+eJgGIJavJRxwUugpgzFgoc2x/ge1+G/uew7zB2jj0adOTjF7JVq8JDEtrB1eosEFYF/54i+SqF5vv24mHQ3wt9eiuZ1TU92NDUnk2t+U2m+BIM+r26CNoaqJtMA1oFaLXgeeCEkGIqMpZvgteSZxUkOqOB1sBEMhhtSFZG1bgQHpzQuny1h4FeHStGldGCCYD1Ngb0xArY9xIYRD/HwYKBtcmyGuCzmTbx3QofuxW3g7sNNpJ7UNdpRjGn04pDOBHshs/fhvN5RpoUj2HBzUjHCtA6YACn0lB4mELrjpaCX5sRfj4z6DwNmLEBvbRUOAy2PxEG8+dh313bycRXJnWsB4sZPK0P5i2Ji2BclTmyZhTgaJsOHE5Dfzec9xkNVkGCKUWcRIV1n0ILrTNXewvU0Tl7yoX35R7qBLa/GR7qGqbRjIlPwbxZ7dOLuhd1zw+q2Pjc6rtzqe8SdO5E4R93XaUqEzG7iawCOucfw+tz4RqdaK6ZOPMsjTjEQiY7scqoUpbhoQttqQN6YLKWBDdfe5oAdR4MD+7fwgD4Pj7w+LBPURQfA2bKrGeDI1tArh6/N0FIPYwNoNWQJvc/ebRmIDOLhB37PsQl6jyLoMBGuXQi7L8F+odh27k5d6nXBQ6lN/GGFtriB/Rw0OsKOZXaylkE58ED+2HYdzMzd+eNiW9W7HQfV278/qR+3Q6/WcX/jb1q/rfGBLiAXGsmA/5/6noVV5OOCvIdQFDSpRP1sSo8g0knTuj/+0v4zovh95Y3cRGwvDn6fORXQ4YWWutX+5KGtlZHCwTUaZKzT+QgbHsZ9Gu9nLjOk8+mDF2X7ufARD9aI/7EHfA/xuD1Ath+JTz892LabbOOJcyZwBubXPbRRRAOOWgnFOWqqEE/bcA/sdhFv3MgmQl/glHWkbZqtpatVfA76JfD9sekyUoGMtKuFt0TG3sJLbQW+PXClrxWVRSfym0Th9CDAXEo9D+DB/EL8BD+3qa8NFpO5ewZBLc1fjoMwp1rEIYrPsKOdRX0f4a+0RTx0AqqU4jW2tiLxeEDiepkSSD0d7bGBj1chz/Avh/BvufA+//A882wWKhV1gZLJ9LkOVNLpC1qgu+szxBklEiZm4D7NH+BjCaGl6k4QbUUJoPQ9rFVYbX/3qNXRBMj0rDpYI46H9ArweB6I+yv8oAerVyzOhdOg62VOXuXHaBIuzjT95ML/XC8j8vUail+azIMtIrjZDBnYw7+pDCvi4CEXn1jPei3k4sB2+6Gbd+C17+D7w2xCfAn27QlMNu2WENiEIfq2s5tNiAjnIgScQXse1KaFA9lx4SugY4VsODs9NkD4eEOrXlLy8IGlmjQq4coGxV80B+HlXcqhw2rkgnoZcZk9QZne6LytooPVnZdpiu+RhZAf94lgW3L4LsvgtefWYyBHvhYDjxji3yo6g9X8Qka9Nv0//4dnOvXYful0AeaZD4etUljFrRr0y5wUizd/9cTA1obM2aCIrcng21vgH0jucBhH1UoRpPJYDQeF5U1F1ponr+YUqEKFa305lb7s2CwvB/279hmVkQbdJNzqR0AiwTUoVUbBy4NwEfTgO9L98AVAOfwMBgI74O/3+6fg5ibJPN6q3ZdbofzuAK2Xwzvl+WuFVb24UTTT6vqx3do62BmkfAK9cbAoS51xol4p04n7oL+P3DsfwXHeiQ7/x6dTlQTu73n6dqQRXjgrfYqT1+E1WAF8edhNFnmV89T4IF/IWy/psoCenr1xPTdIqXd9lKMg8eyTZvCP1bnVdIxi8pp0uAR1Hmlo0XuJx8Lx/5MY8VM6dXzZvj+Z+H/XAT9xNy16tETirpGKtVJq/9y6L/V3ADOrVi8a5CDHlNa1QQot2oSk82w723w/TX+RKZSib10PlEVnoVQpnyQt/E4tiW3FQPW0bBTu1JOxEWM7D8GHoZPwXbff07cat9ApLFUkFt1DGJWH6P8S1rV+kwAE1stNozAjVmLDLMIiXwKDJTjGwa9tiYQxRjVSsVoI1KIj6kMSB9952U7tBUxky4xCMkjN7FWgXQgI82N8D3oz4bzPc7GekYHI6JTs0xGGeM6DO2giORrsE5WlmTiI5gkX3Irh+AhfhVsv3GTF0GXuQj64q/294eswyg5ZR1uSEdX9BoLx7TK6FDEH26yDJQpnJsMelPajt+7m/6PiaJXNdBJT6blU9EauF4X+MjZjipI0ilFA6rS6VACGU1ra2kn9PfD9of6zwAGeoW1CkwsKLQubJU1Q9a3zyiglxE7jZ39E3E4bH8KPAxfxZJVk0O3Dw2uGm0O6B0wxj42uXqxm6rtLjUm7sZ/OLnR9SmBuVsW0cbVRbPSmRy69YsRb78nYRAzccL1euwmh2Zcaktob1kEi2Ew2ZlJcueq+jr+FPrz4XsnNwQOE62LYK5bFqDH3bDaw8OdDGMqjBhzRUP1HeLxYdtb4LuTWyh9VzUlt7qEleegO+3BrucmgFnj996+Fqvs5HY4tyNNgKtlE+oouhCFyLhL8L8/SxmImTQRnV6s5HEepgkVJMUOZASfb4fr+TE4n0f+6szTPKtAF3IJZQHxoHFoHRPQK6oBb26OClbhTSsV+Ix+HNzgZ0P/bsbx+LEGmfA6+7TDBr4j6DTQYRWH8Km4YvFbils8Ea7FIe14UE01I7yuhGO5hyyk2axzYiL7FCtINeJQTaActQnn9xv4zj/AuQz6z5lhPUbOghVgJRVDrGBpBz6ZZ2VplHB68wQbmPrS6Tuxw8PjW5ZcyfPX9Q5b6b3Vnth5eU09mt8/gm0NJmza4sFPtORk/svnbaeJhwbMLBXzMJhzp08ETZiMdKygbqxCGOy/h8+fh/6ESiz62bXt0ZJqMhpPCmZyjH70yDAmFyegF/PqO+3b51I8J8P2v4PvXlPLpe9o4PsY9w4smeXFMbhCGRisArzEspYiHXc+tUXBzbQ02HJTFSeAatlAoguoMHQO3IcPwm/u3OYVI4kZgu6aa9zxBCYpAzFR4NADGenKTTEO2/8F+qp8OlFxFsBzOR6PgJswAM9kIC9p/cBnjLlZk+q7jeUB3PYouBH/Dftvd+k7aYEibLB31kNpqgJNUE+x7coc2674XaoVep4Ir45XLxkyqUxbK49UWpU2PYTVHCFHRshIuPb/C8e8CydbmqTmDGw3ZxV0TazAPTuSoMeKAv1eOI+vw7a/hP2HO6ugoNOmGDhkwDJkew5tP1ttDB7kkoi2nbvCFOU0gnViIWD7K+BBu37SKyE16TvReem7ppFqUutJpEW00bFfBfvRmlmWs4QUkAUftkppOKqdttyq+LYlqzLqiqIIP9GbNQCn5Agc7+vgmMYbi5G0VZBjL+5wWjNXrp0mLthqir3g8ybY/u/wnXLO7eyjVLPKHKwvOYao0O6nodqs8e0zQmdpcQlHp5WVCrr6LpFfgIt89w5zQxKasWPFV9+Zq/1eJoFtytxUefVJOL+3wTmcURsb4qvtIarHileQGIUtnbiSA1cP4JrhqLpqRVvuzzg+zAZGq1GHRozU3Z/yYD8cz+PgGD8F53DHdhZ7SROjXeDgzF1AbeYKp+gZw+DxlAMZYeHXd2HfxbDvWHutxhTmwpNLw1hVLWgnNvPtcbUfAhNzwJJnNvj2iVgN214PFz9toNMyJBiJx6PX+bx5bkXcBQ/LN5TaT1w8ZB+DoT0Ea1UYfdLo69MTBboGosfETqqj0sZPDmgiQFQlZVmMbiFZBf05q2A5HNNlWIyE1gCKkU6VO5HReKGsx05ajRYaD2SEdRaw7b35Ck0toKqAVnBNhrwg9gO2VeMhRuAgNR5fk2fyC3cUXOinwQX/JvRdOn1XtNV3Xqlt3PlpqMYAlJ0AsDovg/5D6N+Gc/kCDNgPwPV5HTwoL4RtF8J3Hg3bx+B1ObweUS37g21hk4VbiSbHmvunlTGW805MhkUyDQN1n0jpR/bjoCdAUc/9BHAF/P1r4bxqFDBcMj2DVk3caWwrFBWGZJIqLun8rs4QZJSTS6PqRAe8YoHtBwxYx6TvVECvKbOOWAsX7u3Qt27NRZk1wQavs+/Shyj3MOHEto3MZbRubiL57u3kGtgoeyz+AP1mJP6Av/0xvP8q9I/C+7fAdcP89bM1HkCeBQ/acKowEDxwqNGQ6R5y2CaIVTNipPHeB7Z338oFnBwOg787Hl7BYpOPUNTfsaI9f41ybWJF/DnHCU7bAAfOozfr7bIKckHOOZoM6lsdecqtsP0j8PqIXAahl8hlwH0rtsQy69zVfsyRZ6aJ8R1l369PP5Ov9kie+Tew74doxu9wCrc6zxxzsUrZ3YO+yUqiAT7KEpiliW53pvnzZ0iHT0l2o9szSRMGZjpwcsRVBycLfMVtJM2FEfj7MlXTL7ek+rqe6E0Ce6HZrsQu/lBB6HAiD81oYEP/f6mOhF+WIilKLP9L8QYk4hcp/lYsfw8dy3LnTQT9Vji+W6BTvGY+benEzQa7fk4MJZpeMHhMqE1WB69ONEVaXC6NNByvhe+8LM+tkFIcBSeD9WtOVjoISC9/EIB1vEFPdeoyT575cLhZ/wk36qZpL2Ck8fhe9d3BMvAXGniKDZ8+paWYMKdOberJgvpug3c3DzxOGBPUESoMf/M+k79utuLoQhiMWhep5Fe8GP7X/8Lvozk7Ab9xpxnY6MvjCmcmnmkKxuKkPUG/bTgMKZ22mwRMZ7MD5EVsIBV1zEaYSbGm+E6nUzirYd7tL+rKg4wc9FiDjDR/grgLtn0WjuX8LCkcwtGWOn4jIk6BPh53EZOR4cWvRA8zePyeLJbNmWpi8ctaE/JME3DpTAmsTrQicnDc2PDqWTdpVkN31TU+k0z9Xu6SMdO0h15XIOEnuiK4ik/lBrYJgqGlotmEBDESyzmyaExMxqTSWjPwPFpyoc3uXDAOzvs2+L33wXff08DKvIhl3al7juuU1rUgI1d8JipwrV4H31mdGyN9RHiqGIw2qqrODnYRPGYdjcn3WGlq8QD6PI+FC/BJzlVHgZQZDW1tq8ptDu8vOcZ+Tt8cb0WdSTUh5oxhw6XA4wxbUeZSAyk2zLkdBziyD/qMHgSaPKRS0lj2SlkHBNWqo1SKyTpI5CuofPa+lM7VVB+mdnLx2XwXwyqyg0kJi8Bq3yAsIi7lwiJwzCfAPbkEtv0k8xYb5Vou1mKTAxlpwlgOMsrQXUvEldCfVo3lUXxcUXC8x6XIO0QYBWvFK/AQTa82Jr5sBtaRyOCar7VPOWzUQDFb9hCx/2UfWqEHufatlW/IferNzKfGyWkHmZCm71C9aPnytrBVseabu7vZJOGf1xJlKZxlIGZ0ukr8LZn8htwj8sQ2RocwDXsjlUfPLm3qjVfykZiKLy22vZm0GLH+5MFKp8Pfv8fQovnuJsUK2kHk2pTIxVpGDUxGGPyG/k7op+fGElUnSkVcuySBw2vXLbM/WoktyUYfTwNVY3EYfOcCONAvYeXYDqsOK+cYGKS1VNn2fziKKLN6ZzTIt1J0fScFGIkY8x7k+oNjug6+i1H1b0L/HPRPwv6PqvhEIlHg4+Pwfz8F370CXr8D/Rp4nyLYBV7vxZuJ54j/30BiJ5xPOMM1/3Jos0WLKeDv68Cq2AHHfQIPCO6Qg7bgB471CYSBn2Ow2EW3Wlwtv5YRYyhJ/EziotKKi1aU8jJBoxMLGyeYboHHphDCfDFsR7WmORtw1kHYmTTHSLwI1G6mbkKxMW8y/Iax+h48k/J5sP0hDYFDhf+ARXh0wKpOt70QJ0uKVvuuSSEOgnXeAL26xQPrKJN6lhE5turhr2d+uewsmenz5iJOa244XPl3pkqeS74XvvNS+M6TYfsa6CfD+8PzvAH31zbFZbwmh8DfHY389PB6Dvzfp8P5vQaOBUtzMeJ7J04CyOE/baCxtvKM6fq1d8XJK/fs1iZnPiCoAVjkf35xuyX7XCx8BYui26Ic6cuLx3IyU4VQIvbjTtpfxnOorSlE46dqFiQk8phYV4gqI9KClRpSzjGmnMXboW/JkaWye+Q9Y21yEQRfwBqYjJCzAEu+oT8OFt5+HrMxVkFKZfE4KdRbgscvF2zggaCnPQqaW2LQz0QeCQd9Ia2cFqxji1r8FaR1qz2Z1k6AQ9aNP0VsL5NwDB9DMAbsWwvfO2JhuWxp0XVUYad7Qmiu2LHK7vXaJcN4Y06C/ljMgWeaU/+OLXSMEzY6rSfGRaipr+c1BXhAkAX/hqD/ocrcp/ZaJjmNAh1rsdz/8P5e+M7X4PUvspI43H/wDfe/iz9NnLaycfFaPeCeY+1TN0CY4bog6Owi+B/fRivAUr7HLA0dL0K5c+y7riYNPsGEUWA7Vie+Hs5hJF8jgin2+TdE0TUPeqS6Loja3K+A3jis9Eb7jmClebAOrp5vhX2bje+sI8T6Bnr+b+seIj/oRL7TDqpNV4oxsXwjbH9YysAv9pjPKBq6p/5MU2H1UupFU0QnDFtPqRjDEUfXgWHwpbWKtHKtmiSQPaY/z0vAIrsnwr6/VKIdibht2sqCq8lyNuUIs7Y8ZHsICMaKIqyfHqJ/Ib6BmQbxzxZnLlIXNFWWmx8dl+NwTV4Lv7+qiW+v6iEm1hm+x4WbvoreawwWthGqNVFKQg0ckSU4pjfD9k3esx0b99XFCdo4GeSLp+Z8YRQVOMTU6v/C/mfCMR/Njh8D8D3Mslsgvtui9AQRH+AsWeQTw3EpIs0S8T30J3c4X9qAV+q5h7jl/hI9wLMZPSzwm3/MMLOQiEdUc1z4tHr3p6aAhl0MhURsoWyU+b+VsSFTMWfMM5xk+itJoadhMkjEJXBcvzABSD15UrFMm7IIewwIKmSaPBT2Z8aCaxvJCT3QJiXH8uO/h+vxefjt86vMzCVpcJ0fLwubbp6/sDWFZ6kqPNNl5lz2DX4PeSOfCv1/4Pfus9atYWVapFgBexase4QTZpUFQ2H7Vuhvgu8N8lTibx6+Ktob8lPVLJudtTFHoJkbSGdlSlTCZ9bR6TFGntk+P4mzt8xQrT/+7ofgpFc2QVURu6uw2Yp0CdImRoEG6+gNOalO6eQnKgXd/cU0kxfLg0raGBBEltyH0KB6ikbqidm0ZcE/zt/fiJAjy+062P9yOF+Rx82TqR9NrF5uLbR2pLDRCppIBozV1yxWcCrs8+JbVVPhSNabp1XQ9sCh/S0VILWBwwRBRuKtmP40i2Aa70E0FS9ojVBG5uFkJ4wCEpfCP/9pNZc/zbG+tDm9JTg11hwpxf4MfnMdOw8ShXTyXvhajzqneTp1iRPtqLCbAsf8QsxKEFx2huvitSsgSA/NB2jyvJLw6zMHZvqLOkf7UTYBBwoj4lTZk/+Gc3vUJmaJGXryLF58em5P+j2xtSp+OXpcOAy2XQDj4ytwjH/kJCg6ty8Wp0AtL5cW65hbLTEZBLEDA90OYSj8gpzUfxj7eN4eiQ6gb3c+KqWyeOR6cXj0+ENUp2N5D/d1dMFKIZqfJxRiF2Co1fVHv7u83LgKfeNr7US8GimoyMqaadMEa1cqWsXQjXoeagFOHNi9zVuCs6ZKDgeKtm7Ez2H7ZfCby/KWmzL1S16wbgmBbVoGfnJ0kO6X1orMxQqGVZFTIjdO5UrUibHZt37amOFxLrLCM+xGi4Ck3l5G47xX6Vx6fnAiuc56Afa9H/o9arXXhTgzhI7LSTYvXrks/ebsVr0y/SsPBvEUJWYsuq4ykoQ67HvS3FNUW4m40Zjj7fExHRS2aqPwpkpvX4KQTozD0G43qZO/CfZ9CJ6js3NmdS9VHHa0GIezKos6QEw5eOvqlYtYEv2n0D8P/e487mURYe0ccq2eG3KXH2+sKy6YoU6gtm4IZ7Z/hv57O0snzaC5SwFrVTnhGcJ3f9GkfwzoKD1IZJyqquDDUpsb4c3hlHAEqcXxt1FSa59p0Tmew5fj2smguXCv/jYj0BG2G5W8GCkQ2SAcRvI7nynHMDFtKK3Q2R/KwefiCQWkqYPXG9A1QAxIdXFrWtwkEIvdWr9BGgXpHmNuEeBDDiJbCx5kzabwuNTz0mLZ8Thodfoj9CHv2GHQICrxYGk8wAXnSNz+8nV0A2fa5G7VXVGM/36hjLoZVRvaaHQitsJz807Yvq4xOKtX+2rZ+dnd2uzk5QK8fTz9m5VUFu1MOG+sdL232jb+g73hZEg2LhE/vWHdcjtDmfwgVnttplTa7tSQNCwGKm3hLoBWv43l/7JAZZQepIIM+CBV4sHIZAmUilGisQ5phxGfWOtBpy1vh34lDO6LU8aLV9H3SotvMmWdalw8KO4VD+4aXEmzCQDO+Y+LbAUQh6EWjoXXq3ngwsA9P4e13PB6X5OKq07pM2RO/qfxGdXFPoh12jI2waGSLby/a6ITJwATJ4jVw/aW2hlDDB2quAkP5TTZanIbWXFQ3JtbC4+wiMK0kbsSXYBXLqELwCfpxgmATqSIoAvOzdaJai64+lFa6ssOrLK00eH2xgI0IIXBcoeh31ftUCptTjwC7zfDfXkH9LFGeKq+b7WSjMZh8q522f1r0KXQGQtX6l5WyNJOCAIueAJ4gcv3di51NgYiafVDgocHk1ls2GoOysFPlo7R9/s7CoDOdh4xiitewYlgylWwYerv/+CYsVLvaOcOFE3atsch8Do3e2OyZVOCpwFlo6x8Il8N+zcYhqRaQlWmlAZMFyMNuO8TgHgBPVgzncy4Q/EIYwW8jS56vxsoKNTY/dxphnXXBMto29HwYE1N6XTsXEfeGwMGy6X/WEBwGwUET8sj/IjKPKrB/RuPV3XEhI76fgb6XrFAoJxvHytdiifBvi8jDJ1JtjkgUIfIyu/VApj2LIBOV3QVdS1EKS4yGACDzspK3RsUzHI13AYHQFbA16dtSW6Hq+nkJLVS4ibc5Nh68B7+EPY9BxmDrdUzWiAUp/KlzTVY9CChHujFaNPooEn1NZS6ayiwLnXf7MnKM+UjpijUIWPn/iaATrcAbJ56rmb56MQl7DzQ94quO6kUTawd7JrYwASZ+7ed8LxoU3nQFC0ZMo7DoX9tesyHA3eLig5nP0o1ctTn64vFTSkCzhL50FwalCS1pEoPXr7yIW3lwMtWr24sBkoai4FgG1Zvfg0Zlq0uRayZiZoUv3Vapqa7JwAeOMGACk4ApMv2MaxMZJFXVTSizLZVRZUlqHTgZGAmKJLV0poIXv2FPA8eqooZ/B2ta7gvDE3alVMcfAYWTPiOn0J/HnTL4VdRE7kGCjlXDyyF8lCLrC5dwl0jODzp+OWpw2LY92/wvU1bc6s9oxlvdzlwmAAayki1LzxHpaPTMGCejyWsbMamQhKNFxg38lVLpLwyffZAZLHtNl9s9PS8MuuVcE8+WiNuQsN718WDvznbDXEzqsKgWNjCILivt8B3Pgz37Nzcc9qr76kjwazsh1XQlBAEy4tLghOCHG0IQbIcIYimJJOLQwgSJoD7qS7TxzuD/iWtlBmczyvhdUUuH9tjZKvs4GOYbkOf1MqGBKnVZHn0q+RUIgoRTvIsaaQcg+v/sCxR1swfqUKuTrz581615UHTfY0Hw7D1S58AACAASURBVMI84Sk7Y7GQeFG+WIgChz2utPX+Yz+GEmx8xBK49DZE8hOxRqlQJXIrpwQjvki22suu06U4iCaAJgowFHWeMmQSifwdnM/n4AG50NRC53HclL/tJxaYnizhzD/E+FPSpuaNSTGaLDF1HJowNsYrrCpv6szIiLDtPUTL1M+LRXITE/ImvhyO55qaZw6LmTSWi1lpueQZBKa6a9h+mVUg7oD+33CtH7mhPMavX6+G3cJk20RSC7UNzWciBlUWV4WTgsbyOEQtwu99L+OkoLquf2aR6c7DBLAfMQEmzqjJIw2dFMUIbocH5Buw/+/hRj48Y/nopjl4Ijklbfd+NUnERm1Xd7WdxDANEOT+dPM2JoO4+i+DfgH83VtQOgvlvnZQmTWtKjOLIVLRVqssl+7aFxM5zRGGpHQ/JxjVG2xDxuZ/gN5EUksJz0QbkhXRbY8+QVN+6YHfmzXQ2Mkz4H8pWvDpPdOCLw5Ja5gAWulbmhSMlhObICbZHTZ4I3dC/z/Y9244ZyQ5eTQ8JMPQj8j2kQ24eSGPOERRTScygf7nKKqBNOLQr4VjuhtXl5tIF69K5qWR8GJpo84EY9kqQcHUhkhnQef9d9tU5YGkK+OclgNZeLhti4sV3An7Pg3bH5eWHKuSEZg18ZWc6/BgONZLjTCIkQtLSUbsYFahOtgngOaqP0a73Sj8kCbANtIEYOSlqMSyM0M9gFh+G/7ucrgu70eVXeivhm0vh20vgf0vhI4EFi+FbTiwX6uVi8WHYdsVsO0nyKMH/XcmNrGTtAcwoFczVOAxCoaYfHFnAEX2EqizYirGwlIElFRjPkHByukxp4NAZvxcS8xmi6Czx6VMc2PlTWkeyhvh2P4RCWzyE/LOM05EK+Ac1HSAV18aTD8TcxmvfIwPTnfrgTQB7ClrYKW/NDuNUttVNNxVpgi0jawFI8ltBC+NEpBRCsrvN/JmXDdPKxBpKTGtRCQdHHTpfcqc9JrVEpzTx6sGufLFzfUxNOY3kwVDA+Yu+P4G+O7XoL8X+rNQ7HIz4d9bdY6pZxnZwGGONlzcDf1LcAxPoPjKq6FfzzkHU08clMhLHgBCsw/UCeD++eftKqxkmWZTy/2uzNndRj4sY9qAJJKhBon+niJNmaG/nSPBj7w5vxQrfMO56q6gqlZ63GQbaqT0y1dzIiHZhWIqcK5Xw99+Ev7Ha0mJ56HIaMxdJ/g/J0C/RQuftAu2zCXkdKzAUYlbcdldrBDH6AfOZXHHWVxhAuhIFBvXofOZbM1Dx5hzlp4sxZcQ55Joyr/dTSIbudW8aFdzsgBgBZUp/D1SX78b/ueLUbaaoK9H7B3YNGQKs35CakMzi0KR7cUl1DnY87SFOL6azwPyGQ8TwEER25BeEI4mJyN0ilaJdmvYar6NreY64IWmvbwF2Z/gu5drVRkJZrs4G94/JGMc/HvAyvcq2LUR5VDU8SQkEouXb/dgy4s34HjWhFl1HabOHCaA0BdK080GOUWn5wiJtlsTtIqmq7kWFVGWyz1wT6vwvW/B6/tg29/D+z+D9yPQj6yuXb5XiCxBqvuJrLPHqCEh1mHj2GA0QXl3piFYRrO76jQPuwYlFyaAMAEsHX7ByZfXjSwYMTDbSHuNBE63MUXjSRINAQvgVlQUgv5Z+Pyv8HfPhvfnwt+dAu8PuR/uwV6NbyAtBS6NRgAalJ7OQ24ZXyEH5fycVGlmDsY0WpgAQm+JmhH5qnNa6FGq1Rw/VymlZvLcuJrbdFUi/gDfmSQp8g8gvztKrkOPYfvR46XCHkFI1dKw1UC0fPuJBchE2egw8dYtrOz22nXrXCGTqVpMxOt2aAKQmWZgoNDDBBBuAPmnuJJPUbpRreZrLPQUzXqUfb4WOtJJvRnuzd9APw/eI2nrofdT2dajEYskkEIDPWXCL+NJIcoOsL7ekHVkhKOHzw/Npefmw+APE0DoTQY/of4QcFSFzz+A9/8F/RVw7Z+MyEF4f0wlGdrjap6WV1CtvA7CZVramkx2EdViV23YDim0NC56bNJpqYDQ6Bu2GDHTg6NiMUwAobdpAkjkvfD+XTBYC/cTae8xkfZMk5/2ZEaSnPzvypqhqDayeBRolVHhfH9r+su3Uspvdxj8nV2rwXUBrjm3P0wASzEJVAltCAPoVoQPw7V/eK6OoN8w4aSka1gpHZj0dcvZcA1PYSIfMeGx3wS/v3MHv0oXawsglj9UsSFDwNpNnIAHgQugoMiTVIhCVOw/gmt/MVz7o3l0Xq/+zn/PllA5x0T7rekfyyOgZ5t1ynE2+P2dj3qF52mX0v6IxRs44SxnBZ4NFkAbJwA+CcSuus0ST8RiK3z+D9heynEX9Jn0nAnCpfHQ4pn+Y5pAo5Kc4gJ/sfjATlX0Y0z/MPg7cuV3RXG7CR+CmaRjaeHvMRbAZdNdoAtwUMGMbeGNVjvGblhzU43m+zqm+apxoT9X5oqgnGgyLkTrk2JUXQR6MyeEIYmiXJyvKvAIV58mMpj+HYoYpWeMBr/4LfQxg+bkjChP3aZXIMt1lgZLYAlINDQ/XpW49InMZBzuyT/BPbHRvnRsmOizRU8lcYCcybHhthGXmtWC5Mm26gmA6MrCs9JZz5RDkipmJS3QIiZhX2zo1PjEHmmWG3kdKc/ucnXR4cYuBT8eFR0pSXZW5noX7P8EbHtELoOjhCrQRB8vnwqfB2GQtsY9QD5+FYMoSSsfD58/oayUmEz/8Ix0HLKUirp2T9JCAu+/YFizrRVXIk3NzEqDi1VIiEGxgN3sxoaJYNGrEBnxpK5ks+QXVOaKRTzPhcngBOceFJQwpVYVaoTpHqAGXr+xFHUeWceKuouy7AHAp6jvicJiUGr2Ftj213yxMFklT3nJcNHDH0t4/xtEpqWGUovNKqGwY4mITGwxkC5zZUSZN8E9eQ/sX5sz2/tSwg1cdfqaiGcSFh71t7TZZuU/GX775k2GGjsE/jogwOdRpililGkLHZcIMDtJ3buy0jowArMNgz/y/IJReQjMGu/A/K7OGaq4QJ6aOtz4xUVw2YpAcg8UYYkR1VA6dCjAGcunwf06vDGVKC38dyEw4JTEMojpmCYAeYV2RWQw/Zfcx/dIU7EYTA18TY0mvgX9DK6wlJUcdXqDQE5aZrTJLDII/xxVaX5u/jGx38x5tehhIlh0P88jKckJcG7VWgITcNPfANuH86lELOmtEp05ugcTo4W9Y/2N6Z+Iv95m0sRJuPdLu+LbEnElPIr3fVIPfFRgfoyXOmbK2eneskUpg5ca4QpWYHIJ/ONJx5WuHrjZQLTQIdWFNlag3LXZKSvAKf4I9/QLsP9x1dKqHm9F0OnEqFoe0tWAzD1wYil6MYBnoQDvfzthosrB9F+6dJ4uFVdZIiNPBgP7m3AvH8XuX4/ib1g7ZOM4CBlfmGwVMw84nTJsPxL6y6BvMYKIqfYDZx31VICBLjWmQAeBtKiGeUhIThyZjv8e9p/iSoSLRhiFuQcIP5a0Ypi0n/gWqRTNhMG/eC4fi7dpxqfEKSZlip9Rfhru55kuY6NFaFIWAN4vcVweMNI1455Y5dHw+aXQq9uMmIUmwJxxXHkha7DkvICW4Ve7bVuYug7VH5zVRFCj15X5atMf/tcLKTU8wzAL4d6228wnMRLF5Rij2pW16lAd6T2wf8SXvBO9lYT5+YloDQCEuwXcIqglxcPg87PgYH6BB7edKaqQBHRwDzoA/+0mAs0wZFYQkh5DYYxnp0wlSZmPiTiEfMhT4f7/oaa/G0z/tsZ26H7FVmFYqQ5vLRsJdTkJ/VXw3WVcEg3xHykr/26L6K2XV87FB+iheQzs/wpaAVbQUU8ELlccrILOqD/Qk3Ou/kBug/4fcH9Gc0HDH1l4uGP4Cde1pf69437UAXZ9ra3rFqN0nPxr2Hc4z+Ura43pIKaLoXaNM8z46GBUJWVdNBuroyv4AxPDCbwbtt+63XGxz6nJgEOLA3CkI+oPyLy09QeIF4dtV2JACe7ja7aPOVnyAPhpPb4jte6yb53RNf8q9Mflxl8fMjxlVCK+P9Dv9VT+i6/m/X7RQVXiYjRZHrAxAjRFmD95YopyzrG4fjP5ntXECC6qfDVLY4WHakkBRvoBVJO0CRrihFBtgCeH+9SqFT91E7HSKzBQbxgvt8P1RubmxLraOkPTp/P3wsPt7GubWLkS/leBxnDBvj8gmGhm0WKSuOJZnGBNEf3J8+GEv4bgEcdJrwKGsymHvIYHbCnx45zQQ03SqRe7CaZ/K66xNvN1YBYXPxdEl2mGlHAsQ2OUjHGBrSUrVG1HdoCBvdQFeNliXjhw12BDUnQxgrJyDXryCrvwgJVSFNBM5I7trsptjthwmSUQHrYlyx74Yqr1xgKT0PeVgYe5T+pZN/UcRALzXfjOX1ZjR9ueKmp22YvgvCv7z7EaDAfuvpvUoB7wlWTgUHjvxuh4XFDdvN//WUZGN48Uo3ETJ4h1eokFMI6Hz8+DA/rVpjIHM0it0Lq0Gnqhh94SyLaRjTNYGZ3GU2b+nfD5Y6in2BSlyVJ51TUDLeJykNHHjj5Zxe4MrBtenwL9WPulyfJwNFHWAYVNYysRVHDA5kZWktENZ5+sfBZdrpqzChL5GOhfhMngXoMyTLVS7ywriQ1pxNC7CpXJi+i2GRnyWE7As/waeKYH2PPfQ0xPzpVuIeWbZnFyZr9J78JvPBHeX7VxbJlGh24qr1SvX4bfribFlh4IBh6MCVNRiDNFa9V3xUOO5ubJSvi9N0KfYhesTkq8c8EcDb3Tg6mZCabGrmy7pgPdyPX4dJgQHsRBV5r0VUTbzkqiSowBuWJLM3Ycw5MpSTej3yAfRrT0v8yn+I6GHUP0vtehAFuXX1RWQYwTwgC5B9JzD1CrDrY/Ay7aD0w9cx5TkFN4DQ9h6Evn39uIvsylU+U98PlT0PNsz8rMd5gaEdXKreV1zEoOBUgVnf1soX0OUtITj+NPrn6Ub44vhwP/OI9COlhwa0EGGnsuOMioJ01EHlx0JnzvQ9Bv45gCRaLpaeoFiyD0xTXzDZ6C0Hr1rQ5QNQXP8xtgv2SVtpakpcZKcltO2louemNKq0LZ+v/j4Xg/YQRjp0gXIL86H6mYZ2LxNh6YqFC5KBeKbFWre6QTBlwk+/CisWM4GX73JXB810+xoKEGSzjIcQCqhN4+diafzp2b+aSJcDVsvziLi0cyi7o31am8aOJ0QQw8rR/4WMSV2oGvUoW9nlUdy2fCtmkdgFSxtZk9KAOJo2Hw3akLDuTH06RwmEUfEchn/siVyhrYLFt/ItVYq8/WyDpI9QW0VsGG0iCaTk+A/iXYfq8rTVYnxeipQtAw9BbxLuTMfHiubKk1fL4HnrfLYWycm7Nu+6ieghFwiDYMfJcezNTqrxSeOZfHw2Hb97cRsCu16fY9SINhQQh84U7DRgtfGIf+aA9/nLCVuU0TARJUmBOr6jhBTxo3uAfIXfgm6JtN0JAQbTNUL13PM+6GHvqCaycMSlUjVdXAsWZ+IqegvwH2F91qP2jRelkbzXy9UDqXvKqAeIoivpf5+WtQVBYtFK0qrfgk55jrsgdtwERgEPAuIn3YjfBEnZaTl/snq7nmNoy49EJltD0n61IjRQogCmuNGLcF+jNgux80JIhlykkrQyFS6Asw8000P01yZn4ir4LvXIyBarYQ9WZUjTc+uiKqlostd5N53Kw6UojWn7nSoG6VxDs7ltOgfwYHO1Xm6ixazNKT8V4nAFXnf9eEQ4UhgKFO/+we6G+Df85LEY1gpeMQKLenIikr6/jD5rO1zHWmJa/7csd/JhzDB+F4bNBQ+2u6jj3nx4WHPvR5C9YhS1H5yCyaD5/vgefn8nQPZn6FRfMriWjvIri2aFJ7fdezcQafz9FYGjtWPX3PPDfHgiYAhw/XhIO1xPo9v4Vtb4UBVWBBBj0LwoHesGaZYplp18XgQUNjCmlOfM81OQmO7zI4h18bpGEtMXyGij+PE5aEyeCBbuYTaMdE87U7KaZg3xtSbvnGA2T9wkpMSNmsTSW4m9YN2cCew87k3WAVD/v2ROK4ODJf2Lep1buwCcCUK7oBomrIJ9xEcJdabWMZu/yjoDgBmEMjQ9H8fNQ2c8jEIKqloWh8TGMKKAhiL9JPl5+I33ksXKTPwbHeo2nMpI6EErV25hcjhcHxADXzt5OZn+lo/rPg+T6Cp8O1HJskwE5rsPnNLV0d0V9/6Wrt9ubQs2lJPggJXOCZ/uXmso1J1DVOxhMEqe/F6lnwBJAXqbATQc3xkqF5/Xn48fNy8YQ+Fbwrs0joWJt8o7Ei161riimAz0XY91o49upWd+EU3TmdU2AvOrgr8eqWtzJv5mv39nK47+c2UVvqySw1nlgQnfr+mvn4DI+XNQ27mnR8du6HwHdeCcczMU0VhIb30T27C0uD788E4JEU0g/OEdZZzZ66xFf+BL5zUTWRh/mZA4wTwARQilW0tFWSVXtKJf5qbDCaIIYUjbySvBDpMDjOp0L/Nq4ApjxZmU6W3DQgDQ8eii1m5tMqacz8DM38RL7eM/PLg9bMTxl1etusWFq4NpYKZuD3VRgkGI5lBPq7YPttOwznv1Zk4gre+6Thud8TgA+DFI6bXMlbizpLx2Ww/ZXQl7MVWPEJqgtbOjBSg4XOqObiVnURRDMaszXIXgSvO6ZdXbZFd6V+LXyYDLqU6CQfzYd9V6GZD/uO9GrvNb8eTAIr1EqftWnge2luslizBhSseCQF9naZzJZ+LnldzP5Vy7ZgAsj7VHYiQN96dsqym8jfwUF/BPoZDe6BNtPJrwFffqx9syyvhjLpE45ngM8Ik7wUjvNnE34Rx4ymzJKczzBMBB1MgOpLrftmfqqi+eK8XMFMn3YZ22/mV1WmQDIOPz9mBfsPg2PGlPbVkwlHvKrA3pyvDbD/z2ErJ4D8xTdughIusPxm+qC/S6b3oTx7YKCS4yXhrdrtCRrCrA6m1sbTVlI6RbkmOdIScR5ipmH/nTgRbDaU5zpWwDgNg3vQKUU5HgW6LhpjZKc6mu9h85OCSeNFhlsva6uZL6PNpRPgVQf4DI6GjbtlsP0f4Vhr20jZifNoMmGQeotSny2fAJoomAgrZAAXd36bC1yAeyBeDdutzn1FoagaxSmuXbeuLTdEsRfFLn+rSyXBKigP8ps2AMf4j4iG5JyG9IDNBUWkpdY98PxfFZiucjM/llelCpvvzPyUovkKmz8mqQitPW6oKoGPnYWbxY1mPvz+Otj+n7D9t9q/L3r+fbuYtNs5AezBJJOW/HDK07kXn4B+Tr5cMjM696tWmDx/G2MFIto4OhRVMfhjKqhY9LUSi37Y/qQMOQ0TsWunqT+gSHJQRFoCwQxn6uNAmdnEZdAS+RnYd14+mq+YdOP2m/lpM45MZmWOj6zA5+tJsO9bmV9MRGb+vkX0O3kCyAVlhCnbnXPAIjdbw/6/hv3HsImgl9IwUbUk2gq6MO5BykspkybAi0SMwnf+HY5t67QDjBgt9pxVECaD1pv5mlDTKOFapaNYTEN/c8aEUEnWrE8XzCxCNB/BQfAMVUhRi+JcPI33YDiWF8Nx3riFpaFN7cpiWpSLPQE03MjMVezZtIwnTpHkxCkIdumRKCTFNt5MQ24qTAl0X+qTlhwN37kYRTOqrP6AZvEcaUmYCPafPls6NGrSVDDjV/D5uZzXjmJKvWolLhcMLqTtqFQsmVdWBupkjCzn1scoHOc74XhuZpwWSuqL6WQsqhu5hBOAgWH62ubanJazzJTbBduQRvxJPHVHqCjlHlTAKkjHBCKj2po9wBu84dTjNVAjEb2NcEx5ltLZS8QdO8wNji1GgqUSw0SwcNCOB0NXghmTBoGKwiUxCmaIBsEMlWouS1aX0ia0HptUNM+eFuTMWYt/Asf6ZY8KPxZsgVg6BOqSTwDNaJMzRptsxCmINnwDbH859BWO+aRgTCwVWTUmWDtKk5XfFseRp7ZqFJF8FeVT4BhfBsd7wxQPGpIwJ0108yFWcL8rPkHQtfy8MfPh/S2wDVfSkrnmL7ngDE0eAwO/UnL3p97GaD4K4dxQWkV6GFqXj42fY+D3L0GuvU054ppU0993hIvYQRNAM3EKG/lU0fbNNmgofwfbPpblONZURWKiKxLTkdXK32tXZJezIiHvGgUovSBPRQNK/hS2fzklEAeRMcySDFfAFOyBSdcpGYv6tLOmbkzRd07kieye91IlalQrFWBBGGprfMgEDzPm329Y66H1VqoYBLiwFqYbUxVqLPz6g47gMhSzW4gS7Jpz+ztkAvDgm0YhVUd6OZKrZoKGMZIbimPY7Kx51xLnFrS1EImyBl4qsaH+QK6Gbf8Gx7HFMh3T5JZpbsMHairRukaEKPUotkhC7ttwXS8YL3nUVn2eEm4bKOosKKdUjDijT9qUs1I8EutgOKW9Duop5qAl8e8XYnGjW0WT1A/VuRp9QE0IIpZ2AmiKKVCDZs5UPBmQB9yQbXASWJpcaixEEjbtk7Ux7cNXiFpJUhrIjwDDMR4Fx/8s2PfjWgNpCdUf+HXpB3kazwaEUf+Bp/Huhuv0ceR1yFldivgiM4VlsArvt6jlAtLCWMpuSs11FaAXAD4Kfv85cJzXcLSe9u87elJ3xxPLXTevUQKkbzCpdzsBQL9zosPkuTyzuXnQcDf0/4FtF4yT8IFNJRLwI4sHYdUutjeVWNLBof85XBq+NpXKzE0WD4Nz+QiCP7ZbpKEuTzbBUX+gHCxluO4eavwE9+/FVqTYgvsl2EDsIQpteD8c3Tja2148iLXmhsyK32eovehZGoJj/lc4zi2ema+Bbh1m5u/x+uOiuVvXvIhJuBfH0rn3mNntGLQAak1YRDpNa418GZsasj5jIipwDq+CY7dLROWcFRQskj1VBgaZjIfb8jD96JHsgULYqa0/kNw9WAbH/g/wvQ08L+zUk9sPCFlMiSyy4qwFpwO88gb43vNhZT/aS/km2szfNNzr0ce3ulUYyIwYqRvduFicB/s+Ddv/4JSrCK3n6VN0pOXGnx28/mbw/xb6mCmC4j7N4fDFHZM6KJdTh+3Q4JFZMQmM44KG4vcZCjMk8pGN5qRWZJk6fXlUAV+v2iZz0sQhsrgQbSwPk8+qIscsaFjEVe7PoV+JK6NfnmzUk+19qHeLqW9WHSuBzUg3YPv34TtPnoiHez0EKJr5pUHmtok23ROhrcHRAYrf5Nh0E3lEhjiPRF494Ql5GtBOF0jb8yCzRhjO7NQUZ5OwrWQQktb6YSIg77pljaqeui8foe/wgJJ54GY50lDnX+Uv4cb9HY8k66ChqgSzGoi4QrcrhVQtu0InSiU2Iy0pwzG9B27IzVw9OSXAVNbxhUjcWhGeEq6uzpNfhGvQyK0H5j6/B+2cjLmrhr9dLfNUrhSw7XVwvTdNU1EOnY9XHt7RcZq4QdJ99yRZyPD+i3B+x5mAqr0WGFsx5bHVBK0A8aub9CSwi93Qeocr8NQ9nfuYVh4wp7cayGgib4HzeD/cwNPzVgFG8ZUuQTygYZ2LkFaqabiq/n2/PPlE6C+E/hsuhJImhvK80wJNgvuYc5xDEvb9AfpH4JzH2EDrMdRxyHKbrmlfbKbGIN6Z4dbLR/MTifz5n4R+tyHdMFoTTCa9o1mlubVOQeWZzNL3iZuh/zWvjVDWZymHkszIDMqSwnHw/od6EhAk0Nk9KauU+Wb0XkEvJ3l5ciK+B/0i6EfwoGFqAEZl2Xb8eEb14Vvi5ab+wEMa3r5Wla0+HvZ9BY5jl0OUEXvREtce5KwSlspTA/9O6O/A4Jlf36GoruxEWEna435h/UgF7uH08hVOZIYNfDi2w5FOHuHctUYOiLks9lb7eldkVmLjCos5W2uQiA/D9pNMYDUj8tw0D5FmKqLcL3sLXhQyhSi/6f1op/uk7BgJT07+qMvLi01wzm+Cfmq+gkxDPJ0sWrtIS1R5ssGU60xFgxAK3ItROKa3w/HeZHkKYk4NJeYXaZXyrykBXhxZrLgL+jsyVu6tLRzZW2UBt3aRaprJZVxjM0iF1+POHySJ7kmuQm1IYrvCzGfuVr5AatrQhsUCqw3P8CoiY07fX2zMfzafBOTZ8I+vmbamEUFbeXquK4JT7IJpKwYnMyvzBOd8b6ZX2vMrY14Ov9doH1RHB6Lx8sq2phJxkFyXDEcTOjhlfGTOafhg+Pwi6OvRtTHkEZYH3gSmWj8ROKwCi7WgRbJTX7/f0Yo/mGfbMXLzaE3V2iAgg6As499XdDluAzYfrslZsA2RpHftcMVEuqSbx5A6n+ilzu+F0byYtryc4jtwro/xJ18SCCX06l6q4Ap+WoQX4iTibzB36FIhvARWdA2ajZN90oPs1R8QA9B6uIivgO2u/qAkG6oS0TrIVq1qW8AKb9bWgjDvPfegVlZkp0+Fc7gK7wcz+VRduZd3388Jmoutuso1/f83O9q3W6D/O/zGgF9/rx+636xcqRaXa9cta8NkCWY+XJvbkxOM1LwHy840xdZfoWoUN/PTvHxc5xPANoDiUvbMEhDpm3C/HsXuAT6nvZNnOjBcZc0CyHhVDjvxIqO9tdGTzUN5RKoKXuQWw7GvfVHrj7aUumhR6w9Y0NCmEhPkNBT/nSeYoJWtF1eb9WtPggdxCCyDwfbECVavtr5aumeBiEfDcX4dB+lOl0acpUDQXMomgfuZDOpZ4vPOpZqLTqUka2ySRKYk2I/PwoNzKVYezGzLwMcJcer0AZXCJZUoRd/Nntnl0P8JKeCdmS/IzPd8+i5Y7UWDjoF1t2K5C/Yjz+GZ/sBXBVIu47Q/ACpOl6QpklkAJZbHqJufyKqh+jKVfFke/NEtgBWnm0YQ1bwunLgGzucS+M7xdgWiaDblkttOWqKj2PDgI6bAkk5IPhGgNtx7YfsOvC/bHQsuBrV2UzprjlkFlt05vCMEuQAAIABJREFUtSuLAVfpohyjOkP8enfCfkwlnQ/WT58PvZY9cxeN2Wdn+uyBlp67otgygpglhadoQrEl1sF3/gsnbr1AFS1ox55vVxRh2SC2mQSUq6LdVXUf7oDzfA9sX82Rk5kOYltXsiXqXJlH4+1TayPHvsK4J+IXJl1FA2pGp4O6rtilKaU0DhIjJgLntAPO+d2wbU1jPhtz+wVWJ94mIEsJ2WecNFWWozGD3z4ejvPp8HoFHNOt6CJgRmeaeOdwUFfZeVep43bDf7jT1bDfAv/7K3DfL4W+LGd5aBlsNvm1msexGcUW14QcH1PW2AXwnf/1Kba0q+KxCXX6wPcK4YShp5+zQjaxnIB9r4LXUzgBCpHr2vHaDily9UBXSdBDPehxPsgiHgffQaKGGVvskrhil5Rj+btGO07UmUa8qko0Qa9U5+O/Df2psO9BPGhINepRtSyib59wWpSV24Vok557oB+GhuwBTgbnKznrRHwN3qPk+50E9Jq1K34s76WV5QaaOF4D/bHw/eNz2ZFeCkwqGjXz2+3w78fBZ62NGFYflZXhGaoT4fxfAtvWN0Cpk86pvd83M18YK8xjPoLPP4d9z4Zth/tZKsU3aJ+F2gIRreO0eODr+L6mYfEHf7OyEG1aKwyJZl81WcZXhQS+8x44uFu5Qm+qH7IuQLPdj18cW4rweVYUUkOFGehD+VgBmsYVhgCsjLZeFWlibKUPdiERFC6Yyu5Pv5oUErkKvnsavD8Dvr8W5d81oUWhrzE4rOMOCj3pl8i2LY1XKQlblLN+7SCfgEqppti6xcYjiBw0Tbjr2UVpPGPmcyp9/Yw1YT4y98GlpyfHhvdp0cB2w6iM4LeinWvk/lsEGBnftHaFWYkUm683QyfixciQs9mxujA0mxeU6prJgOPyidfNphJTxUorvoBpmB/9yTF80lSztYrml1ep2oC0TZyGaQ7abBSR4LW/2YSwh4cE/6ZfF+Uo8IjCKkzGA23RbfDiTajIEzej2JKPge1fQmgrp9jSNNpdJfLawJaNz5ALPIvb4fP74HuJzfiMDpvAczQeD3kDed/GrFM7qjKrbVt5pcmnDqhu3u+LGbo2mlckmuSP2ps3WVaglvNTpNWOhb15eoYTs5lHjNhNE4FH9qCsApOW0QxA4tdwbpfB9TmJrb56JU10gZAZsO2qP+Cw42pcNNYBkVuoQdbLSqZ7aMJQ35lYQw9Kub1ISHx+biNFXMJbsOCiPBq+cwn0vVJsdUXAmVV3pjk5ParQq0B/BfST2fXpJVM/2lw+CQb/yijbT+SkzgZYS7TXljgn4kg/9xzL/ZphNrDZBWG0qYYd5tNVpUyjxHbyYhcDZuAIs+4SqeBFSTr4tMXVH9wK1/KDaGrng4YUVPXy/g+EplYyGPQTSqGnKVpPKDWfWGzZbt2svDpTl0TzdTDZTFIeJT5VGH4XvvvUaux4LAzNHS4U15yQHDByMuNZqsQW/SGzNdbFHN4w4FNGdbW/s81tYqXCuWt+dlVswznSUYvveVh05M/sMsev31W8eYzVR9apkMSXR0vk9+Ecnw7X44j8LK/47eBaXT8qPfPsoBr4Rqy1NGCr8XL7z4Tr93Hov2e19yqQbN2vbjDzYw7TlYbZ2LmKMdZJyI/Cd85syKrAwjlu1bG067W/rZ4L0PoZPPFVOL4b80jAfuhHGVRgOlY8IBYWo+pz4xnHGTLFJlFq5dtdkeNVm9U3XTjq8KSLgoa+LPUcoSZt/QF8noLzeiO8rsoFwPo0t2DBpXRGVnT1oK+M5v175X7YZ+AGzaX453CtvpN5aD0/jdclqWQb10pNfQERoOj7LmvQPVk8uNc9huAUs0W/iZa3pCTaEJiy9H0/WQAPQizH7WuH0Sr5Sd40WwYbn0MPnzJJNq5ZccBUTBzNVtUML+ohuOxw77dXwu+8EX53ihdpmOosXvHUVVaBB7rRJaZWsTaW9+LNgO88tiF7QCbg1OpBg3brstXekWqmRnLNr8ZD+rnnwr7rTBqPVsyZHJq0iwrOJBVHibzy1Y8QlwH7HuShSVWdSTFaX04oMHzgGaIKCeAaCz71oNFYDyE2bnPpxavzASM0zbfDwZ1OB3lIxnzUagtKN7VVgKiuAYpSy748Gwt8fjr87g8yX9NdSXVnjmWmq6wCjjs3/iwPGsLna6G/ACWkmEXQo7USF6c8uWX4/MSLa/TmiplWwPm81vj3W2xVo6nG6xKdRb/oqk5qP664TMmRi09BP6cxjYcFUkzlqnzgAz9j1GmZFr/tqxncTiyOhON9Cx430ebdtwddAPXF++BkMBVxpp5RFLsu99+j8RZw6ZnAxu2nWaWVJrTLEnxCpZ56O5NVmiOElI/a67KgYeriBZjKmmMEmTfBvnfBviTvH+oJwRV3jJeGOmfFT5zJSe97eWAvVRJZ8gMIJ3aunk6j5kpwu8bMN/X3Cik6ZpGiU2mDHLmVl7Ps1K2iM9dFUB7hiYf/gPfPRIl0xoMxu0dhkFRh/MVvScb7PvhnL2Qn0WfIBH4gD1c/tqFFuewcMaOOCpe9kzhZo77E9VO5dFDG3INuUt1xx0olqHkJLIWXkN+E7RcgeMebCAhT8I15XeJZKS+dVZB6K09jYY4qw43lZ1JKAdd4xaKf9ekC0g1hiqQazHzYfzVsvzhlcuSEo9BSdsly7Ra1CEehYwaF6NdHXWAD7Xzgw28/AetXtrnS5xk2TvakDKR1AQw2nKqovgvbT8tFKnvHyw4R1qpKOF3AgNFw2ZTFZWM8gAGTJ0D/EhynCxpqopLZLO6+QqTMK7klkQw9+C3TMezfCNtfDvtPacwRF6JtRz2CMBiLFyeoMsw5rTy9uYH/CDjGb9a8klVJpcqc0LWzrTXHLKWj+Th4GPDrHuiXN1SLUtk4R022Cp+vNBHgnk8mw+Tji74Ks8gRvg39u3iMW4lyXjMYu/jZ3iyAo1NSBjInqzHWivzhQ9CLHiZcs6k2AA0OGNo6WnDmpGbSbWDIgd9fBcf1JuibbZRV+2Idypu3DzLYLnCoWJhs7T2ixFTuVpbddVgVGf78jWtXRFVwC9pKY6ZqHGR046phm8rzVx7xJ9C/Y4koeRluF3DrsVJo6+eb47cq1omcUrUVbDxU40Fj/UTpqPAs2wNtdRb7ycYKBPVuwNicD7/3fRz4JFs/Z2Jm+eD5grQBOZd75uqPUbnlfXAAI2wg9hDnfjRRKkbjLY5Y20qwZIgCiHnIsTwS+jMwx17Nq+4YnoLYnku3WQXWPXA48SJNzvIb8Pr43KTYl+YqEsdb8BBmqwfsA1iJCxrRiBj9VSv5qocyWd+x5CQU6EyZm9PhNFt5cY85LklnzfwYzPykeCRfCGkxjMZHB2ByLLbOv2eTeUWDebwiPJW2j+VFcG1/jouEGfhUhLfHYqgFioN6FM8qHccIH3fBjyIRwUPtqq1mQC1+Mc5gri2bCMoaNrr5bANXlT2NQBJ5JvQPwXHcxiLMczqVmGNV6aI0IiN8NLLjVCmmBtpP4dwuQqy/PxHoSjEnp7Vv92I8HshpHxJpaSNGH1ceu+IbtRyX9ej4uAyt8pYTwovmw2cw8yXqS5zbzMyvsGh+JWmdf4/P+PxZg4bX0Gc6SsRxCDOHfeM+Hwdb8fcCrd9HdWA2EVCNco6K6FvNViIyU1zqb7SV5pBxDwomCtqXlljQMBEnEW/erz2kYeKChhZO2nWxAqshqPARW8sWZIJlvi+Ca3NCHlNA9Rk6cETCqbVS0dPXq44WVRyBP4DEItvXBLF3LHSkiPvZZluKa4lEusP18uMQxP3vQDuKLDYRr/fcXs09qEE7ccFDN7Ysoj9KNOnmuc5DpLXbu92XldMqRaykuN4GeXBW0++UeOqOhVT+Ag7wObDNi4JmtBJtTJYp6qw0bh0NNPqilRERTZ4uWCCqoR7+MXDMn4fj+wOnMbNmkl1hu4XGrEH/QAV5NtvaA5VGfE+aE9i06E6wFIyFQNqFZMLqVQY6lgv3bV59Wi7oV0Qz9xz4HpZ6T09zjH7iIswdvuLXfUUpba3UfLzJT6A/C+nv2DOkrpWquU+Ww0o/tM8W1UKyYEaRuMG/T+S6VEGHhYNI60zKbOoFkBd23fdzAvAlhwyDquEhZ4w5U6mqjXdCj2RCapKMNsycXB9+T5gCuFBDCoCSiNpWj0Cia6W63UTgItQ2jUiMP7+Cc8Fg1TkZqz/YBzjpCViPDvfvrfC/bqwRGcqkegAVVHs2R7ve0TJZVnxVw8w90A70T8G2cxpjKqLHUeO1TmUaLWIeV8krRc2fh1oR4k+J7LNuIdKUQs25s/V9TEEfwATQRIKIAC2KJnqTS5HcDQf/CTjYs5umSMou918pty5oiKnEX40UVWGNIZTwkIaxOAyO80I4ju/ghfTLk6WvBNNlNGaU4rGMMhgD2bnGTAZIZSb/RyHCYvlc+M6fIuU7vF8H/XQlgpnIp0B/EXzGVf6HCMBSDEjwP4gtue6EM2THT5gpj+bHvpk/bc18+TroRbdQFMwzGlnSjRau9gjVrcFv3LBmhCElPR4NrNJ7LjyDv55iC5UOqIqWEOq0ZgK4H0ojj4Y5kT+GB+wZtvSQ8thGpLOqiDJaqwKblVgATPPmNdCYoVwVHNe74Nh3TrtgiuFiY1HrrgEY8VhNnSY0JAOdN0G6m4kbcMLxHlLhlZzfRKSTyB+4tWwj3/id3ZQK7gbhjKa8jjls/lWw7+KMm/mxsO5qlQA7rcxm2cIcls3iDMrwXhJt21bOpGUGPocdtwCE1tIJYA/5U6tW4qqhlCY5uAcssDI+NmpzyRkhC3X6Km5p7poHDbM8akrXQFwKx/GziUaZqFkbKOqmQiSPR15qgJHOZ+9OiYilccUUunIRBrz6jg7s5SfCLmDaIWRlzAqvFDZfXg7fObchSNomMx/p3xxnY8FSq+UWoYehpYwWM6uGnaHgnuETaGkKtX0TQBO+M1Mokfe5YBvCQx+ZL4elVFO05dRhlVapxq2chXWl1PrThs1E0CStJc6D4/4EPBh37nBCITkyCht0me+izgKHjIvOfG5kZeoexSf7KupUNObM/FhMIbkIj+YrM5/ESbPy4H6lSReSxvvtyqGmmo9puXBIioIlifyBr0soPBBb2ib3ahEmgMbaeMq1euYY+d4/V5TTiTjWq4LToBYvuNeqtiFxarSpArZogAUqA7OVYQCO6R9RAMNE2KuuKrHb6tQPqp4bGPq5inV6uomZf2QzM58IbVtr5mNl39qVsPJrJKuhimduwDLor4SebnVWseaWTBavuG0xJ4CmAZnMQHaZdDdswyDVO9LEr4LTRUjSuQeqNHaope4BYqkzKk/Oc+xXYpU2e1KGnIak0GtIS7R74Fs7YYAuSlGOcWsUG/Ama1kiKav8TB6bnxE7czvMfC5YQmCpZrqEa+E4Pwivd3BhV+OK8fT6IhWiLf4EwPzMOuHDDduPuomsCg4DUlfChXlymgwd4s3eegaHQYm+1WCLgzSuUis1N7IRbz0Cx/zv0LcywEjdphIPIDUT+t7TeJYOjCnhmsUD7ts09DfDvRj2ypPj9kXzDZPxN446TE0mFNS2z8uGcgGRqk+E47oSLUYDUdcALpNtWhpC0yWdAJqZcQaUYdJX0672P4X+Kthvyw3XkxaBV22FFVLlQgsnA0NuKiyrSuorJh8FN/xi+N6Pef2BAWd4eecwERy4+8hAO1wwA67zr+Dzc3PuowE2qXLZjImntMq/31guRtVRQTR3vnozIjHheC6D379+cxPBkjRe+hhLR0wAe6u+MtF3y5Uei7tg/ydh+yMaIcdauvuWU6UqRGpl0NDwqq0vHs3dg3wU9yzY9mE4hjs80hIuVNEVevMdSLluCTWZhYhZjFh+pVEwg0A7ZVZF2iJ8CeocpoyzIm1KXiNK0NGFvclnvHb5+7Qj4kWi3nkTQG7WT20WwRfpJNVbDBpeAvuPY+ZYD1FLt0WuClOSXtkzkZZwPzLTpCUvRSGUKR40jDtn5u8WVmVt5mtTmdGr35xpRSCbH74eK+9o4FdK7v7UW7ja48T/40jTbKU5M5++83g9IUlP80Lj862b2zEoSXK9Z4ka7Opfn9vfURPAHsAcLr1jIceJ3AH9nc2Chui/W3UcWAWqJdFSq2Ac0VwjBcN67KUSK6PKSvhT2PYVOI5dDLutijZSvya+HiL6XLzTDvw6I0O5AT5jkdODmX/fa5h0EVVXiYutBZEpdGqRVIgtmzVH6yFu5Pmw79ecoSpNfALbjgsMO5dqN6F1P21AeebhRiUWPQF0SJ7bj/pqdJtPnaVyp1dC/4tKIg/lvqCmzhKKqPK600Za+pCk5cFcuWyjEAo8ECNwXP+GBJjTNmhoORacenL8gEsl1jPPNdIgJWPp0Xe+g3RolRE28KiyEQflL17glIVa0X70SJdqTpNBy3Oxc+3JPGO0GusicPFxaD1FbeYXlnXeveSsU8gXQKlSDdO3EwCciGUE8phsO8s3NFDXRpHORGbQ/xkeqmK+/sAr6mhxYMi4G5UxI3ElvKAhWCNHab448aMaJy1h6sk58NRBnsazsHHFBpyrH/lv6Gfm0Xpo1U3EjugE02+tundqYZin50JN5A3K139C2hX3OTNfumo8FrPo4JjKvD5enZGA11eail1u3qIF8LtajpWmowUY9INEIp1FC/uE/Z+Fk/yTZkhDHKSbkyEdNGxlhBhTlCiiueoYQ3ne26SW/mGw7yNIvrrDr+mesdVq3kA5uAJ7uopUFY7NMibkrVi1mLIKUstFgEG3NeDGrSy0lmAGYzlYL7KGMgVal5DTlx8Lx3tpmtcl1HUicx1fJ5Ifu7FmlCKez38mkh3L2aFKaukB/QFBKHd3fn23DwzRVoE2JX2+fXkZkoS4m1/sIRZVWzCED9r8ha15uOqMyqyWmAcM2ZKKfDJaBtteDn1jg759zNyDriIt2Qsk3NHLKZguRcnRv0eJuKM5h0RKZv7Uqr9SOfzWcuv5LEcKJLSmwO8Lck1ixeT0ds62Q/qVadwNdRFuAUlJj5BK9e+G83861SY4wh58TckU0Ooh1keY6R41Hh5MkiTSKZlIp7gN9n8oT5RhVHhwRfjJQNlQW7fUPVAab8RZQD6stQqqJeR1ExcowAiYaNbETMjEzEmSdxG5aZ2JuNj8PT1X38fS44lSsZdbZ4rHoeRAO2mpNfcBadNNULiqqeUa0XqxfBT0z3ts0zqF100l4jnovdw9SdddCe3EGiiVKhKYJhB7pxwqn4L/SEMWsXqsq2S56jnLQOWRJxhRBvricC7Pgtej2ANAjDgusNTKVCKyF3GKtLQJsytsK8NvvweO+ZaGXHLsx0A6fuWh4JgN7Gl//4twDo3cenA9apb8tbXYfGSh2lg6xUzEismamfno8v4NfO9nkz7NXU63oONTt/kApKqL2Kk5DW+Bfc/neAmu4+DNkmYmJlfgbOibkAyCcMozthKuO8xSD0lmRTpjVykGnzfDufxbyliOHagEC4SKHBrc0lSiediJ9twrGoFtJ0K/DI7/unyayVdP7pQVifPQ8YGv8PnInf8R2F9m17eH2J2jdHQgysZam8ZzCFEjP67putn1HYZr/ibYttXyQBDhqo/eFN1g9Vp2LsfgrTgid2VI3xbLh+jxPegWeKYm5GGbuVlMM8QxcAE/WDPBg8QUMIh8jr57glD6vRISYdHnXdC/DvsuyMqMXTeh+gNcScZgJZHHtpbynCrSppDbv0nZ6NZ4NW57PHzvy9B3GfeAmIFn/Ylg8Sfk1GctZmo5auDfBdf0ndCHOLeeXoUFY99pB8WWaB7NV6xHAouF/sDkx2eJZp0HX7tAl9DGVbxKSE3TJj4D5xP7q760q/4eC6F0ZHTY/hH7Bw+HfT/GmZKgruqiZd2HbvNptnVO1LIc07lthG3/BK+u/uChY5ah1eqwxa3T5lPlySaVmBSbshfB5xHob4fv3WwYYQkmO0sr8PwiiW64e20x+tK6WDTw35FxCWwte96LpJesaq41/n2sKbZ+MZboGEsDxRbqRoiLYd/VE0kOtBM7ayrtfCxGjouCl9artN4uTV8uxth4VjUzztqUC/ObnBiH/yDCvqfCtuu32cEiZrOcYm/alSo8VNEXC6bCI+FBlpfDtv+XmyRV8YcSQlktDL1T62IF8P9+uXJ1VKVClgb15Fg+GH7vxbBtA07IW8ecYKqTRmvLROAoyfU1sySk6Gti+hj2vz1lA9/QXmVjQ271adGKnzKmHZNl8Sm0kWJLvB6+N8VwInUKrnZBPKVZRF8Y63Vm0pRAx+JO2PZ+6CNuUlSKXfyZUToPC38I17jih9tOL2jTlGbv9DTlvz0jI113I8lFbCbdQh/VzIx1PHoN+u7iF7Dv+XBuJ7AHjBSRXIQ5a3GcACeZyfKJpgDFcw+qSg5MPhW2X2XVeDzhTa57sL/3gmPYzaDR/98WaiXyJvjOW5BAxS/S0pRr83Rdrl237MBrMkoOfZmVtGRc3syH3304bP8k9Hvy3A0eb0OHD/yU60AkpijKycShNgD0N8J5DOTRr5OJC/LVDgQ7kTEBSCNxbH9sBDXp5JPhR75vePSqjkdvzlFQdRWhZt1Xi9GKQq7uXN6camm0dc1IS3DA3ji4hyDL/t6D1avZaqfMOCXLlZssHq1iGPDA7HRxgtkscZDjdGFsM3nefMu2g//P4Cs2a+tvHPa/LGMYfWJgVgO/dsSfqQewFQOfnr1o++jRpgTXA1jB+R8K+58G1+aHPhnt4lBstYviLGW6itucDsNG6C9KWTFcprUhe6tJ0eMqaGlUNWOrXBOiDAyufBYZWVygylREMe657oG5+kKWBFmddH4untN3UZetkji+faPYqyaAcrENaS0ZTa0rRBtHJZnTugKS/f5p8PvvRQpwfGC2O7GLOQJ2KRQbq06rG0shNQElp/CjIuLGb6asyZ2w/4spyoElhT7f1Nfm95bHH6+OE0toW5HGy9ZgpsDQdwlrWdD+U+C3/hG2VS3xLAGO0pyiVbfURpAVbQN7250u4Q/hfP9ifJRxC5KlVRkdttdrYmxl1Lam2XhkNH+WxU17fhe8X0WMOdu5Nh/JWOUJJ7vCPeCrh1kNM8qK0AOH3PJvRLXiRtixEtGMXOqlNTLqSHleTTwhFI/GDH7reOWmwWCF97egGXwT0YFPEd13lZ2nkYPH7Yb/cKchOYnFrfC/vgrncgmc67LcxK/Slymrwb923boDOrfN0gUI0czP9kyx9aGU4NRTRgbbxqNkV8SjUguW4u6n5NwH90L/bNqEyRjBTJNrCo35/MVoeINUie38PKHblEnGH8DjoL8ADv5ajqOmUs85T9qqi4KG7nhd0BDz9DoIJvFmXYE6iTAL9/hAF428Gl83HGWjIspaRFTBi5pS7XY0k0Y7PkXpaM05/zV4jxqCsJLL+yitO0eoyXvhGO+AzzfA5ytg32tQax6+f3zuN3sNeKeV3AupR9QqjRyXX2adiCfBPtSirDspL9EIne4C1GrK/PtM41Mc90EsdmR6IV3pJtsCg68PwPVY1TI38wACVYXIcflrppSsiTafNhsdxNIENJxsdHe5B5zPLSWceNWjqpLXwzm9FPaf4q5V0VhMjF2mqMpQD7Sh2ZdycFGi4wRp7Kwztmr363p2uQq+dxq8PwO+uxa1GuDzMSkz7dkkZv9flvgCoq2wZhCENjU0rAc+MfeyxeQE+K0Xwr4bvJqJPNFK3EVoPetuSY8CD7bfCJ8v45NuZnQJ4b7OuzhQ1FENGXP4StTMbIPPpyJxI+zf6oQlZd0WWXQndZZXsJNSAJRVucGKKv8LxR+amM4KEDMpV2hVpBaRlqishEvjEuRYZSv6uRjK/VgW+Df9dIw9qpYBJnqUgG/VqoODfTI+IRpPVpr8fR83ZeF48Xl5G2yzFFsE2pnxVs+kC/x7nT0xQUgEHVncBBWwXQnfA+um2OsF9vS9a+mE2373AAMRWHBRMoSaKkKeI9RUKsI/nWxQ4ZFzOe60LlHh4VVvpv7A3WSKSKPq7LORc8GrfFPXB92o4ehLT41aRlfNc8Cak6BI1gFNCnqS1vJsKoagabNJFjyaWCNs8UyrGtbwGzNfyZHrGEneYjwPHvrPmqIcF1B2FmOWdAXexAnjxJYG3+FMYnE7nM8HYPuafOxI42+KLYurLM1EwEQ9CFzUaBXE8v9B/zTixXc4mfFZUzbaRbN8kzSaYbrJ1x/IrdD/Hb4z0ggwkj2VMXfN0rUyOhhaWnZuT0W7QB6pJqbxoF8E23/M0XpZNxblJF69jMmoOIozlT4VL8cMBhv0PRQriqpjxej6lQOtTeMtZavTTbfYbx246uMRcVRnhQv2Wnj1pLsNddZSY94PxPQzmQTDCehELOQuuBYYXT+/Fhe4TmEfBcCiDeUB4qcTXXnvM4aSJPouL1sB5/lguCYvg+3ZNkaZZopyUpeGrXcZhoRRnA2ZiP//wfn+RTVhtSaW1VpGt5UGVYatmojooG1Y311dW4jGV0vLwsIhi3DyD4LPF8LN/06mNNFZ8Qsj1Ew5zVGXAYx0WtQFDUkl5gbofw/7H8KRhlSVaOvi07g7VgU0X6uGvqt5unhlhtx6sbh5B69rMPc4FvW0i9B6FnVJk/yUpbOXdyL7E5zbGQ0pYrXqs8nxILH2FgY1LklPTknlkvPotgRBLeL9mMfmfPvEo7dQZFuHKvZakJElLaH6g9tS5Rf6SEMTELKBVhhctRbKo7USqJSxun68p9x6QTIWLFjxAWMq9jObdVkaz/fzHdMRQeOrKGgD93aFN6Fr/97GVbKDebVfeJCKZw+EV8FED9KJ0F+Y5TAFZvB4qZWuYszh8mgqH88iw2oF/A70p6Ye07FWocFJc37kaIfH6IR4T8mtZg34/Fg+BrZ/s+r594RK9LM/9S4I6llS2pSZ+cSj+UPY/jToh3nqFKcHAAALrElEQVQ4EI2diNY/bFBdp2516RZl9aisHrR47ybS3cjO+vmU6rl10FCnVTpLfWUfKM99VSRt4eSYjmHfq3iVHUXxNRhn9XCUnjawJO4BYkAqTHevAQMSy79ElV5WrEQ6ioLJpnUDWo/iOCRWkybczBdg5ouPpflUr9WnYLiJMPDvv9XKBUfJRdmDvHsA+4dg++vg4k9aHXgmzNCV0t2cNZdonTLPn0R5NPEx2P7QXNpMPWi1eDD62dmlRTEr8f7gfbq2WLKMRi6OM4AVek+D47h2q6sWtdmQlHMFdkXcxoC99MS1zU3MVfj8al6NV0l0dSIHe6UHSzR/SWIFcBF/XSpEEwR5JQVWB5Yoi8PhJl2EEVYeNCRMwWzqwXe7KXsgGXBEU5nVeMWlcg/EU7Kyh69QrlM1Ed4gbVXTpCXOd1WoQDbwaw9fhtufDv06xvo7mzHiGI/XsCMtMpGvhvTMfCIS+R6c41/BtT+Mu2YkShpdv3aFem4rwb9v4USAeWTwne586xjRaGnVlnzQEEt1YWDc7OicBZnUHodh95Unx57+QX3a0VWvVxJVjFbbqOeoYFNJ2on0QFZ7ncGxQKIGVmPYdhHsu9YRxejCnG7K33OAUapXe6szgdF85DVMc9aXjldhcLZgLdZqOaz4ixM01PBRQhqyElGdW34BvP7SML3WOKFm3AqijKXDFLDswexmCzmWW2Dba2CbBZdURotG1ryHUq7Obx9ZsefrqybbAsvjkyoyXOcNpw7wiQErDl8Arxv5wPc4IzubC4KBdgy3ntYl3ObHX17dGM3XRDDdlp49yCYCnUrctLJoCiR6G2Gl8lGw/TOw/W6bb6aSS98P7caJoFFaC/bfDts+AH1dY6ReZVf6iJGXYNrSMh6bwU68h72kytPXZAI+Hfa/22D0zTXVGgadTxbLZNgoj++TmVLV6vdg/4Ww/1DuYmlVKRld+/DBqDYqo/EQ1OuAiWCM8fgz7fY7HuIBLwTc/FdDz7Z4SEMKGnruQedPBg544iCnqU/MifuvguvxEjj3vTJETCrRjIG9YDaKOBmMQX8F/N7PMvqNSUesOZv5/Hr1jp88tfXHKLY0pyFcK5RsazDzdXEUL7seDAOvU62CjafBAz2qVzWi2ebQU8ScPwVu/JVoQuepoa1r0HWYAjv4bBrRMAIh5Tns+zmc01uh/xXsi+HzMWlc6PdNf0WueSjKcKM4J3znEvjf/6nkuZVikeHPd7yDHninM1f8HArTiKy4aD58zuAzskCvYNiTHiJ08RaX0LoGU1DME2U0qPDAjU9SzWI7rYJqhk5Ksxexh7tbYgUcPitohRMKcoxWDzICkRApDoDboa+H76OV8F14/T5892fwtzXYjrTeczhA2N+YGMqsJ1zaoeIwxsxnyr0smm8zKd+Hc7oQC5HYwO8zugWbk1Uqkp+Fgd/lVkHigl+USvR55RJxLMpDIWCFS3frOAEJRjAB0u4QQeGKSDpWgDpxOLA59ZfJ05sgHgKrJhwABgf7bitf3h0sTmzgE8VWIlk0H0E78qONWArNrZdxbH7w7w8290Cr0EzFJ1jKqSbkpg9XqC4u3a3MRuLcT0RHr3x7JS1hro3mNlRltkYVx/DpzVkgUndE8nn+ft6BqBxohyoMqxQD4hTaPQStjqojBS/DFNrBPBHkaLYt3ZVXtCKWwQPyD/BArDepNoNfz2JOM93N0t3d3rlmgbJ0VO193sxH0E418UE7pp6ico7G5mdhtX+AxgqoPLkyUrTsujz1pRVW5Plam0/cZ4UmyLTMvNVShIlg8SoqudYjYfNtIdVdhM1vBO0kDimJq30nVlSGtgRtIi4yRVnRlKoKHphT4eF7E7xuZqalozJLuqmctft6yktwNe2aiuZvtfdCTMK9+RfYxjUJqQTXcSqEoF5o95NBcA8KuQh9nKUWHkQUm3yGNi9d0JAeyFmrNdhdSMNOl22z1ZJcMIOwCFfD/mfCNT+cm/maXVhGtbODmR/afk4EaCZOJusM7LixKjGRZ0D/EPRbrRAKCXVyOa5gEeyvf2+JUxRfgpVzj8W9MCF8FvY9Ih/NV6t+ubOJU0LrolaPXEmnYTJSIJGSl0o8CfqLYPtvPNISwhSYfHQa3IOFp/GIOwCzFVYwI5HTsP0tGUM34iAnFeKoNjoYovmhta9hpVdlBKyC04eI8kp6qcQbV4/iZPBY6F+AB/ePhrSEFHhmU6d/UE+De7CHqkfDpMuEVhJ5LUwKz4Vreixb7TWdOdyHjbDKZ0zWPrTQ2toqY8OsKrFoxTdyLsQwbP9X6Jsag4YMaRg/YK0CD1yUkoYkE8xAbMJX4fVx/nXVlHGOH9EJoYQW2uLHCtD0lGNRVh40AKOcEIo4HFWE4fV7PGiYEuOP1YDvqvqDVuji2Yj+bMbSeLDtDujvh+tTzk2oyr+vlot24p2/MDx/oXXMRMCEUIgxp8EqSFQp7Qd40NBEtjNOdR4flO4B4wFU75Ul5GjDRA0mw3+CfcvYoO811OhViuSngWkntM4PGhpMQUFPBjmmYwwawqr3Yhjo1095QUPtHqRcc7DLrYKcVDex7UiSKlf7r4GB/kzoD/JWey1ZRtdRLr0Sbmih7bNVoKoSwTVAKWc9EfTyVOJkuYBAlSfAA/8VVApynIZaLtoKT3RlnICXCksG0x0y+f1vwLZG/15Bsx3T8GQ8HB6k0Lp8IhgrsrpyEzTMIw3lCNbsw77t0672fo5EJetZN7gHHvhJUNERIyqJ5T2w/aNwjqeZ864p2XT076VTNQ5ovdAO1obm7NZ1w5pg08li86DhsTDoL4VB8ItJJqRBE4FzDzrJKsiRqJiBb6nKYnk7ci/AMQ+x69BruPU2rC5pdykM/NAeMFZBSSoCzutOPo5cBdnbiDQUj4Ltn4OB8UfLXqTBMbOZJ422ZFZB3SvFJRZmPfCVBPZWOLbXwPGfzP17XXTl6MsDcCe0B2ybWLnS8e1bTkPZt5FBWBFTAIPkjSgtbmSmU0Nv5eCyiwYu8iedpgN/GxwPSmAf4w18TOPFDq0XSDdCC81zD0RUKWnxSGLu9TgNYYI4GgbSJTDQfzVl5Lb0wNcsx5bxtj0TgSEjdROAKn6amWIrPhyfP/CNYEl5wAT6oumzB8LNDi20PboH5aISQqEBREIoDerJj4eBfqUnuKlFUOasWd6SNCIjPWGMOympGm/Xk9AU/ObL+MDPqDAH31fi4WDmhxbaflkFNHAUEEaTVPaNn76WxQlQclt8Cr53r0fXrbuHulvoZMAnDpeKVCQoKpXn9ADEdfCdS2GgH+lMfU2jbQKeIX8fWmitsAowJz46HG0YGzSFLypnziaKU6G/AyaJHdMkmEoViVoIxYimWuhxXhSFXAdyJUgvQRGjVn2a8XugXwHfP7+25iQm4y7sip/GAyGVF1po7bIITHmyBhepdBpPIx4Pn/8Gtn8b+h9xIkD/HAN0VVrRU81itDtjPdVdsSDj99Cv3wkWhY4zyPvgb34CA/ylsF/6x6NTeRW5KsrWDYRUXmihLUYbLw9a0U9FWBL7fIbkHgzpMlokzxA1pPk22IJb1gzN3wz9JnrFjoNdU6KL+2BQp/D6Kfjb58PfeXC8NNYpS3RJ1q8tRrWRQojohxbakkwEaG4bwhLLZ4iR90KPt1In8lDoyGv4ZzBwL8NSZfgMLoN8N/S3w7Z/gUnkeRqaLIrQD+F/X9XApT6lHUhpywrm8MPADy20DokTqNp4AZNCwRCW9OSRhvsYd8CCnP6MBn2FAnqVUJEXWmgdPhmUitHkGpN7lxp6rJSBFRKvH1bzfh2xt72f9O57SUrNBvJq5RUKrRhaaKF1eauQyT6eFEgurajM+8nTdQVebY0MFym00EILLbTQQgsttNBCCy200EILLbTQQgsttNBCCy200EILLbTQQgsttNBCCy200EILLbTQQgsttNBCCy200EILLbTQQgsttNBCCy200EILLbTQQgttKdv/B7b6TbdKGeE+AAAAAElFTkSuQmCC;" vertex="1" parent="1">
          <mxGeometry x="315" y="310" width="110" height="110" as="geometry" />
        </mxCell>
        <mxCell id="A2xlnPnC4mBpnPeIcrtY-9" value="" style="edgeStyle=orthogonalEdgeStyle;html=1;endArrow=block;elbow=vertical;startArrow=block;startFill=1;endFill=1;strokeColor=#545B64;rounded=0;" edge="1" parent="1" source="A2xlnPnC4mBpnPeIcrtY-2" target="A2xlnPnC4mBpnPeIcrtY-8">
          <mxGeometry width="100" relative="1" as="geometry">
            <mxPoint x="370" y="570" as="sourcePoint" />
            <mxPoint x="479" y="310" as="targetPoint" />
            <Array as="points">
              <mxPoint x="479" y="260" />
              <mxPoint x="370" y="260" />
            </Array>
          </mxGeometry>
        </mxCell>
        <mxCell id="A2xlnPnC4mBpnPeIcrtY-10" value="Redis cache layer" style="text;html=1;strokeColor=none;fillColor=none;align=center;verticalAlign=middle;whiteSpace=wrap;rounded=0;" vertex="1" parent="1">
          <mxGeometry x="230" y="350" width="90" height="30" as="geometry" />
        </mxCell>
        <mxCell id="A2xlnPnC4mBpnPeIcrtY-13" value="" style="edgeStyle=orthogonalEdgeStyle;html=1;endArrow=block;elbow=vertical;startArrow=block;startFill=1;endFill=1;strokeColor=#545B64;rounded=0;entryX=0.5;entryY=0;entryDx=0;entryDy=0;" edge="1" parent="1" source="A2xlnPnC4mBpnPeIcrtY-2" target="A2xlnPnC4mBpnPeIcrtY-15">
          <mxGeometry width="100" relative="1" as="geometry">
            <mxPoint x="370" y="450" as="sourcePoint" />
            <mxPoint x="615" y="335" as="targetPoint" />
            <Array as="points">
              <mxPoint x="479" y="260" />
              <mxPoint x="610" y="260" />
            </Array>
          </mxGeometry>
        </mxCell>
        <mxCell id="A2xlnPnC4mBpnPeIcrtY-14" value="WebFlux layer" style="text;html=1;strokeColor=none;fillColor=none;align=center;verticalAlign=middle;whiteSpace=wrap;rounded=0;" vertex="1" parent="1">
          <mxGeometry x="660" y="345" width="71" height="30" as="geometry" />
        </mxCell>
        <mxCell id="A2xlnPnC4mBpnPeIcrtY-15" value="" style="shape=image;verticalLabelPosition=bottom;labelBackgroundColor=default;verticalAlign=top;aspect=fixed;imageAspect=0;image=data:image/png,iVBORw0KGgoAAAANSUhEUgAAAq8AAAKvCAMAAABzv9avAAAABGdBTUEAALGPC/xhBQAAACBjSFJNAAB6JgAAgIQAAPoAAACA6AAAdTAAAOpgAAA6mAAAF3CculE8AAAANlBMVEX///9tsz9tsz9tsz9tsz9tsz9tsz9tsz9tsz9tsz9tsz9tsz9tsz9tsz9tsz9tsz9tsz////9FCPcEAAAAEHRSTlMAMEAQUICwwODwcGDQIKCQbzSdIwAAAAFiS0dEAIgFHUgAAAAJcEhZcwAALiMAAC4jAXilP3YAAAAHdElNRQfhCgkTFQl2fXY1AABCqUlEQVR42u1d2YLjqg6MF7wv+f+vnSQ9MZsAYQPGjurp3jOdbgcXUmlBPB4EAoFAIBAIBAKBQCAQCAQCgUAgEAgEAoFAIBAIBAKBQCAQCAQCgUAgEAgEAoFAIBAIBAKBQCAQCAQCgUAgEAgEAoFAIBAIBAKBQCAQCAQCgUAgEAgEAoFAIBAIBAKBQCAQCAQCgUAgEAiEwChKCRWtCCE7itaMNW3bPWH0bdsyNpQlLRXhTJTji6b90wNT++LtTCtHSItiZEZzikC7DKQUCImourbPEOgaRgqBEBMl83P/CIGw1iQPCBFQsPYZB91SkzggBMQ8Nv0zKiZW0DITQqBg0zMFejKzhMNkXVFpgK5tV8ZGrULwqR6wd3YWx/lmJMoS4pG1bxdWY1NTZTkwN2+JsoQ9mO1k7duXOd23C2rW2Fnb1LT8BB9U42Sl6vEkVDkstj+xUvhFQHNpseSexnBMqmpLjmwiXUDAkGjozFyNkNsvjemHfiEjS7BjXgyJ1maIR56qXgx7pB3plRCMqNvTMqOmLG/HSBYQQIygkevWVF0p8zDBu4U6DAgqKtZlICENlCXGEhS2QrJ1OSMPOoMbp6XWQ4KVrSfmk0oo6CPGEoxsPTuVBNYriLGExwNgaxapeqhoQTr21wHkBJZczBgUAhJjfxllpxfusyKELgt6ysf+Kub2AmQo9Yekmtcvolq1ykCeRCgbTV9T4PVzGPtrsPWNeSEZ+9so2uuwFWRsP9BL/BloUiBztoI7jETBr6DuLxlya5HXSpmCH8Cshi/XSRDVSvqtp3Net8egGNfmUpGL9vRkYm8NNeV6ORGoSm8ysXeGYp768TPQYmAftALWv/+UfEL2+w+O+uMswuOoW45M7F1RNXsnBbVtw1hdxunZqt4TYNa23Tv1iEzsPVGHGNn2nuweiLfzy5IuR6YeU6LgtqjKYXkGRPdSDPvnur/nyAedITexmo5+3wRzHXzIMLe2vnPdD86Rdz4Mve5rW9V4VBVtLWo8kX0AUTBLu45kaS9pVsc1zdjW/0FPw8yWthiXtM8yEGcvZVeN81IiGzd9YNHbxJ/xKMTZq6D0t6vdX5azYf+x/E97HiRKVe8z8f8fp/0+zrrzcfqFRsZlbljHBalX+09NAFEOKMr37YUvyvRenC39uPrZLEPpvgKx+NQTGnSydiIzmyvmocHwdGHjzkzUJ7HfhnTv3edpdjLq8zQI3nY0SzZHsiLeXKD72arj+dP+nb8NVHaoO6LstVCNGKPXB85Ouue6w0zdO0fe/PUxdWaibC6ocZWrNk7sUeKv5+xsOa9DGJBalsKvszGvyMwVi/kUxeB8iiZqo1eBXAW6yeNUmHVAy2rRV0ftYarG8x1yJa5EP5jzJB2jo7XnYGaGd/K5j7UQ6TrFe0c4siagLBP/0vi2+a3R1BN5ksN0h8v/hGMhcnmJ5opH35baboi2daR+yeVvLxnMbEeFhLQwCIHtbkBpGkaso/q1uTgxrWYiR5t+KInY7x6tYYFPY7hSsrWzkvX1A/GlqznQ65u/LgJLYThS2COJ2GlbjWIF9xXNiEkCeHS7lKsRz+R1MSSj+fpD+XYOc8kt0hzEBSSsyRUQY89haye/fNNLC4XCpAMmQJxWRtUQRRdInqWQtlhLjM2CreqtGIsadoR9BFOq1XKvtkFDRpk6L0ZdvfzrwZs8iLHxMPZAOlFhiaTh1tBPYDKtzkvgTVfTT8EndxVmwr7Y3BBjk7FVf+OtFrdUk5yFDPsE0z6yfinbJ1Gy82QLNmfgKeh8bXjoc6Yhw1BN0RIDhvKEV1HeoGUDJ/Ade7bSN34ftVr9g9CGtMEJRImuQbUhXJ7YUdyEKwxhE/jV4nAy+j25F5goeh1UTC8TVY+EdAVj637nRTIzGLH1Qev6LsIC7qqlfsNA0BqSDcZApGvAjgE4I9AesYhF9HSok7DAtQgkY0Ngxo5ul+gabOnBFNrxGAlOhwa8wXBwx53aytLNM8eh0sW4plHoOi+gaQ3zu6F8QRssSBwRiRJNFbSU2zqEYsK2acSgK8TWkOknsKwbLPLBEFZjLGUKjrzPFa2wItAVYmvwRrxyicdYFGG1tPZEcddOqIc8LKPbw9O1bKLnSf9vC0AgB2KsSFgLC9UHIBO7C0oSq7ORpQ1MV6A6EfFmWaByF4axIy6/Vy1kYo9CUa72+9GWsHQFlEAXt78Z2B9BGIskrHq7F91G5wvlpgH7LS5h6QqxNX6iJ9JfxRJWXfCWcrEeUCZAdHbduIakK8CbNs35PCC/1R3/yyN2cZQ17+lQIhpKoOWou4wB6apXfr3ZWpUcs+9f78PvFfzylB2FXXsweIn/gHQF+GKrkZaf0YX/bx5yDKzYriUarDSGGDuHW87W8f1X0gT+pGm8dnkRjq56mK6ztXpf13Xg8qHN3X7YC1yRVGGewg+CwnGdt5BNLGkCN+S8gFPACd30BzuyysnCk/+jNKNchjCpIz41xh49fC0Q1nXiQjGxlCdwQL4ky9kxVHWB6Kr1fvxn6/wyp22aywfew2Drv/2pHfw52ImyYApd4BtYSBPYIIU77gMCQlnrEF21wu9zKcoxFVFVpbCwstB07LGbboUv4vw90gm4mKOcLg+5zoIINHzshgWD5uf7/nky9K1y5CZxv40tBbw9Fbvci4pLp6xB6Fp2Z3MTa3kPyNiKb8DO/VvkhCJ1xcKL1HuGpiM+jDBjbi7C1g/V6hCrOyHo3Xiajt9D2XuqJiGTtX8sBjvd8fthfza29FsuKZJYHgSzscStT+VlMAzv8CpSQDR21fEVxqSppDwBlQ4UDN6CafIRZDBbryQFBFEw7rSxgtzHJBvkic9EWBGLp3QVP7ErgD3pmsxQlF12cVZYM8zHJRFLeS0DXXHNwqOfrZANx3Blrm7rtNa+Nk9IwODspZiWprwWSFecUio8xcOGGX1j5xXQMj8SCZofF0KNRFg7XXHL6L3ufyjX6T5c/bKo8TkCKexzXGtA3RNhFe6JKgmZR+X+HJ0aqMbmRoZVkQZ4MysYTNxnCiKszKMdAzC5rOpxtgV1u+yl0S3IUgJ3Zsi0yjwRYUFTiaZr7WcjivWCWdZ4yoDTr/W3KD9PWEG7YruD596D4L9C1v9AUFbQ/sg6KxEWpCt2JfjquWKtHyMrkrJCzIW0EGKI8dOE3UNXLl7tOcSfJCuKsryWiK4M7nlRRNc3StRHwKtQfgi9Nfzi5rLZ8aq6Xy3NDjvoKqgv4xsx3+b2U5Q1X64snCJCH9AKPELngkCPHoFNgylVWy/E1a8lNF2uXOxY+V8nbL2Hrtwkw4WC+XdFKwzDTbWudXQQ9gf7YXcdxOYfAhuMDLd2P7ufIPFk0gXzLj+lo/1hwgpJ1Cc+4OSvZARMK1xv7dbyNxRCV46Ghl5ggL0gYdH9bWIe9sfOdO376sy8vw2mtXsFHcXPSAT27pKAjax2WxLPs+DjffGt1fmSKwKaPXQ1LrHh6sHuEyEPv8LW518zZmXolVCHg/PNj05qhRtPcjGsok3YsVjS0sPu/n8GsrrmmZe9+KtpwzfSqZcvTDtsZeF1LPwuEDJZHsJ9BTkO51q/FZ7f0QLK2sCXK0uxFw8hejz1igCnPK8G4Tu3+E+VwEJVYBmLpx1/SQuImuCDGnQtwiWiww5FsNPWXBmCX/dIPPNPbcppho62CLe6/pgWkDXBZwHgm0Q399/sUASiDfiNJAFfpd7jzCVXA/9LiAUkWydBov2eFlA0wccrQav0vRih2qMIjp5MvhqEwSEeX7dUJARwocrLtIq/cLzt8Rc3GoF+oJH9f91NvUcRBJj8cCGU+9zJJNlkiK1K9PvbXQSdZAogI/s3PI77Oo9T8YKgazJmWhDsPNnKRDUA1QaU7OL86x1ayoBjKEP9Zix/HT6mUgiY7z6Ae8fJ1ofYT9RClwFqJfLyh7XAF2pfAJD4ezG2Nv68Dd6nbK8KHlz6KHzO8n7oXELg8ZtpLB3a5BFAFvTCWCYf5vHo99YS1v/okJN/rZ6KoQbY/1TSGGjqCfJ2eB6H6K4M/i19RuBW5kVedNpXdLhgs55AX5Zl4K2PFp0R5zwuD+5FWp+PGe0ldDFVQdJVACRKR1Ne2icdLqTC+rsqgnLfVywNq8vAlm2iq4Sm8mCsV3Zq3fex60BI23m5kAlmK0h5RgxVAM9treF24XLfe7mnIlitXsqIAc/WiiItYK3guB8quTw7nxdT7KrmXlANeB2vrHosWynSMsBQR4QY63UTzK7+rsuAqwGvFPOCZStFWkaYWKhfmetnKdsbKwK2aw9XmiA1Xo9SE12NMOZItchr8jEm830VwcxXxONTtbqc5qvVR2KlBWYJpjF29aDevmruFbCn7KfdmW25QXUlTtoJa146tYLgcxc4f0NlFjQLhdFfDWhSoLUsCSUGXLD0VusrjbYpXBHc6jTXjrY1VQrYrk6lxACGsJbtPi97RQHPEdyps5D5ug31FuLethpEVxxsfl5NbqFvVuatc/cJuXiwhWzmGRRJZbXKv3tOKyRhtdJgg+smKHzf7QXguQe1OMua3qO0Kx5WSqnbvsd5eM7zu7Rul34aR+8BsHVz0VGCUITVM4Koy+t5W0ibFev2Y5OXmBiyAMRo6bPIBBuaCuEG/UxsjXKD18GI4Z3ZuFqNAtHVF5bmDahxE2NiN553GbLPH5u/cHdFFGCkPxNd0xAWmoeDMLE85LrDwBeG4N1/wOe0zKU+qhKEJewM/rzbxG7v4QY5LV4qcFW2ZriH2LwGRNd96Aq/Fe3rYO/4QubVtfdM/VWM6BoaxtrsbHgHTRXoJd/GvCpHAya3iyG6RiAsJ57cQNSVP2JgtwWwNw4oNSrGF2AguiYkLF/3sVReifU1jzcxsML3R7H6z7gWAs2JrkkJKyx8JZtYe9jV3cPAOnn3IXWr7mQXzauWGBeHsNLKyybWGnbdw8CizKtcUf0Erw6aU0NWPMJKS6+Y2PXuBnZEmFdZC/w1XnZWmhNdIxJWMTFy1mZClG6ubGA7p3mV7xj473LsNCe6RiWs4tuUF1QeeNc3MK9yXuA7AdL+1YmuUQmraTi5GZkd8aWZY3JtOXna1YD65pQZiEzYzcB+2+nkrg5j7eDyBnbr9zFJGknN8yqh9YsTXWMTlhvYr/OXwy7TiILNzFy1D7ax+xA5KbVUKMdCdI1PWKYTTwq7DIktnefXwmw3r5J0Fc+8txbzSnRNQFiIePIFJrAB2nh+zZNcq/XxJekqdgxxFUF0TULYGUc8ae0XyARV2z/PF6PqB73t6aWsqyThW/MmJrrGgN4PW4GvTrIwYBPtYre/ecMqvyXmDUgVQde+pCLsAhlYRcEVFgV4xZTWZid1dS5l/JUUtHmP0uGXZITlBw2kf5FqB1DUZXnnucOy16R8nlLiM2sgomtEwmI9uyTjRrNPvd4A4y3a0hpYpQEXqnA3xpg1sSoi1NXejhCqQa8kYvVAujNZm+zRgx5F/cbM+LHZQnJCdMIak4qSiNXSBMz4YjNHbVoI0a3rEsgUpBFdY2M1vD9NKkjBh6p8Lxtxbcq8NAsgIMSc4I9VRNfoGA2eXS9WLRbCNuaP5YzKsM9sX/Uh1Ao685YmJCHs5umAao+YWFQOh9eWj2WM7RsxI12hEskCrx3RNQVkd1fZyj1iDKJ4ye+/9Jfi6wR9WSl9B+0/Q62AylpnEHaFTY4eTxg+dqWuwo14rcmrg99mE7cruAKEyJDO3NtDJzFNIFV8tkzYlVKwA0BLN13h7B3VCdJBCika68syvs7tJV7oHNekP7P4/QxHM2toa1KdICXEld+CX7j/WmpfHu226ipyoPGhK89Rl7BQIsTH4nJ3hrhitL3868kBka6m8XiQYKLEa2pAltI0dwAmLOBcryYHRLoax48CHQeUeE0PXnPckujG3NQKEfZygkDzCCi6QkK9Ifokh6DWFifzRoCw2+u/SslgVL4Bjq5AZYQyWWeAZ7W23FT78CHs5DLLmaGRDSWOrkDlmTJZ52DShd3sQ9hNEFyka1velUi66tFWQcw5CYsmRdkDRdhSfnHXuGR+c+yDvEetdOVL8422KDVwHrZ3oBkRO2H/a98O8al8sEpOZMHRVYu2KDVwJr6abFH/A4qwMgNyh7S7sHTVys7U5HImvkMJcO2BKmFL1U7njE2Irh505VuyVuQB4RRMyqhI+1RXgbCf7EKvGJ+cMQrMG7F0VdsmS2LMyfhvULeWufGBJOz7RTfy28wam0n1oWstGmXzPVCEdBhkb9k80IQVvOMFTsV8qdaKCSkHXTnJ/wJMirUyQCm/CkfsxETTvLE8/2OyG0kHobXKNdO+Evbmg2KtPPAXc42yvUWYnLeT7DajlTu4K+Ad6Mbr9DRvMii+hXAiJsCU4Ag7CqLwKvJ1wtOV12LfW5paXnPBqr0b3Ft8SYLNauXO107/2s5n3vbw231UHRElF7yTAkq50vYagbAjdwE7w18aKQfGB/UQ5oSPZ/y6O3d1FSBs7gK23rPDxIYuKhSEQZgbS995HSV3Y4Mu5XLPwGotq4imXTHHR01ZYdAEqrgsWm7ck7BF3nxtd/gDQQ6QeA2Dfn4E+k2jjyAAcjuZH4oB/ImPHCDxGgaDbjn2Mr/wEQTqdcC598CW2pd1Y8sONCReA2ECiLP7d1X4DMEbi/4o+UIhHCr7xuUAiddAeJuJYIu5boIAxz0lSZA1X+XNhdMuPCFNbQNh8JeSCVZ2qbe3iuq/Vg6GZF0xkK/YRH2EywFqGwiDVrEDR9FrZ5XsKHYYrZMgPihSufA7RYhpYeg1g9rsyAbwEwRykiDngEvcWT1yHA1Z1cCoQTMXBjveac4VLrG6hdUt1N0SFmvMlcU6d3G6X8Z8FXIo2KNmdPIlLASXHUFgYQ9kiQdEMj4k23p/MZo5FBbibdsRstloYymYoXwTBFxnd+hZilSADYrCEE2EAnrEEIMsfl4QnAC6y2EmioXEGDs0wEf73Nfm2gPLnxA/J4EqsBHZ1Ib/C/gRQ9UO65UUAvXwH6Kka0AsRp8cDvjoif/1LsdJ24Ja8khhEMnCQct0xsi94F3naLT7WWCyLJwRdPtLOAC9mxH+Cn7EkLhb8ssRMItfMoOyWTHpGkPA4rVeJXwoO0Ugxfn4gJCyWTHpGsUc4Idmi5/KTRG0u74SZbOi0jWK3Fr3cSKvHIGclkKrFZrkEpWukksO9qf28TWrqoHSoosWK5TNikrXOHoL/XbldFpOVQOFd+jPUW9WXLpGadYc9/G1z6fvpdzpMei8VhA0FVKnhcGykxb5NMJ2Ox+MirGx+RPDInQ7+ZrNdVxq2Q+dUib5GgB2XRjjL2Idu5r9ySQJqw1vRytrkq/H4VCTbfo/ad4seYRczd7HIvl6GM6BJDFaXpa9fM3iqIHeVIHVKSRfj2JyEiBGxQAtYDXjnsP9RlufyxZ1lXu/DsHT0LkFYZQK4uz5grnuO7/vhZeoSs+HopOGB4Fq7YsRI2DN5FcpNpspO73KxQdgto/v/0KGgdTrcghd4cWZoEBapK94brlpOnvaC9fz8/ZQvp8k7LFx1YnL3HnylUu/k6/s5o0D68OPr3SF4RH06Db/OKqLefF1EmT0uTmtrcGyr7aVwZ2GoVrBAUz47rwqygPgmgFqbsFEopwHvm0GvpNR5VgKtqJbt6hhQuP1kkVHfKaB3dp/OkmtIECjXlMY1zciZQ1LP75yHX2igeXmdfTkKzVqpzGuj2hx7eTJV55IOs/ALtLDe/C1omBrJ1rvcyWxjiCPHnydRRN1moGdZefgwVc6FrsP+LQA9JYCPwuCdhI/Tjewm3ltJcfDTlvCu2PZZZli+TLmydezDaxiXj34SrmsPWh3HjGN1qYx+/H1bAOrmNeNhc6noVzWDnS7K5nRxFfjyddzDWylmNdtHzv5Sn1Z3ugPmKR4bZulH1/PNbBMMa9ovlIuy5+tRwxSPHfWevKVG9gTzGuv7jIsX6kvyxPLQfcZ78lqP77yV5++TWvUNhmSr3SqwJOthw+RxDMQnSdfR+wHw0PfKji+UqnAB8eUQPx4YfTjK2dN6rPdtb5TcHyltlcP88WCBNIRl9xxRFvj6+ZcUw/PaPUdhuIrmVc0plAiL2aAy/z4yl9/2qOyW61ASKWh+Eq3byKxhDuaFzPfbU+lanzlyeAlKV8XYH9h+EqVWBQ6FtT8xHxU5sfXGUf0wADNOoavZF7TmtY/xNRgVt7pfOUMSJnSGiGrjuArmVcn2jG84YlaUGR+fN3EScqj3RPwIBi+knm1YxqihCFR2zdtR7kgmmwprXQT4rfBV93Di69kXm1ohlgxc9wc4uLH1xHxuVj7dYSMJ3ObVyrJKuiWOmL8ESVBwEXG7MXXLfZJF3Ft+r2CdjFzm1cqGgjomyGya4wyCLJt3YYS4mv6iKuGH5S5Hp83zBJfN7s6pJBxUR69dBtYkK/b7klV42rAx3Ce3+Lmdaa467VMCytTecQo+ounHUxXclUwUTonz4NiewqlycbF14Wb5V/u2O7bhg1l2nJklPUuNwNrUqIlTMytiWBI8uW3AI958VUwrxceBN+1L6wMRtMa8f7IUJYnzT+NktCq+TZgDr4amJAmBdsYzPlg56tgXh/XY+nyZltul/aiESVeYA+XgTVNANwYlEK7V6bdUVp3jXjc60IHDvuWjfldhu6LKDMzlofLwJr4unnoFLcgb39sRD6dssXby5zgmtY6nzv5DiFOAvbhMrCjgRFbCjbFMYPNmFc+fJWOe10gndWt9WW9v825hXQ9D7ANGrBRGi2XdIJg++oN1vpr5jX7eRnTkNft58cRZZkergNZxgh80yfxMwSjeUd9/wVyotLlMVmnswL3nuaBKAnY8uE48WrOGH29bfwMgVEOGKoZCssn8WkzxHL94ApCFAtRay/WwBWdr4vNtkXxLO3Dh6/yNszWtA430qywlQkJpjlOwy5hZvsVWxDYlEdndA2lJHMyTWe1udwfHQFRItxPNsp24tXMV3MUFBirxZCbH08OI7Pka3tPIRCTrx+G2k689kZCcIMf+Yt3Frli5KtyyCzDdNa92RqpYDDJW0Hvy/v+C+C4Bsu/BcQs+QKD7dVsvHKaNju+3p2tsVyaTAk9Av/+Q+lJpHAYLY9gTF9UyjfKLJ3VnX1HZAJE6dj+/zqhs/3yJoGy2TZHHQ5f2QEORGSGR1A9Rl58ZXfNCYCmLihKeS90Jr5CD2QLhMKhN7l82/Op/bk5pV/bGxYHkvG1VuyP4qgGG19rw4fiuJXBg6/a5M182Nqn6RjOAFFsBFOopwhBZnX5itONgsGmSEzHH1plO+Zzqvs2xtW97dqIfDUdcFlgGitPFLNHyypfDfHgrMqbbNKv514VHRCVO8iOwtdGNWML+DdhC8oSCFirfOX7bIB22fZf6zzY2t+nB2t0a8AofP0aTsNIgclqF0rF7UbAbJWvcMFA/y55pF/bG6UFOreJirLonWaTpI3jYMv3n+NlYEerfOWP3UCfWaIunS9SnMRIZl4ROcw4i/797VscLj6JIZzRrFu8MQSrXb6CBYNJ43gO3dq3KhG0iM0Xl69cbgiWrHRYt1X7LcEXxrEjgPM6wM47v1zQ36r+WmJOlcTha6G9+cXKBgm1w/4ex9MqoIUdxbUhoGxO5+uNIq3PemJuX4uTlOFMAyIu4+mt/3BFQ4ex2UpTRFehvgfRNbB5XVA/FZevwMjKxqVPO90mB8Vm4J3zvUabnziZrtPNzhK2qIRQHL4y3Vjqus+orhvtI2HhCreAhBakw0+2rjdrbxlxl7HG5it/07P6no1lGeYQuMd3ssPAbzumMe+6k8tbNxMDb6eKcqfR+arNbJl10WB6pkjvpHdtGK3Dgemq5ly+3o6uAzK8jtO0IVgubWaLm40zwI6A2KIps16qFQu/NUJUefD1dnR9sQTZLxKbrzwTVCu26ogBPAKE+VZ+ZEsoLLJFOA23O0mwol92dL6qL3vRpaCKuBWuASGP5T22QBb5xHLsbRqyRI4g25vi+CvxLyjO9EvGxrrbXJQ+tpedv72TmAGOoTuPr2mvLE2BFn+AP86SgvZslP4gO2YBDy2Oa8PIP7Op2RWifXJMtzuoNT7x3Xjx+bqFT83X9Gu+VUHcBEGH8KpSDQ6emnhWOfZ2sdYnJEd358fnq5yCrcX/Y4A75XUEsrmHISYIDIO4z+Lr/U5tNz6SPM6ilqq5/2B4IIsB4gdCA7UZCuGHDDO9TuJr7EFN6fGxDWiNk4CvkoFCxf4TwmXvRYkw8NKOMdzLcQ5f71aG/Z+gx4eQCfgqvfFvrG3tzY2Z0HK1M8pPsPDd1qZYOBfuN3uwcdqO5HwVhlfimgVZRL662hn/wJNepkHcpAaCoPb8WnHWVXm3fGw2rhn7y6k+wgKtqL3ArbBpEDepgRD4K9d7xNVxFlYRnnxsNq73qkb91D5g0q9i2s1k2s7g6/3GuLS+bjQJX7kgaDdLawMuJjrGV4Zbl8ngMs7ga5p7H1NicPvaM/jKBcH3f9gDwpgJ2A7HVy38rwyPmBC3G+9aIJTZKXxdHALX9FQR3hDyCdRya2NyAekQ74D7Sag6/5echq/a7J4iCKmO8NWxSqNjg53A19uNzGz8t2EVZ2m17Ko6B9HxWEinvWdPI/k6O8iSnq+3a8tiO3xopGVv4a2Edm1tNL6iQzl5h02JFu6HzGu5Zxum4uto1wsn8BXnrL4YTufr3czr3O/Zhqn4qugOV1kxXkEWzVdmN27J+Xqz5EA17bJIqfiqmCtXnYadz1dpZbpUC+exotfGfz74VuzqVKs7WNVgOr7izy6ID7yeztebtb2uO78WS8XX2f76k/GVYbeMVDHQnfGYlq4xOilOxIh+C2fxlQ9Qxeyq+HxtfZamT7ZwJtxpLvGREZTp+CoWjGbsY4U3K3i+Ch5/OZ2vt0pmFf3uXdgk46vw+t2Hy+KdkPWw3FZ/kJavt+p0KeBrLVBok/FVSMC7U4llDnzla1Odzdc7NRJWmzLccVgiIV8bvHzNg6/MZt3S8vVGcoDTdU9w0qfj6+ix+lnwtbQFO0n5eiM5wOna79mEz3R8nfHylfh6VznA6brrS1UJ+Vo9d1DlTL6u2eiB+4x0WZ5H1EC0Kg30MFvSrfd4rjP5OtkETEq+xrxK9yy67lID0e5AbW3mCmEucuCr4HtOzmfdpjVrsS6px9tLwdfOQ7nkwFdhLzfn8vUuvQOLdUUxWNPxdfZ5WJYBX4W1Obkee49sViXkTrudgxTadHwdrK/fwIbwyi1Uv0vC2+Tv0etSTdb1xGFKx1ex8usUsNRP+DzsOzOm6+5jI89kfJUyZ04BS/3aId5urnTd/VaLdHytvSxGBnyVBWpxIl9vMJOw6ER9s3sKWJmOr4uXIsuAr7K0P/O84fXDrUIq++8/icbS8bX3egUJzhu6NHQ+57kvT9ex9xKDZizJ+Kq8XldGMd55buy8jMJh5NLx9fLNLvLRoSPR45SMr0qi19VYHo+vDyRf1fNZw2l8vfrJWNkoHrqNKdoaa3zs/GxGF5+vnvPe2tP4eu2jW5V8guXQbUzR0gMazwpPTYbVDTuA3Aqa6zltnual01mzso6Hpn6MydZYq/uWOL5GGGpyuXnFV25+LZXzAMfsz5qMr1+j1uNeQpGAr3bdv7n78+fBX3gQkXqH+cFGsykVX/kd3RPqyUuDEw4BXGqXl20N128RX52o1PTT0cJyMs21GfIad/V2zPs2cK00/NZ7w/WGxFcXVOl6+KLmiCGuUkLc5ADytraY9xntvi9O2WI98dVuc9QF6o46S5ZqjbkcQCpT3B1ZB3fpVe7jvGY5VouNjt8r3qbi6yqYXYN3hZ8sRifd5e47viJbNS0QgK4xFZjMhV6QjN8vYs2Cx7zvGLVjJAHdg4qX+GpZvj6CqolZoSnAl//m6IJx9SgjvBeYzSAFZQv4rZLx9XL6tQLaUgIUfmKeQJL+kPS+Mf39c9RXhen9kgSJtN82rMRXGEUXha5RDYS03SR/igl3Yl7HiTvBJRdtt3l6qbb7lfkKrUsIulbPRHwdJfOE6eeLN00T+9u/P1LLprQmvrqM6xSJrlEPePagHZ8lY2WRj7iiwl4gOraVH9myBQ1E+9i40nEYcBOHaVpaIi6xKA03MTrJ9LVUZGOmswQLb15HtaawKbIK4HRsXKc/CzSuoXrs+kR8ZcpzI2oBfdw35f71qsTdbOlAfPU0rqHoGnXeg8hF1Ta55eMc2RO6EwSNYuBVH5GUrxcZP1B2MekaNx3DgNe6qP+hcm6lSGMkV0hlg4xmKoHFR0rF10uch6kM8jJYw32XiK+LaizdCYJ4w7P+sKlTY7pMW+3xqavuVHy9wjiisY9M17jjnzhfN3Z2ZjKoaCIblsKlN4AtBVxpkoqvMZqAw6I0pPL7cKm4JeoK8+fc1CqvDTkPpPS6LQuLp+MJAMmy6ruMCrL/d7eJS31APdcnWuFO971qMKNiC26iHVxyBVxAiywQcSXja94JAmaiUheQrpFvPy00SyVQw3UgJXa4JRhL0ysAnrDV9mKTiq85JwhGYxw0hZQxkW3D9ncWQKy6GvxdbDoO145YAKLoEVeygmy+AVdp5lEbkq6xD89//04FLblr4trksL8Bv/5g382SI+5VUZtuwnamJwwKi9ULG3tE7oWbNBO0QmwxxBHQZwKjs3vaDqLzqsrJdBO2s5xAMC/pnjjyWblWffGyhbDzlZ/8j7fWjd3Tgg+oXXeXbiJRhgLWytY+8KsbE63vCC94Z92ETPW7ETBYBayhorF5v1EhcHxciq1BEwMfTJGXl6lvuAZfPJynaVVREQGF1W8ZBHatuo90fM2rpdDO1rCRVhJHxhRWKKMpvl93sRq3qGP5epunNQWEnWKVk00gyOrCuNKRWwr/3qInukuZl6oVsyZg6yQ2ZbF5WtOBmUGhT7KCwYGJ/6ExOr50H36iZPw4oZQtpbra1gNUWxge9RWNtl1h2k/bQbT/4WM6vmZyw2HFXF1SU4QazxJ9dSvptWvezJqA7WxkDobZ5r1Wk1hYZMGT8IrDHGbCF4tTAC0RjEwRf3VBa4Tj6xxPBkn4hpzQ1DdjPDjLHiPllZxn97xUoztI76N4gfhebJJdbmt87UDdZkj0glbLM5jzF9vaDdK+S4BzIy6EaY2jBZIs8h9BOzPzLJz8MiJ2zbyWmCejM4rGbfG61Hw9sSY7D6je/jVOwJEgSFgl8wp4XDNftxgtekmnNytDy3aSp8On5OtJBrYacYTpI/nDFEVvJu2L0fzW9X8aLZ8Ki8ZsuCx8lXdhugTsM2J3pY2s2J7JJlY2p0uwsrXmOQ02nvmwKDBGsyCwPYOkchImtNIfO5wH9Nfro+XKk4S00qtkPnw1zbKOYTuMf8qabhtE+izPlEhZlK1XD8MWzbg+5iQeTHznYGVmMfHVYvSCw2jKrXzlWboybUIrXZGrGLz8Rp+gjy7uuj60zLrByrdoDkWAcW/Y+8mZYGDTdcD+2bH4i1Ky1tOkLRF3UZr1bcVWu9mHrwnlgOWPldaHEA1s0oRWbEUw16u/Hu9ipsmrNPHsIpjX5eHD15RywGzMHechV2FfJuZrH8ntVCVr9gTiPUvzguKCuczrFrS0J8oBdS4tmq/8y5VpE1rPwGdO/1N1WPa2QzdxX1MqtVW7zKvJ484p5QA4egbDV/7t2rQJrQ9FQgqAnVY1hRR4pMoNvFC4zKspohmSygFgtBeOr4KBTXaHwdNhATxRDmt7jA599IJOuvt3XObVxNcuqRwQHM4C8nVx8rxNm9AKQdhyZO3xmlHPoufWki1t5zSvBr6WMZyeFdpIAWmljMEE/4In8HUvYV9CNQRT/x4hvkFJl3ppnebVwFdoFkxcrKAAWVx85U/aPU+Ab8azKNnSBhSDCdiaTry+vo7TvPKWcckAbM4mFV31kQIfOOcnpjzJDWFCEmZ+y9TQWyoFWx/VdMKyWhwXxNfhoMPbA32IG4qviRsHNLhKoC+LGp6o6diacJSeiNmPr+pp6RQAB3og+HqygTU1R1evaCqo61e2yZooED7FHNjMJMDXTdMmPVoHnTFD8PVsA6uY2KqsXwY1sg/thlSHysdTVnRG8LUEXEDSo8tbxLX68XXun2djefv9tz1NEvS16V7LeNZy+vBVOXqaCtCfxfD1wZ4/hH5JeHrsHLrac/46XxfA0KXAZtYHP75W5xvYVJjGlCbkJLraaafx1TysIDKAczsovqYxsO3KyvIV7E/Ps9Cvac+NnURXh1fX+Lq9/eSjTjf1N/rxNb6BbQW7hj2mGhhN6sGIJ9HVdaWJxtde+y/JV6jz42vspW3VlShTM7Ydk0+ZG57nwBU0qey0DSuIjW2r1H58jXrUuIda1IaEmnkaThjQcVqW0JX8+P5cZXTK6SAeyPLia8R+YsNonyKRjm3GM6bJVKdIHpSV/P5gBuZVPvHqw9d4HZrGYwQJ6ur9Up8zbLY4pXlIcvNYvm5PespFKKtiYBssX2P1vFlOvUQm7MSKx0kYz0sQOieRVDJfN/N6zhjpWdlnzv7XDXH0lvXa1SLaa+3OMqwfRpzS4fIfzj2q9L9u5vWki1IXeaPh+Rqn7cXuZKKE0N0ynnonXXmeFsD0A8p8Pdm8irSrRb4iBlbFKBq4/mxo1Xw2V1/GNf0xONGduVkn8/Vs8yqeF/Dka4yiQYldvFtw9YX6TOOKYp3E19PNq2hgRz++RigauNspA4Vc01rncOvMfFoWSzBRSL52koli5y0aN7CVeZpHEu+MyEAfV7B9y86+D+HroE6VAm9gKs61wAh2vnkV21kZ300ovgbPabn987Eo7yUBikcmqNjpXW6olyx43CzMq7xrXPfdG0xzKjlwoBDcsiwkQD5sRbYDCnxdcjCv4rZZPPkaOOTCHLbck6vsmiETCfD1EjmwFWkkv3xthMvATr7Bj2emCj++Bk6IMq9nRdrsNYMsgIzy9ANwf7sYZyTX7eVs4Up39gp2XNF8/xfS4gctkQbmaz6RleiSxvP6z2Ug23u3jpLa95PxwDNT20Mh33TQkCsgX7tlyCayElCfWXqVgb3C5MvXtfP9ZERwU+/J16DTHQLxtc+hEACRdcnp3Bt2ib7ugLuFDJxWuddbBFWwIfjaL6d7KwjzkI9l/TNM2CfXPrnksJ7LHu68EfIGacz5NXuNQjtzNZcKTlAJ87h0Z9NzP+s0g5CF79IyU+iMcEAfh9nzljffs/9LWZSMNa1tNlHXvsBeiM3gcmjy4+ob2JTUvNeQRQbbYes+COnnjtS3uvcJwbneN+d1atvlj73BMuFFzTKlKnKp/2+4vToiNpS1RQeBIQXssPuvdeOjGJowtr77s73jPvbOn3leGTPVj3YqX7PJEJY7v1CRdBVhHvRjuUZjyFs6vI0vG/5LYJnE1d9/fP37+vrBzGm6AT1JiO10u/GhhFx7DfMhuFQV2MLYLxnGM5mj3sfXPIKt/4ZC9qZoVxiyuugysBAveyKrP9BvV/YYQz50VY1Xue9jB5HB3K5fAH7OsMTXDCpbxmdDe4ywBw9t26S8ABOuAfwgTMnpZlbilgYR4/NsQRs4LAe6i98Z4xkb+Cj/uYsSiSBmi/Blt7DHOoyEJbqGW2P0uxVd2pQbXSVFgNcqgWdp9fDmL4muwdDsercZNrwJisDjJrDQywlcAFNRqBUQ+DBfWPbs1ICiCPAfCt561Kl52JFyViGBz6LyZGWGakBWBPj9FGFMUCeMYi9WYmvYxd3jb3Nsf39IVQN0EBlnlFbfrp8iJ+nW0MBns3jqJ6tKgQiusPGndsn+XQpoQ8QzP5lVCmBF0Pp/L0L+QEfSQnIgo9ENKnaEhFR4uhKwmfV9yaITBQG+KEsa80JAHi0Qx5lnLAekhlZs/1geEyAIKFT+73TNmK8P8btNuC+32eTMToESuIn8+kBkcWvYYZLPgdSmhRM726UMDYVeeaLf+IfLTMkhSX5zcgTIlMN9vc2uVrmM2yFIqDf3jpJ4sxyR5ExXtQG79vrMSG1UOWLdQmJUXVWxOpnWYv9DOUHYYypxXBCcdm0vwYyp2iIMlL9UwpAsRrqYoXxZ1OBFLggoWZAdXibHSw6oQUi2xdg/tNru9BEED5KwuWF8eMkBzUNm2uti2l4YfyAIAjoJkBkWIeGIMJV6tTJvugIHBhD5YkEQkITNCm/36CEHdGuTc3XrjRn0KFgn8t7BJGHzwTtervByALiTIsuTBSK6HYTdBMF7SUjC5oNRNSb21wi8uSwn6or4msdeeHin5m5El0MSNhes2rvB0nULuzNuJlR8ezlJbgX3IQZrYMIZmDTfh7JUb7s8YT+Uj4Blgp10EXYTPn/Hg6iRIAf8nRHZegdGPF2HSrLQ1xCwrejYXXWD7cv+EfsysyXvjL9Glc1LVmi6LtxDZi9fhQeXclOOukHNv6tkbwmnYZDdpaOVUHCJjfD/spevAklrH8J+Cfr/9ERxYyJcA4vCwxH30v9e9NfH5i9fhR351i4MS1h1XahscC6+b6uT7QiOrhIFssdX8XSKrLEStlD9DpUNzsT3MJOi09x0/QRpW4yWda+2ZipnH8JO0qceFHOdim8+p1H/g4uuhfipnI/Gcmw9D8PDg7DbnvxW8CqapHEavmJ1y0t1PnQV+5euAKXgPKEIqy8N1bnOwqIZkcGDrlxEZH3UkENst3rIdToLYTc7vIkeqnOdA95Ttbm42YOufv3dGWBU9heOsIC0H+7LiYzBX9Gm7BoMXTdz6nXcKwNo+gVH2E42y4r2JSSCUDvflr92OkWBrpvhyb6X8AutO0ckbGcKNRnwPam3MDlKS0iBoataW78A9B4JkbCm5pcZWB5qhk2NEXiNzIeuj97F8uwAFJ0xhG0A90NJgrRYIYEGx01VA9K1hn5V5gCaeiTCwomOWqc5dRKkxeJ6HbDr62vA6F5GDsBNk5JrhwkLbmjqJEiHyeXuBB9qcJjV9eSAIAgmk/8AJREDXQldR5SMrpUjnIB1mqTvRvAd5o4WspSSPocaKLaAVL7+gLJaaSBP7F1tpqU00RXXcZAdDLtMZF4LJGK3f5f1Ak2GTUJXiWG8Zb6yvF7tY6BnzR+m1J1I2EkPOwv4Y5TVSoEaDkEARyier1PqP56jYrOBSaybd+YHE/wxImx8KCHwFvtqL0mKQ9RyJaLjIEsYkyGjZY2Ef1Xm2MyUhk1LV9OLkBMDz0ahK6LjIFP0po0mXZatBZGmbU11g7hQvX5rMinSi9C0wmK0RLnDHF5K31iNuphpKYiwKem62cnO5h61V8sTPFejqy19J6nRSTakldEuU90gHV25nWSG/w7bUDiBfg1sHkUvj0iKva/hFdG+MhE2FrQez83YyIlwydD0wGHCq0ZbEr2gEaDSPl0RS0WETUhXg9GQJNkE1ANq2yvPHr1ts0nck0RsY3BFDzpvkIqufIjvbFp9sO3eGKRdAsbQ6QMpTSBmYkuzgaXKbBK6gm+uktYefKVbted60Za8S8EjMIVUAxiAXcoeRNjoAKwCj3kLw9uC7edieXFXgOP5pahLyDwbcylE2Ah0LSyOkcvQUfKGpcM+XTDacnl2eWHkVehs25gIG5uu3LyWoGWZDHTcMu6ZXxFnRutyELVUBPj+1GgzsETYyHTVzWshTdpZDMYHUhEXg514uixqZ4SBJcLGpatmXuV+eWPfFaAiLgc78T6rI7Hvf+3AwXMibES6ct79dbDO0tw942F8QEXc0sCqVYC/sMvBcyJsPLpy3o26YmvN46QY4lXfwcCq8qgrETwnwsaiq8w7OdCy5akUml8VqF2nrMpauXlOhI1EV4l3snHty6MvOn/wr289HzH0ionlBrYiwiakq8i7Sr5WqqlQ7/nS5lX4/r31+gI5T/AysZ3LBxFhY9BV4F0pz4sejvvRaxlYe5FO2czd4uQ5ETY8XXnOv5c12mTPqc53Ma9oA6uKJQ4jz4mwe2GqUEG3q3+wYi+Lu7p5Fa8hcJXpKnjMgJnnRNiddPVc0d51SyGn+eXNq5hfdbZBDKCJXRC/mhCCrrB5bZyXFLb3Ma8PITflLtTN4CVGqOH5hMN0Ba+Q6t1XwG59TVcubUGkQnwdyMQ2mN9NwMFiLUvgx1vEDbAeBukS8HIXkIm18LymY95esAUR+hCdHqNHh3uZV3HfohrPdRNr27c0lyAUXUcfW8zBM5aX7XtVsQX+ParzXDexIxE2CGz2QrtPEqFc31j8Xu4VwNPJyLFKqpfvbEsx0zA4JKzefVVNcYV6VZ7O8xrgLb+4Pau0xb72LrOsHk0vRMEqRktlDTusFt2sclflwrbjqPy/lVK+fnYjnt0EiK6FhwJD20pvS3QN8Ktg8ZOVmCIKJsuWJ8K6YD4ZoG/3Fq1E+e09N8llfcE3MD7pMasF2tb8WRr9Yoe5SlCpdqHzsJRcRdwm2PrPvX6PzlFFwXMxLgtVDmwwZ6ZUtj6Zx/sZ/AXEVcB2KIIHcJmRkbGU1zLDmBkdVYMw+djJYpcRugimHYrgoadZzIwtKE1gwIhlq7PpM8grvQa4NPfajBVgNg0ui/JaIEx5f52tnre67HSZ11MEXoU7KJLqV9jGUppAhyExALHV79KsnQboioqg3vcxtyqgNIFGwQrNVj+3LtRvb6gG5A3pVWouDW8CZCz1aymL5MFWP7+33FsNyIrAy/GsxpcBuLqiI5JyAHpUy7dyK+Lj1se7qwHZtfvsycpsM4EKQtUSTb8E1HXXzHofcpt9ZX93NaB8Sx8Ja6sFAH0FKzH1z4lp7qewBaQ+FVUhFXO7SoEIHg95SVhuMgfdenZaemskEfsEalq1vnY948TzGdvKeX+te7i9wVsCJg/Zw6u506ME/L0aepGI1exeBQRZPavGXXZyp9m5IIQsiE80ysRlhRjbyrLg50WsIl3ntYfYKoQGPlETT/TcYeAA+rv66PvNbX3aOCHGdkza6r8tYmXpWkPLNVaSu/OImoT49zZHtjC+xGeNCkUwgZHDIv7CX87EimdZZtZBbP38G1cDHvkaIdaa7pvK4uB7uveQ+EwVWjPE2G7gK/i7/S+C46qhIU9f8bSvyXPZ9f6ui537Uw9k4cx3sym3Hz0mwxsGQNP6bDYvtKeJXuzwvNURGItv7xXnvksRfBgJVha7rRvmFxNb3zRWNYIxp5BK4cqswb8GIRd+68yriFpYvj0bWxRbNfhWprH6UU3wXwvUC7RVpVT1rm5roZmjyZhhgcF2EdbQHjyDr+bZjD+oCf60QLGC+Wcl57en21p0jb8Qa30hsAifwRP6u+S1qgbw/fRL/WOa4K0FZngxtOagFXRXdvAA7UdirY1h0x7CMrMvqg3Djl+U/R1NMLzICn9ZMW+iOna8GhDf2o27XMCv3u0hbKvKNHHvs85E2d+oHUy1gaxCRoCv/47+qn1G5iYQj7OiXQv3R6A7MhjZZ/8LkqA39EzoplXe+egoX6TrbVu0LYR97tBCPJsCy32TePtV9AtsPXkqC51RFOn6A2VYG/c8CNs416xYqJvwy8WxctkKfH+VkDe82eyhmIQVdK9ZQo0NcVXt//FeRAVCRuenMlki2A7ClqiPVMNvzyLolwJlKrGOXbxr6mfpKm1aNGEZcuHmn6XsX94Zs4LYVJaoXfvfpatMWGxehVsHV0XQUOf5abJKJVWkjZDo+lN1AhthsVpKSB26O74L9ktW1k1WqUaFbJgnuh4jrGAgMDb5V4QBhqwS+ZANK0RXI2GRG54LMGQ6Zr59xmBaC9/lRsZNYmGH6KoQFhmv7jllWy+3FbPNgM6iDr7cI7raCYvi385TtsVwv2Oz3VL7DCz3FV8j0dVOWJzBFHa9X5d7dSsz62FY1WXD7XNx3iPRFSRsh1qW0ddQCHip2RuUbFvm3dInnpzzNyQ3n4zhBWkfo46xrcf2fTFcmbPTWu/J2nM1hEr6S/PKf7iq5bCXSBfvufgQZ6/ZFzvVO7+vYC0xW1wa6kR0VQkrmjvMxdBCzLV7MS949KDffSrVU0JJL+QnGwgd3BHXZyq8PrD/qOZwMVXQ7FaRwqFkTLe15HuIri5j1yNMQB1iQS91gLbbf2pK2N2I9lX5qp2fO/yCpI60SAgjIERpw/4/W1wlKdsf+ZJeB7FL0ev0PzLGZQckW4fQBEsYGwDcm3a2sAUeYDkQ8gimAFHCli6V7CjtirKYKE0gvNUjVkCfxNWWRc2WMyzv1LKx1K8ZaI/QRvRczt8zS1uFEgNWSJ7InScQ7cYhO6BPO/y7yqMqxxdtkwRlbcuGcoa3T3fMJ7cefkieL0KRltfudjZxh5s4os9AFi+fKT68jaESurZhrCxtxv6IcH1jwev8Sm5ko0jLCSVgXx0mVggkjs7SrzsbYzfi1uzF3PZYF0Lfvlk6lqX27YAhoeygS17w5lIe8kzSFQXZI7lyOHVAraXP2mptf70s3+RlrGnf6G2a9I319aPD6zOWbQWwdTlat8fTVTGuDUlXHJSykyMwHgMSFuBLm25SFHArRnvYxA3o5VEm6A8PApY2siZwZACHgISFGNulUXHAgPsAewW9m2dZv5MW8IKy11urUww7ywHgTTdGd41lE4OtIl3th7eVbUpawJc1rUfQEXj4CMDYnkVt/wRmtwex6tgROmXn49AIEAaPFGToaTnQ5TNLLA8JjVsOo0GQdJ0V295Sa/YeqN1+ttijDV2RgRjbxjA70NWDgRQzjq6qYu8p0NoLhs7tiBXHQCVEiLEdC6zroJG1U6D4DkdXNYdHxvUAtN4pI18iEBa+ySOgLADvXQiWPxOPbBgdg1ojIeN6EGpDdW9ibAzCwlfSTWGyBSXUeRsu28sQZVWtBt2QcT1MmeaJY2wUwsI2sD9sZOErbZZwdEHMedLY2lFaIIgh6nCMjTXoCbxEcRoObIkaMq39GtC4uemq9/cwyrkGgt6xBK5ttMlkJdgI2+wzRzM45bMbQrLFSVf9WkiKswJCP2XVQ75TImzQuj98iWK/+u6KagR7EtugJV/pYBH0m3WP0f3YfVrRAZyyAu4+cb6pAySAr57pfEYCGcYkBq5EONxMpV9U1lOfa3iUEyJTWbURO4zgu5VfUhZFWfgK4vApXXHOhU7XAqo1k3CNAiDw0YOUHeM58YCKUSjKGsgaoWRmHYAJ3TG/EFtTMlbTfkvcNqPRcAjRQlkTWYNmBL6P9zTStYA220JhVnLGKmGP/3hOP5iMLDjkujKO9m5iiEaxSiBNFIQDPWLrOYyVwx6LjQn1DCYSdtIlAoXx6oQuSn9iZdqq8M26xNZEjJ0cDnmMH/tabqpthvcesUxGNt3qepiu4rq0G11hORK5o5cgonRE6tIYg1iXSRer8YhhZxm10cQ6rFAAEwWrVFkJgsO+GWKY/xqy8B3PuQ+17+XK0xDtWfQRusZrcVrKt6ZHZfLI/TLOynDoiIfn6sWDrBFdsPQYLz6Wq0k7L3SU8CTUxmu1pnX0Hc+5f+Og7kOISlZ5e/bDYFyYbiAhcCIsYY+MNeZTlO6xx0sdk64lTpbECvQIHihwGjLO/SZVyRbsVK2+ZXUcV8xQf78dybTmgRpz3WboQ8rlyPYMLmwXVobdOhVm7GdcOULwfWeYG2LXMoiBKUq2Hpz39mwbVofxzWXt3jTdSiFWjpRFmLu2ladXevH0PVMz6PWIf0+zaxfN2Mm000BkzRX42zan90DL97TAysHRsmSMtV6jX7tlnEvmM5y7b18y4T1fs3Rtmf/jPLFCpCEZkDn2XGrctwD2GdI3V7+P4sdZx+P4z0ruVjo/eBEzu55yX0YLXJNZDs0ZFyyL24ZwAVQ1S3lbxrRYVOKc9lmIq1dFEuP2oiomfiv2pb98TTyrKcl6bUNbsiaSOuhaNvrF3rNHecFb9Po+DCFjSzsGvYy7bV7B/O6HebM2qK2dWElW9XaUDSANunZ5ETUQN96ZsjaEsF2v/WIIMKpmrzV9p/WHMpYN87wiSbtLjnpY7gqldNmzz51Ef5cSvbG+E53L9/+9qwmp/az0OOz9OI3yOOoYhpWUwH2hmtjL2SZ1iDIZ15tD7Q5prxRTa+NoybjeHtrouOucalZPspNx/QmoiYKLzI/S8ht0xPVHUKn9+BdgrHaC/VJChnAM6m10uTNWYytNwPwx1N11GKtPB6E46+dQIYfMZ8hWkgI/Cf1CuAxnSumzwugWl58FMIYrq+wWMMKmZ/Tafhi1XrRvc7Ff0JxZymH9OoBxslnM7IFmKtDAVoJ+5eeHGeeWjmbWEVsJBoC3xHbnnYQGx9UQWwmcseCQ+eaMgVPwFGRiK0EGyNjnkjb4Klb4KYitBJ2x4NmUPhllDWSl69wIBpSGWdlN/AP9JUzWZ0dDMAlmmO/WYvEyBrNxUl1DtSyCA6NpQEDfRJj0V9Wr8dqjlWQrAQHLxO4XZ8PZ2Xm0zPmiO1wIeFjHH7fr4Ukq76kzlokZHV3mRvDDPNgHB+2e6+6cI0+3YhD2UXZ1jrCY2vdcANxvQw3E7hcKsQi7USAnyU7vETCfAdnCiI3yO/2iQQ7EJrISDmMe0gxvpXHYhECo8Pci7ERDl2IQgmIemkjjhqeV4itCDBRDaDvbMuIqISbeFyMEMbTTQvOwCWkwHxoy39HodsI5rF297sXq2yXUNZwEwl6U5fCZLdwZSNq26/vaTSqxErJk7wZiKIFAIBAIBAKBQCAQCAQCgUAgEAgEAoFAIBAIBAKBQCAQCAQCgUAgEAgEAoFAIBAIBAKBQCAQCAQCgUAgEAgEAoFAIBAIBAKBQCAQCAQCgfC7+Aec815jFCXwowAAACV0RVh0ZGF0ZTpjcmVhdGUAMjAxNy0xMC0wOVQxOToyMTowOSswMDowMJ8QKKUAAAAldEVYdGRhdGU6bW9kaWZ5ADIwMTctMTAtMDlUMTk6MjE6MDkrMDA6MDDuTZAZAAAAAElFTkSuQmCC;" vertex="1" parent="1">
          <mxGeometry x="560" y="310" width="100" height="100" as="geometry" />
        </mxCell>
        <mxCell id="A2xlnPnC4mBpnPeIcrtY-16" value="" style="shape=image;verticalLabelPosition=bottom;labelBackgroundColor=default;verticalAlign=top;aspect=fixed;imageAspect=0;image=data:image/png,iVBORw0KGgoAAAANSUhEUgAAAZYAAADfCAYAAADV2PWGAAAACXBIWXMAAAsTAAALEwEAmpwYAAAgAElEQVR4nO2dTW8bV5rv/88pUtF094WL9/bmbtLsD9BoZW/A9LJhOJG22UTeNOA4RuxPYOcTOIFHFtAbyauZXkm2753MLuVFZxs1MLMOG9nd7hlVDyaObIr13AWLEkkVyapT561OnR+QwJZZdQ5L5HnO+T9vQCAQCAQCCqFrL0+PAMS2J6ICwvh5+uEvD23Poww+PXcGhv/1Ye+O7XmsIj467XOEAxtj/5//t4Pr7/5kY+h6dPCQfj86sT2NqvBedwuEJ7bnIY94QZ++/dL2LOrQIc7+wiS2bU9EBYwIAA4tT2Mt8au/DpjhxTMHAAIQH50+THd6qe25LCXKtgExMD3s++MfcP1tA40KAIxoG0DjDAsYDwAMbE9DniwG0GjDIiDEse1JKGQQH526fwrIxK7tKSgnGjttKBniIxvjXj9rqFEBAOIbtqcgBaGZ875ki/c3+7YnUQeR3u4lANzdaVbF8QUOAJhE0z/4V8hE5Ox7yjcbAxtjf/zmjzaGVQNj0LQFjve6WwD6tudRmyzbtT2FOggAIM5e2J6IKlxe4AAgPjr144O/AGUOS3ud8cDGsO+Pf2j2iQVo4ALHu7ZnoISmnhZzxOT/4tDuNNTh9AIHAFE2sD0FTcTxq9OB7UkUkpGVz0TjjQrQwAWOrEieymEM+Elzg3smhuUcJ/BHDnN3gYM9rd8ImZtG05b02GgZbEqDFjhvZLAp73V3bU9BFgEA6U4v9UkOQ5Y5eWqxqfWbwEXfUfzqrwNYWGy8kMGmNGaB80QGu6Sxm1Bx8aeME3vTUAuTo6eCBgQW1MS9qLxMDGwM641RmeDm9+kKnshgUxp0Wlzk0rAgOoY/clh/8+vTvu1JXIFpYHsK2nHMeAYZTAENWOC8k8GmNOa0OM+FYcmT25qXDLWEzZF7cpiLUpFqXIrKi49O+7AgPXolg01xfoHzTgab0shTmJj9C43Hz21NRDWuOcltaf2mcSoqL7ITZuydUZng1PfpKuTMhkYpDTgtFiHm/xr5lIW/5ZTen/lRNqcEDkXl2XnmXslgUxxe4HgffQBbtuehjY2ocWvHnGHJ5bDEzlSUE6PjTgQWC/9lsAscCTtmC7vYa9nffT2xuLvAjbtuzksVJD6xPYWqiMUfEPwJO87IjeN7fHTaB3u8o1rABV9SLj0a32Hf+ulr00Oaw9UFjuDmvFTB2HL1tLiMK4YF45CFrxxLWr9F7IcdW5Ieb/30rzaGNYODC5z3MtiE2NnT4hKuGBbf5DAX9H5G5PeOqgjLYcc2pMdr2d9x66d/MT2sSdxb4HyXwaY0TEq/emKBX3KYI3r/wPYETGMz7NiW9Oi1DHaBY4bFdxlsSoZt106Lqyg0LD7JYbb1/vjV39z6IhrCqgxpSXr0Wga7gG+4ssC1RAabEqPTacx7LTQsnslhdvV+S5V1HcCiDGnev9ICGWyKOwtcW2SwKR1qzOms+MQCgDh7bXIiWons9ZSwfWKyiiUZ0kaYcTtksBxXFri2yGBTXAlGKsFSw4LMIznMUha+r029ymLDqNoLM26DDJbjgN7fMhlsSsxPOwPbkyjDUsOS7vSGIG9qh9nJwve3qVdZzMuQFsKMWySDTbEvh2XdgdXxbSGaIa0vP7EAoMyb6LAYHfO7G9fqlVnBcNixjZYJ199+a3pI+9he4Nomg13SiPe90rBAiMTMNAxguPmXrcq6rmEy7Dh/5n1T401plX/lEmsLHO+jD27td6sRcthKw5Le7iUEDA3NRStsuhxF+7LtCzEadmwtzLhVMtgUewtcW2WwKbZPiyVYfWIBAH9aFse5M90QralmvA5jYcc2Khzc+ulrXMv+y/SwbmBrgWuvDDbF+fe/3rAI4U8pfWFODrMR8uosBsKO8yAB7eMs0lIZbIrxBa7lMtgU5+WwtYYlvd1L4EnLYlPhr7ZCXl3FyHPvBBnMAuYXuLbLYFOEGNiewirWn1gAEGe+dJY0E/7anqZeZdH/3C1UOGi1DDbFtBwWZLAcdvo5lDIsXslhBsJfW9XUqyyan7uNZMyWy2BTjC1wQQabo89/6DqbIFrKsPgkh+kOf21bU6+y6HzutioctFwGm2JODgsy2Dwjd6PDyp1Y4I8cpj38NYQZF6L1uVuocHD97bdBBptiSu8PMtg8xM4qI6UNi0dymNbw11Y29SqHtuduo8LBxz/+s+khHUa/3h9ksAIYA97f7NueRhHlDcs5TuCJHKYrC99WyGtj0BB2bOuZX3/7J9NDukxfuxwWZLBi2G6n1mWUNizpTi8lT5IltdWTshTy2hS0ONgtPPPrb7/F++c/mB7WbXTLYUEGW4aT9QjLn1gAQHhTSr+/+fVpX/ld29vUqyzqw44tPPMggxWgUe8PMtgKGAPbLQyKqGZYPJLDNkfq5bBWN/Uqi+KwYxvPPMhgBejU+4MMtpr3uru2p7BIJcOStyz2okeLaodv25t6lUVl2LGNZx5ksBVkmjq1BhlsHc7JYdVOLABoPPYi7BiqZRmDdciajNKwYwthxkEGW4EGOYyfIA4y2BoclMMqGxYgOoYncphKWSbIYKVRFnZsI8w4yGAr0LHAbXTDhq0MjslhlQ2LT3KYKlkmNPWqiIKwYxvPPMhgJVC9wDEHw1IOp+QwiRMLQPAj7FiZLBOy7Suh5HRn4ZkHGawUyhY4foIYRE4tmM7C2HJJDpMyLBh7E3asSJYJ1YwrUt+/xTRQM5XyBBmsBCrlsCCDVSHGRuTM85IyLLkclqidiiUUyDKhqZcENf1bpn1aQQargCo5LMhg1TDdfn0FcicW+COH1V2gQlMvOer4t/Jn3lc2mRIEGawSteWrIINJ4JAcJm1YPJLD6skyoamXFLX8WxaeeZDBKqBCDgsymAwxOh0nWnZIGxav5LBIPrFLW90x/5H2b5lupBZkMAnqymFBBpOjQ07IYfInFngkh0nmQ+Qhr32lk2kTnFXeXdlopBZkMCnqbbiCDCZHhm0X5LBahgVjb3q0bEnJYVHItq+DlEG3EGYcZDAJauj9/NSd6KYG4oQcVsuwpDu9IfyQw2J0qu+CbWR+e4aEf8usfyXIYNLIh79S8FvWQtivsl7vxAKAOHutYiLWqdj8KzT1UkSn2jM0Hdp9603oay+NbPgruZVF3kCs+1lqGxZkfshhXPVLEJp6qaFCHpGN0O5bZ1+bHM4vJOSwXAaz7iNoOLH2jp5rqG1Y0p3eCQFDBXOxTbUopdDUSwmVDLrhMOPfjP4tyGD1qK73BxlMDZblsPonFgDgzI9S+hV2z6GasTLivK/KWkyHGX/83yEarDZVw1+DDKYKq3KYGsMiRKLkPpYpayxsZH57TYm+KjbCjIMMpoAK4a9BBlOKVTlMiWFJb/cS+NGjpVyUUiYG2mfSIkpF1xkOMw4ymDLKy2FBBlOLRTlMzYkFAPkih5UojsgihBkrpoRBN7voBBlMIWUXuCCDqcba81RmWCD8iA4Dr17AbEgyrWBN2DHDbCZ2kMGUslbvz2WbIIOppW9LDlNmWHyRw5jW5EmEpl56WBE4kfu0jBFkMOWs1/uJdo3MpG0IMbAyrMqbeSKHrQk7DjqwDlaGHWdi19xMgOtn35ocrh2sk8MIIcpSC2xFDlNqWLyRw1Zk4YemXtpYGnZsOrT74zf/ZHK4trB045CfZvrGZtIutnh/s296UKWGxR85rNg5H5p6aaYg7Dg3Nn1TU3h//AN+8+7fTQ3XJpbLYUEG00sm3xZEFrUnFgDEXpTS729+fdq/8lPDkkzbKAw7LpHjopJbb4LTXhvL5LAgg+mF2PjzVW5YIPzoLLk5uiqHhWx77VwJOzZdQTrIYFq5IocFGcwAKjp6VkS9YTnHCXyQwxYWNNOSTGuZCTs2XUE6yGDauSqHBRnMDHU7elZEuWFJd3qpJ3LY/O7ZsCTTWmbDjg1XkA4ymAEWw1+DDGYKoyd/9ScWAMg40XJf08xk4YemXmaYC5wwXEE6yGAm4As5LMhgBjEsh+kxLIiO4YEclonoBhCaehnmInDCpE8ryGDGuMwGDzKYWQzKYVoMS7rTSwGc6Li3SSjDZMccmnoZZXOUbZv2aQUZzCBTOSzIYKYxprpoOrEANB77k4UfmnoZhSE+Mh5mHGqDmYP4RpDBLGBQDuvou3V0DOBA3/0NkWWDEGZsnC1mEYPMDPb++AdcP/uTmcECAGOAiAC2PZEWshFtA+ND3cNoO7Hkclii6/6mYBKPEHZWpolB5ipIB6NiAQ4+SytUaQVeA22GBQAIXoQdBzzn4zd/tD2FQMAMjC0TcphWw4KxH1n4AX8JMligZcQTOUwvWg2LL3JYwF+CUQm0DqHfZ6z3xIIghwXcJshggdaRYVu3HKbdsAQ5LOAqQQYLtJQYnY7W4BjthiXIYQFXCUYl0Fo6pDU6TP+JBQBx9trEOIErDG1PwGU8kMGGtifQSpibL+9Pq4powohhQRbkMBsQ8AU8qNmmA09ksAQelE5qFIQEzIe2p6GA5R09FWDEsKQ7vSEofAGMM8YxceZDaR3leGBUgIyfAxzUAJMwnuN8nMCHDduyjp4qbq3rxotQFqLDTELML9KdXgohjm3PxUU8kMFSun+eIEP4/ZpERAk9ROrJRlmbn8WYYYEQibGxAgDRMQCkt3sJfNhdKcQPGYxeAwDdP08Qfr+mOKG7Z0MAQAYfNsra5DBjhiW93UsoOBvNMb7cyXrS0VMZzTcqAMCXJxU/ds9N4FJ2jCI/Toqa5DBzJxYACAucES5ksCkiBE/M4oEMBogoufizH7tn98kujXl+chlam4s6tMhhZg1L0PvNkMtgF5zjBEEuAeCLDDYjyQD+7J7dJs1lxxk8CDvWJIcZNSxB7zfEeN6hm+700iCHTfDAqACzkgy82j07DF2NvvMlcGLa0VPlLVXfcB0h/FUvBCRzMtiUjBPzs3GPWz/9q+0p1GdGkrnEi92zw1x95v4ETrByOcy4YQlymHaWGO7oGF58CeS5lv0dt376F9vTqEuBJAN/ds+uMuvTmoW88G/1+Q9dpbXDjBuWIIdppltcly0/xbQ6eujWTz70tS+QZADg/Dz40XRBSOZ8WrNwlhidiy5GaqPDzJ9YEOQwXRCQpL/rDZf++3jc6ufuhQxWIMkAgEdJey6y/FTybuzHSZFYaY8WK4YlyGHaWGM42hs95IkMtlySAULYsS46y6uz5wZ96b83BsaA9zf7qm5nx7CE8Fc9LJHBprS5hYEfMthCmPEiIexYB0P6/Wj1SdAXg85jZXKYFcMSwl/Vs04Gu3xdO5+7JzLYyt9dCDvWQrL2FT6cWCZ8pOpGdk4sQMgGV085/0kLO3p6I4NlZRawEHasFFq/EaN7oxP4YNAZA1Uti+0ZliCHqWWNDDaljXLY9bff2p6CCoaFYcaLhLBjtbwdJ+Ve6IlBf6+7q+I21gxLCH9VR1kZ7PL17ZLDPPGvJKVeFcKO1UGYlMgvgz8GXYkcZu/EghD+qpBqz7FlcpgXMlgJSQYIYcdK4QrfK18MuiI5zKphCdngiigpg01pkxx266evcS37L9vTqE9pSQb+RCnZZlVo9wJeGXQFcphVwxLksPpUlcEur2uHHOaFDFZFkgFC2LEaVod2F+GPQa8th1k+sbRngdOInJw4bkeSqhcy2KrM7wJC2LESikvnrGI0OlQ/DQswturKYdYNS9v0fuVUlMGmpDu9ITyXw7yRwVZkfi/HkyglWxRWkF6NN1n4QIyNqFaypHXD0ia9XzWyMtjF9ZxV35U1CC9ksDKZ30X4E6Vkg+IK0mUYsx/fKRK1SulbNyxAkMNqUC+qLvP7tOiJDJZIXeVLlJId6hjlRNUkrFJTDnPCsAQ5TBJJGWxKutMbkqdavDcyWMkw4yuX+RSlZB7pU4c/zb8Qo9OR7tHihGEJclh16spgF3jawsATGaxamPEi/kQpmaVCmHEx7Md3qkPScpgThgUIclh1FD0vIRIl93GM62896G1fNcx4kRB2XJ1VTb3K4ot/K8O2rBzmjGFpS/irMrpqnld6u5f4Joddf/st3j//wfY0VFBr8xDCjqWov2Hzx78lLYc5Y1jaEP6qDMaJEhns4n5+nRY//vGfbU9BDVJhxouEsONKKHjmXvm3hFzLYmcMC+B/+KsqiBT7RTzr6OmFDCYbZryIL7KMGdQ8c8An/5aUn8Upw4LMrwVOG4pksCnp7V4CP47uPslgiZK7+CPLmCBRdid//FsxP+0Mql7klGFJd3onvun9ylEtg+WQJ9Fh3shgmZrIIq9kGd0oeuaAZ/4tCTnMKcMCwNvwV1Uol8GmeCKHeSKDQTrzuwh/ZBmtKH3mADzyb1WWw9wzLJ6GvypDsQw2xQc5zBsZTHW9KX9kGY2QeiPgj3+rshzmnGHxYYHThiYZbErT5TBvZLAqDaZK4JUso43qRSfX4VEWfmU5zDnDAjR/gdMFQXPUXMPlMF9ksPqZ30V4I8voQcszB0DeyJCVerQ4aViavsBpQ3PRyCafFr2RwWQaTJXBH1lGB3qeOQBwlmi5r3n6VeQwJw1Lkxc4jQzTnZ726B5qaLKkNzJYjQKIKwlhx6vQpwS8G/tj0IUYlH6pvlnUI8hh8xhb8EUzK017I4NJNJgqQwg7XoGmZw541fwLAJeWw5w1LEEOW8BU75RzNG5n65EMJt9gqgwh7LiIodZnDvj03Ld4f7Nf5oXOGpYgh81hRAYDJi0MmiaH+SODkd7gjBB2XESifQSfnnuW7ZZ5mbOGBWiu3q8a488h48ToeDXxRgbTEPI6Swg7LkCykVqlIXx67sQ3yrzMacPSVL1fOcZbCEfHaMhp0SMZTF/I6xwh7HiOOo3UKuHJc2cMyvRocduwNFDv14AxGWxK3tGzEY7eW2+86GsP6Ax5nSWEHV9St5FaFXx67u91d9e9xGnD0kS9XzW23j+Nx42Iyrt15kkLYp0hr7OEsONZzH23/Hrua6PDnDYsABqn9yvHWnSc+w7H34z+zR8ZTGPI6ywh7HgGJY3UykEPkYLZj35TJeQw9w1Lg/R+DQzz6Djj5HKYlbHL8vF/+xINpjnMeBF/wl/roK6pV2koMTueRtbIYc4blibp/aphYXdhJ7gtQ3okg5k9HfoU/ipPYnzE0ejQ+Jj6WCmHOW9YgObo/aoRiqvcVmbsblSeVzKYKf9Kjlfhr7IobOpVFq+y8NfIYY0wLE3Q+zVgTQab4rIc5pEMZijMeBFPwl/lMCs9zjL2xM8CABvR0lL6jTAsLi9wurAtg01xVQ7zRgYjJEbCjBfxKfy1MporHKwmsTi2Wkgs7SzZCMMCuLvA6cK6DDbFQTnMKxnMVqSQX+GvFTETgVeEV82/GFvL5LDGGBYXFziNWJfBprh4Wrz1xpPTCgB0ycoi1+qwYyvS4yzm/TuaiJfJYY0xLC4ucLpwRQab4tpp8daZN9n2FkJeZ2hn2LGZCger8EmGFKKwdlhjDAvg3gKnC2dksCljd1oYvD/+Ab959++2p6GKxOro7Qw7tu8890mGzLBdJIc1yrC0RA5zRgabku70hrC9COZ4JYMZqKy7cvg2hh0bqnCwCs9kyBidztbiDxtlWNogh7kmg00hzuzv9AB8/OafbE9BHcYq666iVWHH+pt6lcUnGbJDV6LDGmVYAHcWOF04J4NNMV66/ypeyWAmK+uuol21+BLbE7jAJxkywxUHfuMMiwsLnEack8GmpDu9oe3ju1cymMnKuqs4d+HUZAjL0uMsuQzpjRzGTzuD2R80zrC4sMDpwlUZbApldr+YXslgBivrrsKrMiPrcEJ6nCHzSIYUNHdqaZxhAewvcLpwVgabIkRia2ivZDDbYcaL+KT3L8MV6XGexPYEFDLnZ2mkYbG5wGnEWRlsSnq7l5ClKCLPZLDE9gTmaMeJxTnj6VUW/oIc1kjDYnOB04XrMtgFnFk5VXlTGwxwSusHALo38ievYhnkqLOc3DN40szIYY00LAAAz1oWC27IB8zCafH98Q+4fvYn08PqwzWtH4BHZUaKGFrPtl8GZ4ntKSjkQg5rrmGx1rJXC2l6u9eI95PLdUZ3t14ZFTe1ft/DjhPbE1jKu3EjvvcluZDDGmtYbCxwumDRrNpBZFgO+/jNH00OpxdXAzR8Dju20NSrLN5F5QkxABpsWADzC5wuGiODTTF4WvROBrNeWbcY7xa4S+w19SqLV1F5/AnQcMPiiRzWGBlsisnToldGxWWtH/BsgZtitalXOXzKwgf6/IfuVqMNiw9yWNNksCmmToteyWAua/2Ap2HH9otOrsO7YqAj2m60YQGaL4c1TgabYuC06J0M5rDWD3gaduyo9HgVj7LwiW+Q7TnUJT46jbFZ3B6zCaS/6w1tz0GW+OvTvu4xTof/W/cQxnBaBsvhgzjG2Vljv0+LNOGZA/4990AgEAgEAoFAIBAIBAKBQCAQCAQCgUAgEAgEAoFAIBAIBAKBQCAQCAQCgUAgEAgEAoFAIBAIBAKBQCAQCAQCgUAgEAgEAoFAIBAIBAKBQCAQCAQCgUAgEAgEAoFAIBAIBAKBQCAQCAQCgUAgEAgEAoFAIBBQAtmeQCAQaDZ8gBijbh+jbAssYhDHEOJXFy/Isr+AKYXIhuiIIf1+dGJxuqXhA8Q424zBoy0w4rl/JKQYU4pOZ0h3z4Z2ZuguFL88/Z6BfsXr0r9/2OvJDnrt5ek3AAZVryNkD9MP/9eXMmPGr/62zRwd1RkzfvXXAXPnQGZ8APj7h71fF87t5X8eM+i3svetwBBASpz9BYITdKKT9He9YZ0b5s/1iZLZKeZtFzfPar6/KfyP3UMQPpG49Cu6N3ogNeY++si630tcmuLd6Nf0EKnMuGXg/c4AGW0DuAFgq9rFnELQCRjPIUYJ3cVQxxyrwgeI8SbahohuIOMBqqyLhASMP4OyBP8wTuiO3LPnp9E2hJD7PhGG9OnoZuUxDxDjp+4RuLIdKCbjOx1w9gIkPq94aRy/Oh2kt3tJ1THjo9OYJYwKADDERwCkDAsy2pY6n3XF8cJP+lLjr4BB13Tct4A+ADAJgPE5RsC1l6cJYfw8/fCXh1J3PEeMyMjc7UK4IXnlRwCkDAuy7kByzBgb0TYwPpS8vpDJDn7jc4yzB8goXn/FEohiMAYABsi64GdIwHhO90aHquZaBX4WbQPic7zJ16WMJW6Svx8Wn+ONAO/hEBk/p/vnSaX7CMSQXQtkpn2AGD92ExDUbGwZD+n+eSIgriyc5ciybanrorHcdRO24qNTqQ80k5BZGIZ1d/QNYMCIDq69PP0+fvm3XduTcRF+2hlA3vD3+Q/dajv6KXInpAlC6vNeCB8g5v2NR/ix8z0yfgyqYVQKB8AAwAHvdb/nve6u0nsvGzJ/T/yPnVOwOMrnoJJdCPrG5HuqinKjAvqCPht9CQAiP3VUPrYxiY/kBhd1DEssY5jiV38dQGJhIM5eVL2mwfQvDMzXp33bk3EKgTqfWWBEla/nffRrLXYZtvkJahsA3ut+rs2gXKWPqYHZ13cK5v3OAG+63xl+T9/pfE9V0WJU7r17PP2bAADi7LnEnfrxq9NB1YsYJGmQJmQiqr4Ty8Su1GCyp7lm0+cRvov/76ncLttLqN7un1jiMystg02J0elI/w75ADE/634D4EsDi+8ifWTd73l/45HKm+bv6Qky+gZmpOdZtnS8Jxl0GxUgNyw15LBBlZfHr/5Wb+cHgDJsV5XDpGUwCR+SJ8Q8xjfBuOQnh6rO6Ss3waDy6YG59ncFovpJCcjf85vudxrkoWpk/JifdZUEhsy8Jzl/lyoUvicZTBgVYGpYznECOTms2oKdyX3QF4jRKf9Fj49OtyCxO2GBpOo1njExLm2XxcZdFZ9Z4L2KOjvVO9nnVPbR8B62kHVt7OiLYTzgZxtHdWQ9J9/TXlc6ulR6WENGBcgNS7rTSyX9CYPNCguPvF9mgSqBAyLblRlCMGTkQd+I+R0qh2h7hYCazyzK34efRmqMGRDngQflxt1HH+gewZUFeArzNjbkdvnOvidg1+TJxaRRAaYnFgDIOJG5/eao3CKfO9CVaLVMovROjOWiY9IWy2DzELbil/9hVz6wRG0H+tzNKshhVCvAZZ6SclieM+POrv4qlRdi598T4wE/e8/Md8ugUQFmDQuiY8jIYSh5CpF1oBcTlwkciI9O++Dq+jgLtNFpvxSGeCQb5t1o6jvQ59koeRKRz5kpouT3s/MEri7AU6ouxOPuMZx/T5n2xGje6x6YNCrAjGFJd3opAJlSC4Myi46kA305ZeSwSC7XRjDaFGZchhiRnKTYaOrkkRTeb/1Ju2bOTBFr82h4r/s5oMT/qR/OHpUJ2+W9ziN1i6kGmFMwHtK90R2tw0x8Obtq7lbOqABzJxaAIJm3sWbRkc0jWUUZf03p09Qi56133F9B+lk2FH6CWHlUFGNrrRxGtKt0TGBlHk2+SDdJ6ozBGyslscl7oscaxh6COAFxAnCdemdDEN2cJhPqwpZRAYDO3N/G4hARKjuU1pZayYRcOZXV9FeVlYmPTvsypWOI+UW68z+11VhSDXH2HEIcrnlZjCzbruKbKmAQH53G+clWGdRFYf00FdSqE7ahKBpsnjy3ZEWZD7UyWH7PFXk04+5jkMpNH58A9BqMIShLAeqD8FswSUVnFg/B2/y0M1haLmXyntRAnGCML/CLX5zQnfTKZ5/3ulvIeBuCPkG59/cVfvbzx0X3UolNowIsGJZ0p5dee3maoPqCvLVq0VEWDbbIJI8mKfy3aDwAour3JGqaf6Vsvs1x/PL0hFF943DBJMy7zFilcbZkDvM2SEPx7w59giXPUIMMlt94EjiwWJRy4txWJPflC/Cq2lh5aZNHUPEeI3qEgueo8D0NkfGdy/dTbAfo3ugEExfCY37aeQxBxQmQzCmEuEOfvjuWcGVXwrZRARakMEBaDltaakU2j6QMq4vmbBgAAA1VSURBVPw2jEjuw9X1VwZLP+x9SZx9JX0DztqTMEk1s+2Xka0oD1O3dMwqivJoVAQnMKcg2qFPz2+uK7hI90aHdG/0a2T8Rf1xl0TZjbuPa9+bOMHPfv5B1QKSdP/8MYAPgIVqzcQJos4HE6OiFxeMClBgWDCWy8JfWmolqpadX5HCPJo8mKDyuAQkzu6gVZEJeV1XVVltx8nzSHRFwa3ILVGSFLmMonvXKy8yMSo3qy6YdP/8sRLjsrFx1TdUV0pk/Bn/8IsdWamK7o1OIKKbuDiW0Bf06flNQz1b+nDAqAAFhiXd6Q0hIXcsK7VSU9dfS2EejXwFZe+TItOd3pAWd1QlySJxTfF03ERlHkkRBbklvNfVdrKfDDC/w1cyHtHDXAqqfun988eom4S84DtSICUOEUXbdf0fdPdsiCy7g4xv1lmc7VHPqACLzvvpbTl7zSQGFe8VL2rw8dFpnyXySKpQHDgguTB4LIO5itJS/YQ0vf3L+nKDDgf6PJ9gMRKLMdDez3W2R0v98Q5r908ZjR5go/sRZE+Hi76j+lLiF6pOFnR/3DRfbU59owIsMSwQIgFLHJMnuSXJxd9lHejVuBKtxDLVaBm1uyk2gbzRWt/2PKYwInU1kxhDoF5yqzYH+jzxlagm1TkzRZD45LL5Fw9qdSYX0RfAqN50HiLlp/zVUod3Gd6LBkC+iBP9VqbZVc7QVqMxd1BjVIAiHwuAGj1a5r4c0g70qszk0eQVlCvvgIikWgc0jxqN1sQ4+4vKqTiJjjySIoQYTP+opIJyGWbzaIh+tebVyyEkynwG5+c1czlE/+KP9dSRpN48PCDLElW3KjQsgHSPlotSK/HRaR+SLYirMpe8J1tBeSwSRdNxlkluTyS/OxSiTlJYM9Avg+XjzPgHVJeOWc5sj5Y6i7CyyhS5jCX/ucqz63ODKR9wQa1q6leMoAMVzeGAFYaldsviaDyQul4uyPuiZbF075WdnreLZnx0Gscv/+MBR6hXkO9czunfFLQ70OcGw4D3NydjmZDBpnTok9qLx7hW1vlVCH+WvjajHgBgo9uvNYeOGNa63g/6eG9DiTS91LDUbVksK4PJnpQQjbdlS8c0ufcKk3h07eUpr/qPI5wyRN0ig14b3wmSzbVkk2p5vC1dQZmQQCa6L8M2NjfrGZZOp/q4q2CWvx/xJFIx41rviX4vF93mHczb/Kxbe6Oz/MSCWi2LtyEjgzFOZPMsMhHdkK2gHHqvrKfJxrc8UnkkKd6+uwO5k/ZHNWSwFwDLJTNnI9kxA22A8WWZQp+rWGlYZOUwZn4scx1R9rxOHk1oQawPEaF+QpvDyDvQ6TU9RAqS8BMwBiCW2x1SdIxMMgKOa1Yyjsaqk0fb15LBbWJwvQ6Xqw2LZMtigOTKVecOdOLstcTVMVomg5mCBQ69D8WWPjnwZHHPJB3aTDLjntDds2Eerlz9+1m3XM1IcWmfOhUdKJcDBdVKarzwdwUmMAZ1mpCtNCw1erTIcKnhC3MRWkEGW4/vpxUA8g70d6OJYRkZzYGY2XixnE+yFkKtYSHJjSgAZDwJgRdRvcqOPGpPHbyylOx9U8TqEwsAGo+NLLzEl+F+6e1eIlt2pCKhBfEaCHjo+2mljgN9mvWdy2GJ4qkV08XhxZ9l5bB6KItiq52QSpMItTyvRt64sBhIX+sv0pLYWsOStyzWz6I/h/XHlROzjOTWGojxVfphT2szIieQlcEWT7uyclg1hnMRTOfnknJ1LVYU0qxI3YTU+TDh4ZJXlaF+GLaPMAa8t/G46mVrDUsuhyUSU6rCVQe6bB5NFZrXe8UYxHieftST1lhLj9PFrxX+d1NqEiwZZiyiZO7vkZFN2NyY+UnJfHKfoNr5DryPfs0cnnQ+TLjWRjEurJZcAz5wwFAxK9h08KM8x6s0xbXCFiBkLxhiIDGjUhQ50NPbveTay9MUOiNGxlZkBOch4GH6kZmTim2ZjZ8gBkmEGReUNaG7Z0N+1k2UtzSeJSvwqXCWAHqriBfQ52fdJ/Tp6KHMxXyAGG+639Scw/z3N8MxBD6Xvx1/zvs4pLv1ZXh+Fm3jjXjCT2ebhZmGvgBzAkLd5wwAR/wEHyw2i1tGCSkMk5bFGlnmQJfMoykFAYnqNrvNh/9MhJutkL+mdKKB5JXFp4SxVnl1WLhIvRsfw7wcBjAe8P5G5RJBfIAYP3YT1C7bvyCX15cFY2Tdb+pKYhOfXZ6QLOgbftZ9Yl5mmxSUpPvnCTKWb+53SR/vdUv/rksZFs1y2PI8Er1yWIgGuwJdy0PM24Ns7xVaKnsl0nNZT+G9pfNoVJDxY37WLd3umvfRx4/dZFrjqwZD+nS+NP1kNy0VJTdLHxvd72SjoSatkbvzpZMYD+rcszoLVYrPzx9DRTAU40FZ31q5Ewukc0vWsjKPRDqPpgSh90oR/Syq2VWwaVBhZ8V1nCyr7pufKAr/rTZFMtjFv1nws0xhPOC97ve8191d5lfg/c0+7288wrjznQKjApAo3oWriZLrI+t+w3sF7ZyXwAeIL95f8Umsj6z7vcwJrxpXS9/TQ6TI+I6S25csVFnKxwIAyMQhNCw6gpd/IdKdXhq//M/XrLhlq08tiImz5xCXUiUzDlBDYiDgQfzq9IWpMGyljb4WGUfHq+TOfPclI1Gs2WTxC4BqaP2FpCu1+tHoEBvlTw4a6AM4wJvuAT9DAlAKQgpGDOYtZOM+AICUdDMbLgu8ofvniSI/Vx/AAe91HwFIkPFzdDrD6YaC9zf7iMYxRtkWRHQDP2bbII7Xvr+MH/NedxdidFOFL2eB4bJ+KnT/POGnna8gan8uc0lstW+ttGFJd3rD+OXpUHWTqPR2b/UOY5wdI4oU9wL3qkT2nJQYvzq9w1zPWceMg/jo9AMTPiiljb4WeLuJBKtOvLKhrrN5JEXUdiIXsvJ7Qg+R8jPILKgpJicsdQmCjAHAqNF0ax2rOz0yHgL4TtFYfQC7ELSLbAze605+mo2BDAAEkHFVg5mfXugx3X1nLPmY7p8/4L3uDdT9XTMe8LPo9aIUOUtpKWxyQ7XOdOIyRfQ0hHB2DYQyWyK93UuIs7rOunZIYnK9V4brKuFKl1pZedMSmyE5OSwG6AVsOP/lWNvpke6NThQ5rPUy8U+piNiqgmzB1HlYHKzyGVUzLKpLrZTII1EeONCGFsSZeIyaOn8uiQ1UTMdFamR8JyVHUBsc8na8flzZPBrBvwI3oGwPcwoRlctVmjis3Q9EMVxSiu6NThT9rldm5VcyLLI9WpZS0oFOCqUrgp4gBJdId3opEWo763JJzH6Slw4E5KLBVjnQ516nMkeKXpTJH6C7Z0OpsjIZtjEaHTq/yxfiTtmWyPQQKUS0A6dPYny87vSlA/ps9KWS8kMrClVWO7FAXW5JJQe6yjyaTG9OjisESWwdUgEhxXkkRSgttcLljZRcHk2MTmeL7p8/ML2DLg99QZ++q2SscyN0E24alyFERyq5VAkUKZLEigtVVjYsCnNLSn+AFcphLeiCOEOQxAqp0YI4KftCpaVWFkvHrKbKa2fGmPRooc9Gu+4Zl6shtKWvvDc6gXvGZQgR3Sx7+tIB3T0b6pTEKhsWZXJYxTwSFXk0beu9EiSxJciGopZxoM+NkyVS48yNebV0zMqXy+fRXJSEoc9Gu8jYvs9lUufqjqxRmUL3RicQ0QcwUzF9HdaNyhSdklj1EwvmS9xLXS+TR6JAwmpj75UgiRUgV/gwXRVeWYiKUitSn1m5lsWzWdV0//wxJhFEQ4l7qWAIopuqfBB092yId6MPrJ7GGM/xs59/4IJRueDtSI0firMns4UqpQwLRAXNt5Dqhind6Q1r9mhpbwviIIldUKcFceUrVJRaqSaDTZANHBDzLYvp3ugQIrppdDFmTpHxF/jZzz/IZSxl0EOk9NloF+YN5hBEO/TZaJfupC5JcnlWfqYmK39SqDIGZA3LeZSgjpWTzSOpETjQNhlsliCJzVC3BXHl8Wr4WSrKYBeXyefRXAlooLtnw1wauwniROKeVThE1PmA7p8/1rkA073RId0b/Rq6DcyskawYeGASuj8+Vl2oUsqw1GpZXCePpEYezarSMW0gSGI5dVsQV6Vey+Ian1mpPJr+siKDdP88oU/PbyLjyQlGSZ8PzC6+Pbo3Kh1OrIILA5NlO0pPZcQJGA/x81/8WreRVIbiQpXla4UtQISvwBIToXV1lpaT3u4l8cvTQ8lr6+8YzjtDitaU85Bgkqcz1wmvPEKUN/CZeEwRrkmNk0NAHH992r/YHHSiIbH6Z6KCzTOkZ4s/JAxBFeeb0V/K9qG4MtxDpPyUv0CHflX96ugYGMkMC4AOISR+19mau05OQwkA8NNoG0IMAL4BUDl5kTmFwAnGeA0guQzftrf20v3xMTA+BrDLTzsDCNoG8W+RYQtEq0/ozCkIQwg6QZa9xs/+x/GlIZF4TxkN0ZH8PrH8Q6SHSHkPO2pKEYmBkopwgUAgwHvdLWQcAxxDLBb3FCcQUeqU47oEfBDHODuLcX7en/sHQWkT348p/j+wpbQ5d4S+NwAAAABJRU5ErkJggg==;" vertex="1" parent="1">
          <mxGeometry x="170" y="650" width="127.44" height="70" as="geometry" />
        </mxCell>
        <mxCell id="A2xlnPnC4mBpnPeIcrtY-17" value="" style="shape=image;verticalLabelPosition=bottom;labelBackgroundColor=default;verticalAlign=top;aspect=fixed;imageAspect=0;image=data:image/png,iVBORw0KGgoAAAANSUhEUgAAAZYAAADfCAYAAADV2PWGAAAACXBIWXMAAAsTAAALEwEAmpwYAAAgAElEQVR4nO2dTW8bV5rv/88pUtF094WL9/bmbtLsD9BoZW/A9LJhOJG22UTeNOA4RuxPYOcTOIFHFtAbyauZXkm2753MLuVFZxs1MLMOG9nd7hlVDyaObIr13AWLEkkVyapT561OnR+QwJZZdQ5L5HnO+T9vQCAQCAQCCqFrL0+PAMS2J6ICwvh5+uEvD23Poww+PXcGhv/1Ye+O7XmsIj467XOEAxtj/5//t4Pr7/5kY+h6dPCQfj86sT2NqvBedwuEJ7bnIY94QZ++/dL2LOrQIc7+wiS2bU9EBYwIAA4tT2Mt8au/DpjhxTMHAAIQH50+THd6qe25LCXKtgExMD3s++MfcP1tA40KAIxoG0DjDAsYDwAMbE9DniwG0GjDIiDEse1JKGQQH526fwrIxK7tKSgnGjttKBniIxvjXj9rqFEBAOIbtqcgBaGZ875ki/c3+7YnUQeR3u4lANzdaVbF8QUOAJhE0z/4V8hE5Ox7yjcbAxtjf/zmjzaGVQNj0LQFjve6WwD6tudRmyzbtT2FOggAIM5e2J6IKlxe4AAgPjr144O/AGUOS3ud8cDGsO+Pf2j2iQVo4ALHu7ZnoISmnhZzxOT/4tDuNNTh9AIHAFE2sD0FTcTxq9OB7UkUkpGVz0TjjQrQwAWOrEieymEM+Elzg3smhuUcJ/BHDnN3gYM9rd8ImZtG05b02GgZbEqDFjhvZLAp73V3bU9BFgEA6U4v9UkOQ5Y5eWqxqfWbwEXfUfzqrwNYWGy8kMGmNGaB80QGu6Sxm1Bx8aeME3vTUAuTo6eCBgQW1MS9qLxMDGwM641RmeDm9+kKnshgUxp0Wlzk0rAgOoY/clh/8+vTvu1JXIFpYHsK2nHMeAYZTAENWOC8k8GmNOa0OM+FYcmT25qXDLWEzZF7cpiLUpFqXIrKi49O+7AgPXolg01xfoHzTgab0shTmJj9C43Hz21NRDWuOcltaf2mcSoqL7ITZuydUZng1PfpKuTMhkYpDTgtFiHm/xr5lIW/5ZTen/lRNqcEDkXl2XnmXslgUxxe4HgffQBbtuehjY2ocWvHnGHJ5bDEzlSUE6PjTgQWC/9lsAscCTtmC7vYa9nffT2xuLvAjbtuzksVJD6xPYWqiMUfEPwJO87IjeN7fHTaB3u8o1rABV9SLj0a32Hf+ulr00Oaw9UFjuDmvFTB2HL1tLiMK4YF45CFrxxLWr9F7IcdW5Ieb/30rzaGNYODC5z3MtiE2NnT4hKuGBbf5DAX9H5G5PeOqgjLYcc2pMdr2d9x66d/MT2sSdxb4HyXwaY0TEq/emKBX3KYI3r/wPYETGMz7NiW9Oi1DHaBY4bFdxlsSoZt106Lqyg0LD7JYbb1/vjV39z6IhrCqgxpSXr0Wga7gG+4ssC1RAabEqPTacx7LTQsnslhdvV+S5V1HcCiDGnev9ICGWyKOwtcW2SwKR1qzOms+MQCgDh7bXIiWons9ZSwfWKyiiUZ0kaYcTtksBxXFri2yGBTXAlGKsFSw4LMIznMUha+r029ymLDqNoLM26DDJbjgN7fMhlsSsxPOwPbkyjDUsOS7vSGIG9qh9nJwve3qVdZzMuQFsKMWySDTbEvh2XdgdXxbSGaIa0vP7EAoMyb6LAYHfO7G9fqlVnBcNixjZYJ199+a3pI+9he4Nomg13SiPe90rBAiMTMNAxguPmXrcq6rmEy7Dh/5n1T401plX/lEmsLHO+jD27td6sRcthKw5Le7iUEDA3NRStsuhxF+7LtCzEadmwtzLhVMtgUewtcW2WwKbZPiyVYfWIBAH9aFse5M90QralmvA5jYcc2Khzc+ulrXMv+y/SwbmBrgWuvDDbF+fe/3rAI4U8pfWFODrMR8uosBsKO8yAB7eMs0lIZbIrxBa7lMtgU5+WwtYYlvd1L4EnLYlPhr7ZCXl3FyHPvBBnMAuYXuLbLYFOEGNiewirWn1gAEGe+dJY0E/7anqZeZdH/3C1UOGi1DDbFtBwWZLAcdvo5lDIsXslhBsJfW9XUqyyan7uNZMyWy2BTjC1wQQabo89/6DqbIFrKsPgkh+kOf21bU6+y6HzutioctFwGm2JODgsy2Dwjd6PDyp1Y4I8cpj38NYQZF6L1uVuocHD97bdBBptiSu8PMtg8xM4qI6UNi0dymNbw11Y29SqHtuduo8LBxz/+s+khHUa/3h9ksAIYA97f7NueRhHlDcs5TuCJHKYrC99WyGtj0BB2bOuZX3/7J9NDukxfuxwWZLBi2G6n1mWUNizpTi8lT5IltdWTshTy2hS0ONgtPPPrb7/F++c/mB7WbXTLYUEGW4aT9QjLn1gAQHhTSr+/+fVpX/ld29vUqyzqw44tPPMggxWgUe8PMtgKGAPbLQyKqGZYPJLDNkfq5bBWN/Uqi+KwYxvPPMhgBejU+4MMtpr3uru2p7BIJcOStyz2okeLaodv25t6lUVl2LGNZx5ksBVkmjq1BhlsHc7JYdVOLABoPPYi7BiqZRmDdciajNKwYwthxkEGW4EGOYyfIA4y2BoclMMqGxYgOoYncphKWSbIYKVRFnZsI8w4yGAr0LHAbXTDhq0MjslhlQ2LT3KYKlkmNPWqiIKwYxvPPMhgJVC9wDEHw1IOp+QwiRMLQPAj7FiZLBOy7Suh5HRn4ZkHGawUyhY4foIYRE4tmM7C2HJJDpMyLBh7E3asSJYJ1YwrUt+/xTRQM5XyBBmsBCrlsCCDVSHGRuTM85IyLLkclqidiiUUyDKhqZcENf1bpn1aQQargCo5LMhg1TDdfn0FcicW+COH1V2gQlMvOer4t/Jn3lc2mRIEGawSteWrIINJ4JAcJm1YPJLD6skyoamXFLX8WxaeeZDBKqBCDgsymAwxOh0nWnZIGxav5LBIPrFLW90x/5H2b5lupBZkMAnqymFBBpOjQ07IYfInFngkh0nmQ+Qhr32lk2kTnFXeXdlopBZkMCnqbbiCDCZHhm0X5LBahgVjb3q0bEnJYVHItq+DlEG3EGYcZDAJauj9/NSd6KYG4oQcVsuwpDu9IfyQw2J0qu+CbWR+e4aEf8usfyXIYNLIh79S8FvWQtivsl7vxAKAOHutYiLWqdj8KzT1UkSn2jM0Hdp9603oay+NbPgruZVF3kCs+1lqGxZkfshhXPVLEJp6qaFCHpGN0O5bZ1+bHM4vJOSwXAaz7iNoOLH2jp5rqG1Y0p3eCQFDBXOxTbUopdDUSwmVDLrhMOPfjP4tyGD1qK73BxlMDZblsPonFgDgzI9S+hV2z6GasTLivK/KWkyHGX/83yEarDZVw1+DDKYKq3KYGsMiRKLkPpYpayxsZH57TYm+KjbCjIMMpoAK4a9BBlOKVTlMiWFJb/cS+NGjpVyUUiYG2mfSIkpF1xkOMw4ymDLKy2FBBlOLRTlMzYkFAPkih5UojsgihBkrpoRBN7voBBlMIWUXuCCDqcba81RmWCD8iA4Dr17AbEgyrWBN2DHDbCZ2kMGUslbvz2WbIIOppW9LDlNmWHyRw5jW5EmEpl56WBE4kfu0jBFkMOWs1/uJdo3MpG0IMbAyrMqbeSKHrQk7DjqwDlaGHWdi19xMgOtn35ocrh2sk8MIIcpSC2xFDlNqWLyRw1Zk4YemXtpYGnZsOrT74zf/ZHK4trB045CfZvrGZtIutnh/s296UKWGxR85rNg5H5p6aaYg7Dg3Nn1TU3h//AN+8+7fTQ3XJpbLYUEG00sm3xZEFrUnFgDEXpTS729+fdq/8lPDkkzbKAw7LpHjopJbb4LTXhvL5LAgg+mF2PjzVW5YIPzoLLk5uiqHhWx77VwJOzZdQTrIYFq5IocFGcwAKjp6VkS9YTnHCXyQwxYWNNOSTGuZCTs2XUE6yGDauSqHBRnMDHU7elZEuWFJd3qpJ3LY/O7ZsCTTWmbDjg1XkA4ymAEWw1+DDGYKoyd/9ScWAMg40XJf08xk4YemXmaYC5wwXEE6yGAm4As5LMhgBjEsh+kxLIiO4YEclonoBhCaehnmInDCpE8ryGDGuMwGDzKYWQzKYVoMS7rTSwGc6Li3SSjDZMccmnoZZXOUbZv2aQUZzCBTOSzIYKYxprpoOrEANB77k4UfmnoZhSE+Mh5mHGqDmYP4RpDBLGBQDuvou3V0DOBA3/0NkWWDEGZsnC1mEYPMDPb++AdcP/uTmcECAGOAiAC2PZEWshFtA+ND3cNoO7Hkclii6/6mYBKPEHZWpolB5ipIB6NiAQ4+SytUaQVeA22GBQAIXoQdBzzn4zd/tD2FQMAMjC0TcphWw4KxH1n4AX8JMligZcQTOUwvWg2LL3JYwF+CUQm0DqHfZ6z3xIIghwXcJshggdaRYVu3HKbdsAQ5LOAqQQYLtJQYnY7W4BjthiXIYQFXCUYl0Fo6pDU6TP+JBQBx9trEOIErDG1PwGU8kMGGtifQSpibL+9Pq4powohhQRbkMBsQ8AU8qNmmA09ksAQelE5qFIQEzIe2p6GA5R09FWDEsKQ7vSEofAGMM8YxceZDaR3leGBUgIyfAxzUAJMwnuN8nMCHDduyjp4qbq3rxotQFqLDTELML9KdXgohjm3PxUU8kMFSun+eIEP4/ZpERAk9ROrJRlmbn8WYYYEQibGxAgDRMQCkt3sJfNhdKcQPGYxeAwDdP08Qfr+mOKG7Z0MAQAYfNsra5DBjhiW93UsoOBvNMb7cyXrS0VMZzTcqAMCXJxU/ds9N4FJ2jCI/Toqa5DBzJxYACAucES5ksCkiBE/M4oEMBogoufizH7tn98kujXl+chlam4s6tMhhZg1L0PvNkMtgF5zjBEEuAeCLDDYjyQD+7J7dJs1lxxk8CDvWJIcZNSxB7zfEeN6hm+700iCHTfDAqACzkgy82j07DF2NvvMlcGLa0VPlLVXfcB0h/FUvBCRzMtiUjBPzs3GPWz/9q+0p1GdGkrnEi92zw1x95v4ETrByOcy4YQlymHaWGO7oGF58CeS5lv0dt376F9vTqEuBJAN/ds+uMuvTmoW88G/1+Q9dpbXDjBuWIIdppltcly0/xbQ6eujWTz70tS+QZADg/Dz40XRBSOZ8WrNwlhidiy5GaqPDzJ9YEOQwXRCQpL/rDZf++3jc6ufuhQxWIMkAgEdJey6y/FTybuzHSZFYaY8WK4YlyGHaWGM42hs95IkMtlySAULYsS46y6uz5wZ96b83BsaA9zf7qm5nx7CE8Fc9LJHBprS5hYEfMthCmPEiIexYB0P6/Wj1SdAXg85jZXKYFcMSwl/Vs04Gu3xdO5+7JzLYyt9dCDvWQrL2FT6cWCZ8pOpGdk4sQMgGV085/0kLO3p6I4NlZRawEHasFFq/EaN7oxP4YNAZA1Uti+0ZliCHqWWNDDaljXLY9bff2p6CCoaFYcaLhLBjtbwdJ+Ve6IlBf6+7q+I21gxLCH9VR1kZ7PL17ZLDPPGvJKVeFcKO1UGYlMgvgz8GXYkcZu/EghD+qpBqz7FlcpgXMlgJSQYIYcdK4QrfK18MuiI5zKphCdngiigpg01pkxx266evcS37L9vTqE9pSQb+RCnZZlVo9wJeGXQFcphVwxLksPpUlcEur2uHHOaFDFZFkgFC2LEaVod2F+GPQa8th1k+sbRngdOInJw4bkeSqhcy2KrM7wJC2LESikvnrGI0OlQ/DQswturKYdYNS9v0fuVUlMGmpDu9ITyXw7yRwVZkfi/HkyglWxRWkF6NN1n4QIyNqFaypHXD0ia9XzWyMtjF9ZxV35U1CC9ksDKZ30X4E6Vkg+IK0mUYsx/fKRK1SulbNyxAkMNqUC+qLvP7tOiJDJZIXeVLlJId6hjlRNUkrFJTDnPCsAQ5TBJJGWxKutMbkqdavDcyWMkw4yuX+RSlZB7pU4c/zb8Qo9OR7tHihGEJclh16spgF3jawsATGaxamPEi/kQpmaVCmHEx7Md3qkPScpgThgUIclh1FD0vIRIl93GM62896G1fNcx4kRB2XJ1VTb3K4ot/K8O2rBzmjGFpS/irMrpqnld6u5f4Joddf/st3j//wfY0VFBr8xDCjqWov2Hzx78lLYc5Y1jaEP6qDMaJEhns4n5+nRY//vGfbU9BDVJhxouEsONKKHjmXvm3hFzLYmcMC+B/+KsqiBT7RTzr6OmFDCYbZryIL7KMGdQ8c8An/5aUn8Upw4LMrwVOG4pksCnp7V4CP47uPslgiZK7+CPLmCBRdid//FsxP+0Mql7klGFJd3onvun9ylEtg+WQJ9Fh3shgmZrIIq9kGd0oeuaAZ/4tCTnMKcMCwNvwV1Uol8GmeCKHeSKDQTrzuwh/ZBmtKH3mADzyb1WWw9wzLJ6GvypDsQw2xQc5zBsZTHW9KX9kGY2QeiPgj3+rshzmnGHxYYHThiYZbErT5TBvZLAqDaZK4JUso43qRSfX4VEWfmU5zDnDAjR/gdMFQXPUXMPlMF9ksPqZ30V4I8voQcszB0DeyJCVerQ4aViavsBpQ3PRyCafFr2RwWQaTJXBH1lGB3qeOQBwlmi5r3n6VeQwJw1Lkxc4jQzTnZ726B5qaLKkNzJYjQKIKwlhx6vQpwS8G/tj0IUYlH6pvlnUI8hh8xhb8EUzK017I4NJNJgqQwg7XoGmZw541fwLAJeWw5w1LEEOW8BU75RzNG5n65EMJt9gqgwh7LiIodZnDvj03Ld4f7Nf5oXOGpYgh81hRAYDJi0MmiaH+SODkd7gjBB2XESifQSfnnuW7ZZ5mbOGBWiu3q8a488h48ToeDXxRgbTEPI6Swg7LkCykVqlIXx67sQ3yrzMacPSVL1fOcZbCEfHaMhp0SMZTF/I6xwh7HiOOo3UKuHJc2cMyvRocduwNFDv14AxGWxK3tGzEY7eW2+86GsP6Ax5nSWEHV9St5FaFXx67u91d9e9xGnD0kS9XzW23j+Nx42Iyrt15kkLYp0hr7OEsONZzH23/Hrua6PDnDYsABqn9yvHWnSc+w7H34z+zR8ZTGPI6ywh7HgGJY3UykEPkYLZj35TJeQw9w1Lg/R+DQzz6Djj5HKYlbHL8vF/+xINpjnMeBF/wl/roK6pV2koMTueRtbIYc4blibp/aphYXdhJ7gtQ3okg5k9HfoU/ipPYnzE0ejQ+Jj6WCmHOW9YgObo/aoRiqvcVmbsblSeVzKYKf9Kjlfhr7IobOpVFq+y8NfIYY0wLE3Q+zVgTQab4rIc5pEMZijMeBFPwl/lMCs9zjL2xM8CABvR0lL6jTAsLi9wurAtg01xVQ7zRgYjJEbCjBfxKfy1MporHKwmsTi2Wkgs7SzZCMMCuLvA6cK6DDbFQTnMKxnMVqSQX+GvFTETgVeEV82/GFvL5LDGGBYXFziNWJfBprh4Wrz1xpPTCgB0ycoi1+qwYyvS4yzm/TuaiJfJYY0xLC4ucLpwRQab4tpp8daZN9n2FkJeZ2hn2LGZCger8EmGFKKwdlhjDAvg3gKnC2dksCljd1oYvD/+Ab959++2p6GKxOro7Qw7tu8890mGzLBdJIc1yrC0RA5zRgabku70hrC9COZ4JYMZqKy7cvg2hh0bqnCwCs9kyBidztbiDxtlWNogh7kmg00hzuzv9AB8/OafbE9BHcYq666iVWHH+pt6lcUnGbJDV6LDGmVYAHcWOF04J4NNMV66/ypeyWAmK+uuol21+BLbE7jAJxkywxUHfuMMiwsLnEack8GmpDu9oe3ju1cymMnKuqs4d+HUZAjL0uMsuQzpjRzGTzuD2R80zrC4sMDpwlUZbApldr+YXslgBivrrsKrMiPrcEJ6nCHzSIYUNHdqaZxhAewvcLpwVgabIkRia2ivZDDbYcaL+KT3L8MV6XGexPYEFDLnZ2mkYbG5wGnEWRlsSnq7l5ClKCLPZLDE9gTmaMeJxTnj6VUW/oIc1kjDYnOB04XrMtgFnFk5VXlTGwxwSusHALo38ievYhnkqLOc3DN40szIYY00LAAAz1oWC27IB8zCafH98Q+4fvYn08PqwzWtH4BHZUaKGFrPtl8GZ4ntKSjkQg5rrmGx1rJXC2l6u9eI95PLdUZ3t14ZFTe1ft/DjhPbE1jKu3EjvvcluZDDGmtYbCxwumDRrNpBZFgO+/jNH00OpxdXAzR8Dju20NSrLN5F5QkxABpsWADzC5wuGiODTTF4WvROBrNeWbcY7xa4S+w19SqLV1F5/AnQcMPiiRzWGBlsisnToldGxWWtH/BsgZtitalXOXzKwgf6/IfuVqMNiw9yWNNksCmmToteyWAua/2Ap2HH9otOrsO7YqAj2m60YQGaL4c1TgabYuC06J0M5rDWD3gaduyo9HgVj7LwiW+Q7TnUJT46jbFZ3B6zCaS/6w1tz0GW+OvTvu4xTof/W/cQxnBaBsvhgzjG2Vljv0+LNOGZA/4990AgEAgEAoFAIBAIBAKBQCAQCAQCgUAgEAgEAoFAIBAIBAKBQCAQCAQCgUAgEAgEAoFAIBAIBAKBQCAQCAQCgUAgEAgEAoFAIBAIBAKBQCAQCAQCgUAgEAgEAoFAIBAIBAKBQCAQCAQCgUAgEAgEAoFAIBBQAtmeQCAQaDZ8gBijbh+jbAssYhDHEOJXFy/Isr+AKYXIhuiIIf1+dGJxuqXhA8Q424zBoy0w4rl/JKQYU4pOZ0h3z4Z2ZuguFL88/Z6BfsXr0r9/2OvJDnrt5ek3AAZVryNkD9MP/9eXMmPGr/62zRwd1RkzfvXXAXPnQGZ8APj7h71fF87t5X8eM+i3svetwBBASpz9BYITdKKT9He9YZ0b5s/1iZLZKeZtFzfPar6/KfyP3UMQPpG49Cu6N3ogNeY++si630tcmuLd6Nf0EKnMuGXg/c4AGW0DuAFgq9rFnELQCRjPIUYJ3cVQxxyrwgeI8SbahohuIOMBqqyLhASMP4OyBP8wTuiO3LPnp9E2hJD7PhGG9OnoZuUxDxDjp+4RuLIdKCbjOx1w9gIkPq94aRy/Oh2kt3tJ1THjo9OYJYwKADDERwCkDAsy2pY6n3XF8cJP+lLjr4BB13Tct4A+ADAJgPE5RsC1l6cJYfw8/fCXh1J3PEeMyMjc7UK4IXnlRwCkDAuy7kByzBgb0TYwPpS8vpDJDn7jc4yzB8goXn/FEohiMAYABsi64GdIwHhO90aHquZaBX4WbQPic7zJ16WMJW6Svx8Wn+ONAO/hEBk/p/vnSaX7CMSQXQtkpn2AGD92ExDUbGwZD+n+eSIgriyc5ciybanrorHcdRO24qNTqQ80k5BZGIZ1d/QNYMCIDq69PP0+fvm3XduTcRF+2hlA3vD3+Q/dajv6KXInpAlC6vNeCB8g5v2NR/ix8z0yfgyqYVQKB8AAwAHvdb/nve6u0nsvGzJ/T/yPnVOwOMrnoJJdCPrG5HuqinKjAvqCPht9CQAiP3VUPrYxiY/kBhd1DEssY5jiV38dQGJhIM5eVL2mwfQvDMzXp33bk3EKgTqfWWBEla/nffRrLXYZtvkJahsA3ut+rs2gXKWPqYHZ13cK5v3OAG+63xl+T9/pfE9V0WJU7r17PP2bAADi7LnEnfrxq9NB1YsYJGmQJmQiqr4Ty8Su1GCyp7lm0+cRvov/76ncLttLqN7un1jiMystg02J0elI/w75ADE/634D4EsDi+8ifWTd73l/45HKm+bv6Qky+gZmpOdZtnS8Jxl0GxUgNyw15LBBlZfHr/5Wb+cHgDJsV5XDpGUwCR+SJ8Q8xjfBuOQnh6rO6Ss3waDy6YG59ncFovpJCcjf85vudxrkoWpk/JifdZUEhsy8Jzl/lyoUvicZTBgVYGpYznECOTms2oKdyX3QF4jRKf9Fj49OtyCxO2GBpOo1njExLm2XxcZdFZ9Z4L2KOjvVO9nnVPbR8B62kHVt7OiLYTzgZxtHdWQ9J9/TXlc6ulR6WENGBcgNS7rTSyX9CYPNCguPvF9mgSqBAyLblRlCMGTkQd+I+R0qh2h7hYCazyzK34efRmqMGRDngQflxt1HH+gewZUFeArzNjbkdvnOvidg1+TJxaRRAaYnFgDIOJG5/eao3CKfO9CVaLVMovROjOWiY9IWy2DzELbil/9hVz6wRG0H+tzNKshhVCvAZZ6SclieM+POrv4qlRdi598T4wE/e8/Md8ugUQFmDQuiY8jIYSh5CpF1oBcTlwkciI9O++Dq+jgLtNFpvxSGeCQb5t1o6jvQ59koeRKRz5kpouT3s/MEri7AU6ouxOPuMZx/T5n2xGje6x6YNCrAjGFJd3opAJlSC4Myi46kA305ZeSwSC7XRjDaFGZchhiRnKTYaOrkkRTeb/1Ju2bOTBFr82h4r/s5oMT/qR/OHpUJ2+W9ziN1i6kGmFMwHtK90R2tw0x8Obtq7lbOqABzJxaAIJm3sWbRkc0jWUUZf03p09Qi56133F9B+lk2FH6CWHlUFGNrrRxGtKt0TGBlHk2+SDdJ6ozBGyslscl7oscaxh6COAFxAnCdemdDEN2cJhPqwpZRAYDO3N/G4hARKjuU1pZayYRcOZXV9FeVlYmPTvsypWOI+UW68z+11VhSDXH2HEIcrnlZjCzbruKbKmAQH53G+clWGdRFYf00FdSqE7ahKBpsnjy3ZEWZD7UyWH7PFXk04+5jkMpNH58A9BqMIShLAeqD8FswSUVnFg/B2/y0M1haLmXyntRAnGCML/CLX5zQnfTKZ5/3ulvIeBuCPkG59/cVfvbzx0X3UolNowIsGJZ0p5dee3maoPqCvLVq0VEWDbbIJI8mKfy3aDwAour3JGqaf6Vsvs1x/PL0hFF943DBJMy7zFilcbZkDvM2SEPx7w59giXPUIMMlt94EjiwWJRy4txWJPflC/Cq2lh5aZNHUPEeI3qEgueo8D0NkfGdy/dTbAfo3ugEExfCY37aeQxBxQmQzCmEuEOfvjuWcGVXwrZRARakMEBaDltaakU2j6QMq4vmbBgAAA1VSURBVPw2jEjuw9X1VwZLP+x9SZx9JX0DztqTMEk1s+2Xka0oD1O3dMwqivJoVAQnMKcg2qFPz2+uK7hI90aHdG/0a2T8Rf1xl0TZjbuPa9+bOMHPfv5B1QKSdP/8MYAPgIVqzcQJos4HE6OiFxeMClBgWDCWy8JfWmolqpadX5HCPJo8mKDyuAQkzu6gVZEJeV1XVVltx8nzSHRFwa3ILVGSFLmMonvXKy8yMSo3qy6YdP/8sRLjsrFx1TdUV0pk/Bn/8IsdWamK7o1OIKKbuDiW0Bf06flNQz1b+nDAqAAFhiXd6Q0hIXcsK7VSU9dfS2EejXwFZe+TItOd3pAWd1QlySJxTfF03ERlHkkRBbklvNfVdrKfDDC/w1cyHtHDXAqqfun988eom4S84DtSICUOEUXbdf0fdPdsiCy7g4xv1lmc7VHPqACLzvvpbTl7zSQGFe8VL2rw8dFpnyXySKpQHDgguTB4LIO5itJS/YQ0vf3L+nKDDgf6PJ9gMRKLMdDez3W2R0v98Q5r908ZjR5go/sRZE+Hi76j+lLiF6pOFnR/3DRfbU59owIsMSwQIgFLHJMnuSXJxd9lHejVuBKtxDLVaBm1uyk2gbzRWt/2PKYwInU1kxhDoF5yqzYH+jzxlagm1TkzRZD45LL5Fw9qdSYX0RfAqN50HiLlp/zVUod3Gd6LBkC+iBP9VqbZVc7QVqMxd1BjVIAiHwuAGj1a5r4c0g70qszk0eQVlCvvgIikWgc0jxqN1sQ4+4vKqTiJjjySIoQYTP+opIJyGWbzaIh+tebVyyEkynwG5+c1czlE/+KP9dSRpN48PCDLElW3KjQsgHSPlotSK/HRaR+SLYirMpe8J1tBeSwSRdNxlkluTyS/OxSiTlJYM9Avg+XjzPgHVJeOWc5sj5Y6i7CyyhS5jCX/ucqz63ODKR9wQa1q6leMoAMVzeGAFYaldsviaDyQul4uyPuiZbF075WdnreLZnx0Gscv/+MBR6hXkO9czunfFLQ70OcGw4D3NydjmZDBpnTok9qLx7hW1vlVCH+WvjajHgBgo9uvNYeOGNa63g/6eG9DiTS91LDUbVksK4PJnpQQjbdlS8c0ufcKk3h07eUpr/qPI5wyRN0ig14b3wmSzbVkk2p5vC1dQZmQQCa6L8M2NjfrGZZOp/q4q2CWvx/xJFIx41rviX4vF93mHczb/Kxbe6Oz/MSCWi2LtyEjgzFOZPMsMhHdkK2gHHqvrKfJxrc8UnkkKd6+uwO5k/ZHNWSwFwDLJTNnI9kxA22A8WWZQp+rWGlYZOUwZn4scx1R9rxOHk1oQawPEaF+QpvDyDvQ6TU9RAqS8BMwBiCW2x1SdIxMMgKOa1Yyjsaqk0fb15LBbWJwvQ6Xqw2LZMtigOTKVecOdOLstcTVMVomg5mCBQ69D8WWPjnwZHHPJB3aTDLjntDds2Eerlz9+1m3XM1IcWmfOhUdKJcDBdVKarzwdwUmMAZ1mpCtNCw1erTIcKnhC3MRWkEGW4/vpxUA8g70d6OJYRkZzYGY2XixnE+yFkKtYSHJjSgAZDwJgRdRvcqOPGpPHbyylOx9U8TqEwsAGo+NLLzEl+F+6e1eIlt2pCKhBfEaCHjo+2mljgN9mvWdy2GJ4qkV08XhxZ9l5bB6KItiq52QSpMItTyvRt64sBhIX+sv0pLYWsOStyzWz6I/h/XHlROzjOTWGojxVfphT2szIieQlcEWT7uyclg1hnMRTOfnknJ1LVYU0qxI3YTU+TDh4ZJXlaF+GLaPMAa8t/G46mVrDUsuhyUSU6rCVQe6bB5NFZrXe8UYxHieftST1lhLj9PFrxX+d1NqEiwZZiyiZO7vkZFN2NyY+UnJfHKfoNr5DryPfs0cnnQ+TLjWRjEurJZcAz5wwFAxK9h08KM8x6s0xbXCFiBkLxhiIDGjUhQ50NPbveTay9MUOiNGxlZkBOch4GH6kZmTim2ZjZ8gBkmEGReUNaG7Z0N+1k2UtzSeJSvwqXCWAHqriBfQ52fdJ/Tp6KHMxXyAGG+639Scw/z3N8MxBD6Xvx1/zvs4pLv1ZXh+Fm3jjXjCT2ebhZmGvgBzAkLd5wwAR/wEHyw2i1tGCSkMk5bFGlnmQJfMoykFAYnqNrvNh/9MhJutkL+mdKKB5JXFp4SxVnl1WLhIvRsfw7wcBjAe8P5G5RJBfIAYP3YT1C7bvyCX15cFY2Tdb+pKYhOfXZ6QLOgbftZ9Yl5mmxSUpPvnCTKWb+53SR/vdUv/rksZFs1y2PI8Er1yWIgGuwJdy0PM24Ns7xVaKnsl0nNZT+G9pfNoVJDxY37WLd3umvfRx4/dZFrjqwZD+nS+NP1kNy0VJTdLHxvd72SjoSatkbvzpZMYD+rcszoLVYrPzx9DRTAU40FZ31q5Ewukc0vWsjKPRDqPpgSh90oR/Syq2VWwaVBhZ8V1nCyr7pufKAr/rTZFMtjFv1nws0xhPOC97ve8191d5lfg/c0+7288wrjznQKjApAo3oWriZLrI+t+w3sF7ZyXwAeIL95f8Umsj6z7vcwJrxpXS9/TQ6TI+I6S25csVFnKxwIAyMQhNCw6gpd/IdKdXhq//M/XrLhlq08tiImz5xCXUiUzDlBDYiDgQfzq9IWpMGyljb4WGUfHq+TOfPclI1Gs2WTxC4BqaP2FpCu1+tHoEBvlTw4a6AM4wJvuAT9DAlAKQgpGDOYtZOM+AICUdDMbLgu8ofvniSI/Vx/AAe91HwFIkPFzdDrD6YaC9zf7iMYxRtkWRHQDP2bbII7Xvr+MH/NedxdidFOFL2eB4bJ+KnT/POGnna8gan8uc0lstW+ttGFJd3rD+OXpUHWTqPR2b/UOY5wdI4oU9wL3qkT2nJQYvzq9w1zPWceMg/jo9AMTPiiljb4WeLuJBKtOvLKhrrN5JEXUdiIXsvJ7Qg+R8jPILKgpJicsdQmCjAHAqNF0ax2rOz0yHgL4TtFYfQC7ELSLbAze605+mo2BDAAEkHFVg5mfXugx3X1nLPmY7p8/4L3uDdT9XTMe8LPo9aIUOUtpKWxyQ7XOdOIyRfQ0hHB2DYQyWyK93UuIs7rOunZIYnK9V4brKuFKl1pZedMSmyE5OSwG6AVsOP/lWNvpke6NThQ5rPUy8U+piNiqgmzB1HlYHKzyGVUzLKpLrZTII1EeONCGFsSZeIyaOn8uiQ1UTMdFamR8JyVHUBsc8na8flzZPBrBvwI3oGwPcwoRlctVmjis3Q9EMVxSiu6NThT9rldm5VcyLLI9WpZS0oFOCqUrgp4gBJdId3opEWo763JJzH6Slw4E5KLBVjnQ516nMkeKXpTJH6C7Z0OpsjIZtjEaHTq/yxfiTtmWyPQQKUS0A6dPYny87vSlA/ps9KWS8kMrClVWO7FAXW5JJQe6yjyaTG9OjisESWwdUgEhxXkkRSgttcLljZRcHk2MTmeL7p8/ML2DLg99QZ++q2SscyN0E24alyFERyq5VAkUKZLEigtVVjYsCnNLSn+AFcphLeiCOEOQxAqp0YI4KftCpaVWFkvHrKbKa2fGmPRooc9Gu+4Zl6shtKWvvDc6gXvGZQgR3Sx7+tIB3T0b6pTEKhsWZXJYxTwSFXk0beu9EiSxJciGopZxoM+NkyVS48yNebV0zMqXy+fRXJSEoc9Gu8jYvs9lUufqjqxRmUL3RicQ0QcwUzF9HdaNyhSdklj1EwvmS9xLXS+TR6JAwmpj75UgiRUgV/gwXRVeWYiKUitSn1m5lsWzWdV0//wxJhFEQ4l7qWAIopuqfBB092yId6MPrJ7GGM/xs59/4IJRueDtSI0firMns4UqpQwLRAXNt5Dqhind6Q1r9mhpbwviIIldUKcFceUrVJRaqSaDTZANHBDzLYvp3ugQIrppdDFmTpHxF/jZzz/IZSxl0EOk9NloF+YN5hBEO/TZaJfupC5JcnlWfqYmK39SqDIGZA3LeZSgjpWTzSOpETjQNhlsliCJzVC3BXHl8Wr4WSrKYBeXyefRXAlooLtnw1wauwniROKeVThE1PmA7p8/1rkA073RId0b/Rq6DcyskawYeGASuj8+Vl2oUsqw1GpZXCePpEYezarSMW0gSGI5dVsQV6Vey+Ian1mpPJr+siKDdP88oU/PbyLjyQlGSZ8PzC6+Pbo3Kh1OrIILA5NlO0pPZcQJGA/x81/8WreRVIbiQpXla4UtQISvwBIToXV1lpaT3u4l8cvTQ8lr6+8YzjtDitaU85Bgkqcz1wmvPEKUN/CZeEwRrkmNk0NAHH992r/YHHSiIbH6Z6KCzTOkZ4s/JAxBFeeb0V/K9qG4MtxDpPyUv0CHflX96ugYGMkMC4AOISR+19mau05OQwkA8NNoG0IMAL4BUDl5kTmFwAnGeA0guQzftrf20v3xMTA+BrDLTzsDCNoG8W+RYQtEq0/ozCkIQwg6QZa9xs/+x/GlIZF4TxkN0ZH8PrH8Q6SHSHkPO2pKEYmBkopwgUAgwHvdLWQcAxxDLBb3FCcQUeqU47oEfBDHODuLcX7en/sHQWkT348p/j+wpbQ5d4S+NwAAAABJRU5ErkJggg==;" vertex="1" parent="1">
          <mxGeometry x="380" y="650" width="127.44" height="70" as="geometry" />
        </mxCell>
        <mxCell id="A2xlnPnC4mBpnPeIcrtY-18" value="" style="shape=image;verticalLabelPosition=bottom;labelBackgroundColor=default;verticalAlign=top;aspect=fixed;imageAspect=0;image=data:image/png,iVBORw0KGgoAAAANSUhEUgAAAZYAAADfCAYAAADV2PWGAAAACXBIWXMAAAsTAAALEwEAmpwYAAAgAElEQVR4nO2dTW8bV5rv/88pUtF094WL9/bmbtLsD9BoZW/A9LJhOJG22UTeNOA4RuxPYOcTOIFHFtAbyauZXkm2753MLuVFZxs1MLMOG9nd7hlVDyaObIr13AWLEkkVyapT561OnR+QwJZZdQ5L5HnO+T9vQCAQCAQCCqFrL0+PAMS2J6ICwvh5+uEvD23Poww+PXcGhv/1Ye+O7XmsIj467XOEAxtj/5//t4Pr7/5kY+h6dPCQfj86sT2NqvBedwuEJ7bnIY94QZ++/dL2LOrQIc7+wiS2bU9EBYwIAA4tT2Mt8au/DpjhxTMHAAIQH50+THd6qe25LCXKtgExMD3s++MfcP1tA40KAIxoG0DjDAsYDwAMbE9DniwG0GjDIiDEse1JKGQQH526fwrIxK7tKSgnGjttKBniIxvjXj9rqFEBAOIbtqcgBaGZ875ki/c3+7YnUQeR3u4lANzdaVbF8QUOAJhE0z/4V8hE5Ox7yjcbAxtjf/zmjzaGVQNj0LQFjve6WwD6tudRmyzbtT2FOggAIM5e2J6IKlxe4AAgPjr144O/AGUOS3ud8cDGsO+Pf2j2iQVo4ALHu7ZnoISmnhZzxOT/4tDuNNTh9AIHAFE2sD0FTcTxq9OB7UkUkpGVz0TjjQrQwAWOrEieymEM+Elzg3smhuUcJ/BHDnN3gYM9rd8ImZtG05b02GgZbEqDFjhvZLAp73V3bU9BFgEA6U4v9UkOQ5Y5eWqxqfWbwEXfUfzqrwNYWGy8kMGmNGaB80QGu6Sxm1Bx8aeME3vTUAuTo6eCBgQW1MS9qLxMDGwM641RmeDm9+kKnshgUxp0Wlzk0rAgOoY/clh/8+vTvu1JXIFpYHsK2nHMeAYZTAENWOC8k8GmNOa0OM+FYcmT25qXDLWEzZF7cpiLUpFqXIrKi49O+7AgPXolg01xfoHzTgab0shTmJj9C43Hz21NRDWuOcltaf2mcSoqL7ITZuydUZng1PfpKuTMhkYpDTgtFiHm/xr5lIW/5ZTen/lRNqcEDkXl2XnmXslgUxxe4HgffQBbtuehjY2ocWvHnGHJ5bDEzlSUE6PjTgQWC/9lsAscCTtmC7vYa9nffT2xuLvAjbtuzksVJD6xPYWqiMUfEPwJO87IjeN7fHTaB3u8o1rABV9SLj0a32Hf+ulr00Oaw9UFjuDmvFTB2HL1tLiMK4YF45CFrxxLWr9F7IcdW5Ieb/30rzaGNYODC5z3MtiE2NnT4hKuGBbf5DAX9H5G5PeOqgjLYcc2pMdr2d9x66d/MT2sSdxb4HyXwaY0TEq/emKBX3KYI3r/wPYETGMz7NiW9Oi1DHaBY4bFdxlsSoZt106Lqyg0LD7JYbb1/vjV39z6IhrCqgxpSXr0Wga7gG+4ssC1RAabEqPTacx7LTQsnslhdvV+S5V1HcCiDGnev9ICGWyKOwtcW2SwKR1qzOms+MQCgDh7bXIiWons9ZSwfWKyiiUZ0kaYcTtksBxXFri2yGBTXAlGKsFSw4LMIznMUha+r029ymLDqNoLM26DDJbjgN7fMhlsSsxPOwPbkyjDUsOS7vSGIG9qh9nJwve3qVdZzMuQFsKMWySDTbEvh2XdgdXxbSGaIa0vP7EAoMyb6LAYHfO7G9fqlVnBcNixjZYJ199+a3pI+9he4Nomg13SiPe90rBAiMTMNAxguPmXrcq6rmEy7Dh/5n1T401plX/lEmsLHO+jD27td6sRcthKw5Le7iUEDA3NRStsuhxF+7LtCzEadmwtzLhVMtgUewtcW2WwKbZPiyVYfWIBAH9aFse5M90QralmvA5jYcc2Khzc+ulrXMv+y/SwbmBrgWuvDDbF+fe/3rAI4U8pfWFODrMR8uosBsKO8yAB7eMs0lIZbIrxBa7lMtgU5+WwtYYlvd1L4EnLYlPhr7ZCXl3FyHPvBBnMAuYXuLbLYFOEGNiewirWn1gAEGe+dJY0E/7anqZeZdH/3C1UOGi1DDbFtBwWZLAcdvo5lDIsXslhBsJfW9XUqyyan7uNZMyWy2BTjC1wQQabo89/6DqbIFrKsPgkh+kOf21bU6+y6HzutioctFwGm2JODgsy2Dwjd6PDyp1Y4I8cpj38NYQZF6L1uVuocHD97bdBBptiSu8PMtg8xM4qI6UNi0dymNbw11Y29SqHtuduo8LBxz/+s+khHUa/3h9ksAIYA97f7NueRhHlDcs5TuCJHKYrC99WyGtj0BB2bOuZX3/7J9NDukxfuxwWZLBi2G6n1mWUNizpTi8lT5IltdWTshTy2hS0ONgtPPPrb7/F++c/mB7WbXTLYUEGW4aT9QjLn1gAQHhTSr+/+fVpX/ld29vUqyzqw44tPPMggxWgUe8PMtgKGAPbLQyKqGZYPJLDNkfq5bBWN/Uqi+KwYxvPPMhgBejU+4MMtpr3uru2p7BIJcOStyz2okeLaodv25t6lUVl2LGNZx5ksBVkmjq1BhlsHc7JYdVOLABoPPYi7BiqZRmDdciajNKwYwthxkEGW4EGOYyfIA4y2BoclMMqGxYgOoYncphKWSbIYKVRFnZsI8w4yGAr0LHAbXTDhq0MjslhlQ2LT3KYKlkmNPWqiIKwYxvPPMhgJVC9wDEHw1IOp+QwiRMLQPAj7FiZLBOy7Suh5HRn4ZkHGawUyhY4foIYRE4tmM7C2HJJDpMyLBh7E3asSJYJ1YwrUt+/xTRQM5XyBBmsBCrlsCCDVSHGRuTM85IyLLkclqidiiUUyDKhqZcENf1bpn1aQQargCo5LMhg1TDdfn0FcicW+COH1V2gQlMvOer4t/Jn3lc2mRIEGawSteWrIINJ4JAcJm1YPJLD6skyoamXFLX8WxaeeZDBKqBCDgsymAwxOh0nWnZIGxav5LBIPrFLW90x/5H2b5lupBZkMAnqymFBBpOjQ07IYfInFngkh0nmQ+Qhr32lk2kTnFXeXdlopBZkMCnqbbiCDCZHhm0X5LBahgVjb3q0bEnJYVHItq+DlEG3EGYcZDAJauj9/NSd6KYG4oQcVsuwpDu9IfyQw2J0qu+CbWR+e4aEf8usfyXIYNLIh79S8FvWQtivsl7vxAKAOHutYiLWqdj8KzT1UkSn2jM0Hdp9603oay+NbPgruZVF3kCs+1lqGxZkfshhXPVLEJp6qaFCHpGN0O5bZ1+bHM4vJOSwXAaz7iNoOLH2jp5rqG1Y0p3eCQFDBXOxTbUopdDUSwmVDLrhMOPfjP4tyGD1qK73BxlMDZblsPonFgDgzI9S+hV2z6GasTLivK/KWkyHGX/83yEarDZVw1+DDKYKq3KYGsMiRKLkPpYpayxsZH57TYm+KjbCjIMMpoAK4a9BBlOKVTlMiWFJb/cS+NGjpVyUUiYG2mfSIkpF1xkOMw4ymDLKy2FBBlOLRTlMzYkFAPkih5UojsgihBkrpoRBN7voBBlMIWUXuCCDqcba81RmWCD8iA4Dr17AbEgyrWBN2DHDbCZ2kMGUslbvz2WbIIOppW9LDlNmWHyRw5jW5EmEpl56WBE4kfu0jBFkMOWs1/uJdo3MpG0IMbAyrMqbeSKHrQk7DjqwDlaGHWdi19xMgOtn35ocrh2sk8MIIcpSC2xFDlNqWLyRw1Zk4YemXtpYGnZsOrT74zf/ZHK4trB045CfZvrGZtIutnh/s296UKWGxR85rNg5H5p6aaYg7Dg3Nn1TU3h//AN+8+7fTQ3XJpbLYUEG00sm3xZEFrUnFgDEXpTS729+fdq/8lPDkkzbKAw7LpHjopJbb4LTXhvL5LAgg+mF2PjzVW5YIPzoLLk5uiqHhWx77VwJOzZdQTrIYFq5IocFGcwAKjp6VkS9YTnHCXyQwxYWNNOSTGuZCTs2XUE6yGDauSqHBRnMDHU7elZEuWFJd3qpJ3LY/O7ZsCTTWmbDjg1XkA4ymAEWw1+DDGYKoyd/9ScWAMg40XJf08xk4YemXmaYC5wwXEE6yGAm4As5LMhgBjEsh+kxLIiO4YEclonoBhCaehnmInDCpE8ryGDGuMwGDzKYWQzKYVoMS7rTSwGc6Li3SSjDZMccmnoZZXOUbZv2aQUZzCBTOSzIYKYxprpoOrEANB77k4UfmnoZhSE+Mh5mHGqDmYP4RpDBLGBQDuvou3V0DOBA3/0NkWWDEGZsnC1mEYPMDPb++AdcP/uTmcECAGOAiAC2PZEWshFtA+ND3cNoO7Hkclii6/6mYBKPEHZWpolB5ipIB6NiAQ4+SytUaQVeA22GBQAIXoQdBzzn4zd/tD2FQMAMjC0TcphWw4KxH1n4AX8JMligZcQTOUwvWg2LL3JYwF+CUQm0DqHfZ6z3xIIghwXcJshggdaRYVu3HKbdsAQ5LOAqQQYLtJQYnY7W4BjthiXIYQFXCUYl0Fo6pDU6TP+JBQBx9trEOIErDG1PwGU8kMGGtifQSpibL+9Pq4powohhQRbkMBsQ8AU8qNmmA09ksAQelE5qFIQEzIe2p6GA5R09FWDEsKQ7vSEofAGMM8YxceZDaR3leGBUgIyfAxzUAJMwnuN8nMCHDduyjp4qbq3rxotQFqLDTELML9KdXgohjm3PxUU8kMFSun+eIEP4/ZpERAk9ROrJRlmbn8WYYYEQibGxAgDRMQCkt3sJfNhdKcQPGYxeAwDdP08Qfr+mOKG7Z0MAQAYfNsra5DBjhiW93UsoOBvNMb7cyXrS0VMZzTcqAMCXJxU/ds9N4FJ2jCI/Toqa5DBzJxYACAucES5ksCkiBE/M4oEMBogoufizH7tn98kujXl+chlam4s6tMhhZg1L0PvNkMtgF5zjBEEuAeCLDDYjyQD+7J7dJs1lxxk8CDvWJIcZNSxB7zfEeN6hm+700iCHTfDAqACzkgy82j07DF2NvvMlcGLa0VPlLVXfcB0h/FUvBCRzMtiUjBPzs3GPWz/9q+0p1GdGkrnEi92zw1x95v4ETrByOcy4YQlymHaWGO7oGF58CeS5lv0dt376F9vTqEuBJAN/ds+uMuvTmoW88G/1+Q9dpbXDjBuWIIdppltcly0/xbQ6eujWTz70tS+QZADg/Dz40XRBSOZ8WrNwlhidiy5GaqPDzJ9YEOQwXRCQpL/rDZf++3jc6ufuhQxWIMkAgEdJey6y/FTybuzHSZFYaY8WK4YlyGHaWGM42hs95IkMtlySAULYsS46y6uz5wZ96b83BsaA9zf7qm5nx7CE8Fc9LJHBprS5hYEfMthCmPEiIexYB0P6/Wj1SdAXg85jZXKYFcMSwl/Vs04Gu3xdO5+7JzLYyt9dCDvWQrL2FT6cWCZ8pOpGdk4sQMgGV085/0kLO3p6I4NlZRawEHasFFq/EaN7oxP4YNAZA1Uti+0ZliCHqWWNDDaljXLY9bff2p6CCoaFYcaLhLBjtbwdJ+Ve6IlBf6+7q+I21gxLCH9VR1kZ7PL17ZLDPPGvJKVeFcKO1UGYlMgvgz8GXYkcZu/EghD+qpBqz7FlcpgXMlgJSQYIYcdK4QrfK18MuiI5zKphCdngiigpg01pkxx266evcS37L9vTqE9pSQb+RCnZZlVo9wJeGXQFcphVwxLksPpUlcEur2uHHOaFDFZFkgFC2LEaVod2F+GPQa8th1k+sbRngdOInJw4bkeSqhcy2KrM7wJC2LESikvnrGI0OlQ/DQswturKYdYNS9v0fuVUlMGmpDu9ITyXw7yRwVZkfi/HkyglWxRWkF6NN1n4QIyNqFaypHXD0ia9XzWyMtjF9ZxV35U1CC9ksDKZ30X4E6Vkg+IK0mUYsx/fKRK1SulbNyxAkMNqUC+qLvP7tOiJDJZIXeVLlJId6hjlRNUkrFJTDnPCsAQ5TBJJGWxKutMbkqdavDcyWMkw4yuX+RSlZB7pU4c/zb8Qo9OR7tHihGEJclh16spgF3jawsATGaxamPEi/kQpmaVCmHEx7Md3qkPScpgThgUIclh1FD0vIRIl93GM62896G1fNcx4kRB2XJ1VTb3K4ot/K8O2rBzmjGFpS/irMrpqnld6u5f4Joddf/st3j//wfY0VFBr8xDCjqWov2Hzx78lLYc5Y1jaEP6qDMaJEhns4n5+nRY//vGfbU9BDVJhxouEsONKKHjmXvm3hFzLYmcMC+B/+KsqiBT7RTzr6OmFDCYbZryIL7KMGdQ8c8An/5aUn8Upw4LMrwVOG4pksCnp7V4CP47uPslgiZK7+CPLmCBRdid//FsxP+0Mql7klGFJd3onvun9ylEtg+WQJ9Fh3shgmZrIIq9kGd0oeuaAZ/4tCTnMKcMCwNvwV1Uol8GmeCKHeSKDQTrzuwh/ZBmtKH3mADzyb1WWw9wzLJ6GvypDsQw2xQc5zBsZTHW9KX9kGY2QeiPgj3+rshzmnGHxYYHThiYZbErT5TBvZLAqDaZK4JUso43qRSfX4VEWfmU5zDnDAjR/gdMFQXPUXMPlMF9ksPqZ30V4I8voQcszB0DeyJCVerQ4aViavsBpQ3PRyCafFr2RwWQaTJXBH1lGB3qeOQBwlmi5r3n6VeQwJw1Lkxc4jQzTnZ726B5qaLKkNzJYjQKIKwlhx6vQpwS8G/tj0IUYlH6pvlnUI8hh8xhb8EUzK017I4NJNJgqQwg7XoGmZw541fwLAJeWw5w1LEEOW8BU75RzNG5n65EMJt9gqgwh7LiIodZnDvj03Ld4f7Nf5oXOGpYgh81hRAYDJi0MmiaH+SODkd7gjBB2XESifQSfnnuW7ZZ5mbOGBWiu3q8a488h48ToeDXxRgbTEPI6Swg7LkCykVqlIXx67sQ3yrzMacPSVL1fOcZbCEfHaMhp0SMZTF/I6xwh7HiOOo3UKuHJc2cMyvRocduwNFDv14AxGWxK3tGzEY7eW2+86GsP6Ax5nSWEHV9St5FaFXx67u91d9e9xGnD0kS9XzW23j+Nx42Iyrt15kkLYp0hr7OEsONZzH23/Hrua6PDnDYsABqn9yvHWnSc+w7H34z+zR8ZTGPI6ywh7HgGJY3UykEPkYLZj35TJeQw9w1Lg/R+DQzz6Djj5HKYlbHL8vF/+xINpjnMeBF/wl/roK6pV2koMTueRtbIYc4blibp/aphYXdhJ7gtQ3okg5k9HfoU/ipPYnzE0ejQ+Jj6WCmHOW9YgObo/aoRiqvcVmbsblSeVzKYKf9Kjlfhr7IobOpVFq+y8NfIYY0wLE3Q+zVgTQab4rIc5pEMZijMeBFPwl/lMCs9zjL2xM8CABvR0lL6jTAsLi9wurAtg01xVQ7zRgYjJEbCjBfxKfy1MporHKwmsTi2Wkgs7SzZCMMCuLvA6cK6DDbFQTnMKxnMVqSQX+GvFTETgVeEV82/GFvL5LDGGBYXFziNWJfBprh4Wrz1xpPTCgB0ycoi1+qwYyvS4yzm/TuaiJfJYY0xLC4ucLpwRQab4tpp8daZN9n2FkJeZ2hn2LGZCger8EmGFKKwdlhjDAvg3gKnC2dksCljd1oYvD/+Ab959++2p6GKxOro7Qw7tu8890mGzLBdJIc1yrC0RA5zRgabku70hrC9COZ4JYMZqKy7cvg2hh0bqnCwCs9kyBidztbiDxtlWNogh7kmg00hzuzv9AB8/OafbE9BHcYq666iVWHH+pt6lcUnGbJDV6LDGmVYAHcWOF04J4NNMV66/ypeyWAmK+uuol21+BLbE7jAJxkywxUHfuMMiwsLnEack8GmpDu9oe3ju1cymMnKuqs4d+HUZAjL0uMsuQzpjRzGTzuD2R80zrC4sMDpwlUZbApldr+YXslgBivrrsKrMiPrcEJ6nCHzSIYUNHdqaZxhAewvcLpwVgabIkRia2ivZDDbYcaL+KT3L8MV6XGexPYEFDLnZ2mkYbG5wGnEWRlsSnq7l5ClKCLPZLDE9gTmaMeJxTnj6VUW/oIc1kjDYnOB04XrMtgFnFk5VXlTGwxwSusHALo38ievYhnkqLOc3DN40szIYY00LAAAz1oWC27IB8zCafH98Q+4fvYn08PqwzWtH4BHZUaKGFrPtl8GZ4ntKSjkQg5rrmGx1rJXC2l6u9eI95PLdUZ3t14ZFTe1ft/DjhPbE1jKu3EjvvcluZDDGmtYbCxwumDRrNpBZFgO+/jNH00OpxdXAzR8Dju20NSrLN5F5QkxABpsWADzC5wuGiODTTF4WvROBrNeWbcY7xa4S+w19SqLV1F5/AnQcMPiiRzWGBlsisnToldGxWWtH/BsgZtitalXOXzKwgf6/IfuVqMNiw9yWNNksCmmToteyWAua/2Ap2HH9otOrsO7YqAj2m60YQGaL4c1TgabYuC06J0M5rDWD3gaduyo9HgVj7LwiW+Q7TnUJT46jbFZ3B6zCaS/6w1tz0GW+OvTvu4xTof/W/cQxnBaBsvhgzjG2Vljv0+LNOGZA/4990AgEAgEAoFAIBAIBAKBQCAQCAQCgUAgEAgEAoFAIBAIBAKBQCAQCAQCgUAgEAgEAoFAIBAIBAKBQCAQCAQCgUAgEAgEAoFAIBAIBAKBQCAQCAQCgUAgEAgEAoFAIBAIBAKBQCAQCAQCgUAgEAgEAoFAIBBQAtmeQCAQaDZ8gBijbh+jbAssYhDHEOJXFy/Isr+AKYXIhuiIIf1+dGJxuqXhA8Q424zBoy0w4rl/JKQYU4pOZ0h3z4Z2ZuguFL88/Z6BfsXr0r9/2OvJDnrt5ek3AAZVryNkD9MP/9eXMmPGr/62zRwd1RkzfvXXAXPnQGZ8APj7h71fF87t5X8eM+i3svetwBBASpz9BYITdKKT9He9YZ0b5s/1iZLZKeZtFzfPar6/KfyP3UMQPpG49Cu6N3ogNeY++si630tcmuLd6Nf0EKnMuGXg/c4AGW0DuAFgq9rFnELQCRjPIUYJ3cVQxxyrwgeI8SbahohuIOMBqqyLhASMP4OyBP8wTuiO3LPnp9E2hJD7PhGG9OnoZuUxDxDjp+4RuLIdKCbjOx1w9gIkPq94aRy/Oh2kt3tJ1THjo9OYJYwKADDERwCkDAsy2pY6n3XF8cJP+lLjr4BB13Tct4A+ADAJgPE5RsC1l6cJYfw8/fCXh1J3PEeMyMjc7UK4IXnlRwCkDAuy7kByzBgb0TYwPpS8vpDJDn7jc4yzB8goXn/FEohiMAYABsi64GdIwHhO90aHquZaBX4WbQPic7zJ16WMJW6Svx8Wn+ONAO/hEBk/p/vnSaX7CMSQXQtkpn2AGD92ExDUbGwZD+n+eSIgriyc5ciybanrorHcdRO24qNTqQ80k5BZGIZ1d/QNYMCIDq69PP0+fvm3XduTcRF+2hlA3vD3+Q/dajv6KXInpAlC6vNeCB8g5v2NR/ix8z0yfgyqYVQKB8AAwAHvdb/nve6u0nsvGzJ/T/yPnVOwOMrnoJJdCPrG5HuqinKjAvqCPht9CQAiP3VUPrYxiY/kBhd1DEssY5jiV38dQGJhIM5eVL2mwfQvDMzXp33bk3EKgTqfWWBEla/nffRrLXYZtvkJahsA3ut+rs2gXKWPqYHZ13cK5v3OAG+63xl+T9/pfE9V0WJU7r17PP2bAADi7LnEnfrxq9NB1YsYJGmQJmQiqr4Ty8Su1GCyp7lm0+cRvov/76ncLttLqN7un1jiMystg02J0elI/w75ADE/634D4EsDi+8ifWTd73l/45HKm+bv6Qky+gZmpOdZtnS8Jxl0GxUgNyw15LBBlZfHr/5Wb+cHgDJsV5XDpGUwCR+SJ8Q8xjfBuOQnh6rO6Ss3waDy6YG59ncFovpJCcjf85vudxrkoWpk/JifdZUEhsy8Jzl/lyoUvicZTBgVYGpYznECOTms2oKdyX3QF4jRKf9Fj49OtyCxO2GBpOo1njExLm2XxcZdFZ9Z4L2KOjvVO9nnVPbR8B62kHVt7OiLYTzgZxtHdWQ9J9/TXlc6ulR6WENGBcgNS7rTSyX9CYPNCguPvF9mgSqBAyLblRlCMGTkQd+I+R0qh2h7hYCazyzK34efRmqMGRDngQflxt1HH+gewZUFeArzNjbkdvnOvidg1+TJxaRRAaYnFgDIOJG5/eao3CKfO9CVaLVMovROjOWiY9IWy2DzELbil/9hVz6wRG0H+tzNKshhVCvAZZ6SclieM+POrv4qlRdi598T4wE/e8/Md8ugUQFmDQuiY8jIYSh5CpF1oBcTlwkciI9O++Dq+jgLtNFpvxSGeCQb5t1o6jvQ59koeRKRz5kpouT3s/MEri7AU6ouxOPuMZx/T5n2xGje6x6YNCrAjGFJd3opAJlSC4Myi46kA305ZeSwSC7XRjDaFGZchhiRnKTYaOrkkRTeb/1Ju2bOTBFr82h4r/s5oMT/qR/OHpUJ2+W9ziN1i6kGmFMwHtK90R2tw0x8Obtq7lbOqABzJxaAIJm3sWbRkc0jWUUZf03p09Qi56133F9B+lk2FH6CWHlUFGNrrRxGtKt0TGBlHk2+SDdJ6ozBGyslscl7oscaxh6COAFxAnCdemdDEN2cJhPqwpZRAYDO3N/G4hARKjuU1pZayYRcOZXV9FeVlYmPTvsypWOI+UW68z+11VhSDXH2HEIcrnlZjCzbruKbKmAQH53G+clWGdRFYf00FdSqE7ahKBpsnjy3ZEWZD7UyWH7PFXk04+5jkMpNH58A9BqMIShLAeqD8FswSUVnFg/B2/y0M1haLmXyntRAnGCML/CLX5zQnfTKZ5/3ulvIeBuCPkG59/cVfvbzx0X3UolNowIsGJZ0p5dee3maoPqCvLVq0VEWDbbIJI8mKfy3aDwAour3JGqaf6Vsvs1x/PL0hFF943DBJMy7zFilcbZkDvM2SEPx7w59giXPUIMMlt94EjiwWJRy4txWJPflC/Cq2lh5aZNHUPEeI3qEgueo8D0NkfGdy/dTbAfo3ugEExfCY37aeQxBxQmQzCmEuEOfvjuWcGVXwrZRARakMEBaDltaakU2j6QMq4vmbBgAAA1VSURBVPw2jEjuw9X1VwZLP+x9SZx9JX0DztqTMEk1s+2Xka0oD1O3dMwqivJoVAQnMKcg2qFPz2+uK7hI90aHdG/0a2T8Rf1xl0TZjbuPa9+bOMHPfv5B1QKSdP/8MYAPgIVqzcQJos4HE6OiFxeMClBgWDCWy8JfWmolqpadX5HCPJo8mKDyuAQkzu6gVZEJeV1XVVltx8nzSHRFwa3ILVGSFLmMonvXKy8yMSo3qy6YdP/8sRLjsrFx1TdUV0pk/Bn/8IsdWamK7o1OIKKbuDiW0Bf06flNQz1b+nDAqAAFhiXd6Q0hIXcsK7VSU9dfS2EejXwFZe+TItOd3pAWd1QlySJxTfF03ERlHkkRBbklvNfVdrKfDDC/w1cyHtHDXAqqfun988eom4S84DtSICUOEUXbdf0fdPdsiCy7g4xv1lmc7VHPqACLzvvpbTl7zSQGFe8VL2rw8dFpnyXySKpQHDgguTB4LIO5itJS/YQ0vf3L+nKDDgf6PJ9gMRKLMdDez3W2R0v98Q5r908ZjR5go/sRZE+Hi76j+lLiF6pOFnR/3DRfbU59owIsMSwQIgFLHJMnuSXJxd9lHejVuBKtxDLVaBm1uyk2gbzRWt/2PKYwInU1kxhDoF5yqzYH+jzxlagm1TkzRZD45LL5Fw9qdSYX0RfAqN50HiLlp/zVUod3Gd6LBkC+iBP9VqbZVc7QVqMxd1BjVIAiHwuAGj1a5r4c0g70qszk0eQVlCvvgIikWgc0jxqN1sQ4+4vKqTiJjjySIoQYTP+opIJyGWbzaIh+tebVyyEkynwG5+c1czlE/+KP9dSRpN48PCDLElW3KjQsgHSPlotSK/HRaR+SLYirMpe8J1tBeSwSRdNxlkluTyS/OxSiTlJYM9Avg+XjzPgHVJeOWc5sj5Y6i7CyyhS5jCX/ucqz63ODKR9wQa1q6leMoAMVzeGAFYaldsviaDyQul4uyPuiZbF075WdnreLZnx0Gscv/+MBR6hXkO9czunfFLQ70OcGw4D3NydjmZDBpnTok9qLx7hW1vlVCH+WvjajHgBgo9uvNYeOGNa63g/6eG9DiTS91LDUbVksK4PJnpQQjbdlS8c0ufcKk3h07eUpr/qPI5wyRN0ig14b3wmSzbVkk2p5vC1dQZmQQCa6L8M2NjfrGZZOp/q4q2CWvx/xJFIx41rviX4vF93mHczb/Kxbe6Oz/MSCWi2LtyEjgzFOZPMsMhHdkK2gHHqvrKfJxrc8UnkkKd6+uwO5k/ZHNWSwFwDLJTNnI9kxA22A8WWZQp+rWGlYZOUwZn4scx1R9rxOHk1oQawPEaF+QpvDyDvQ6TU9RAqS8BMwBiCW2x1SdIxMMgKOa1Yyjsaqk0fb15LBbWJwvQ6Xqw2LZMtigOTKVecOdOLstcTVMVomg5mCBQ69D8WWPjnwZHHPJB3aTDLjntDds2Eerlz9+1m3XM1IcWmfOhUdKJcDBdVKarzwdwUmMAZ1mpCtNCw1erTIcKnhC3MRWkEGW4/vpxUA8g70d6OJYRkZzYGY2XixnE+yFkKtYSHJjSgAZDwJgRdRvcqOPGpPHbyylOx9U8TqEwsAGo+NLLzEl+F+6e1eIlt2pCKhBfEaCHjo+2mljgN9mvWdy2GJ4qkV08XhxZ9l5bB6KItiq52QSpMItTyvRt64sBhIX+sv0pLYWsOStyzWz6I/h/XHlROzjOTWGojxVfphT2szIieQlcEWT7uyclg1hnMRTOfnknJ1LVYU0qxI3YTU+TDh4ZJXlaF+GLaPMAa8t/G46mVrDUsuhyUSU6rCVQe6bB5NFZrXe8UYxHieftST1lhLj9PFrxX+d1NqEiwZZiyiZO7vkZFN2NyY+UnJfHKfoNr5DryPfs0cnnQ+TLjWRjEurJZcAz5wwFAxK9h08KM8x6s0xbXCFiBkLxhiIDGjUhQ50NPbveTay9MUOiNGxlZkBOch4GH6kZmTim2ZjZ8gBkmEGReUNaG7Z0N+1k2UtzSeJSvwqXCWAHqriBfQ52fdJ/Tp6KHMxXyAGG+639Scw/z3N8MxBD6Xvx1/zvs4pLv1ZXh+Fm3jjXjCT2ebhZmGvgBzAkLd5wwAR/wEHyw2i1tGCSkMk5bFGlnmQJfMoykFAYnqNrvNh/9MhJutkL+mdKKB5JXFp4SxVnl1WLhIvRsfw7wcBjAe8P5G5RJBfIAYP3YT1C7bvyCX15cFY2Tdb+pKYhOfXZ6QLOgbftZ9Yl5mmxSUpPvnCTKWb+53SR/vdUv/rksZFs1y2PI8Er1yWIgGuwJdy0PM24Ns7xVaKnsl0nNZT+G9pfNoVJDxY37WLd3umvfRx4/dZFrjqwZD+nS+NP1kNy0VJTdLHxvd72SjoSatkbvzpZMYD+rcszoLVYrPzx9DRTAU40FZ31q5Ewukc0vWsjKPRDqPpgSh90oR/Syq2VWwaVBhZ8V1nCyr7pufKAr/rTZFMtjFv1nws0xhPOC97ve8191d5lfg/c0+7288wrjznQKjApAo3oWriZLrI+t+w3sF7ZyXwAeIL95f8Umsj6z7vcwJrxpXS9/TQ6TI+I6S25csVFnKxwIAyMQhNCw6gpd/IdKdXhq//M/XrLhlq08tiImz5xCXUiUzDlBDYiDgQfzq9IWpMGyljb4WGUfHq+TOfPclI1Gs2WTxC4BqaP2FpCu1+tHoEBvlTw4a6AM4wJvuAT9DAlAKQgpGDOYtZOM+AICUdDMbLgu8ofvniSI/Vx/AAe91HwFIkPFzdDrD6YaC9zf7iMYxRtkWRHQDP2bbII7Xvr+MH/NedxdidFOFL2eB4bJ+KnT/POGnna8gan8uc0lstW+ttGFJd3rD+OXpUHWTqPR2b/UOY5wdI4oU9wL3qkT2nJQYvzq9w1zPWceMg/jo9AMTPiiljb4WeLuJBKtOvLKhrrN5JEXUdiIXsvJ7Qg+R8jPILKgpJicsdQmCjAHAqNF0ax2rOz0yHgL4TtFYfQC7ELSLbAze605+mo2BDAAEkHFVg5mfXugx3X1nLPmY7p8/4L3uDdT9XTMe8LPo9aIUOUtpKWxyQ7XOdOIyRfQ0hHB2DYQyWyK93UuIs7rOunZIYnK9V4brKuFKl1pZedMSmyE5OSwG6AVsOP/lWNvpke6NThQ5rPUy8U+piNiqgmzB1HlYHKzyGVUzLKpLrZTII1EeONCGFsSZeIyaOn8uiQ1UTMdFamR8JyVHUBsc8na8flzZPBrBvwI3oGwPcwoRlctVmjis3Q9EMVxSiu6NThT9rldm5VcyLLI9WpZS0oFOCqUrgp4gBJdId3opEWo763JJzH6Slw4E5KLBVjnQ516nMkeKXpTJH6C7Z0OpsjIZtjEaHTq/yxfiTtmWyPQQKUS0A6dPYny87vSlA/ps9KWS8kMrClVWO7FAXW5JJQe6yjyaTG9OjisESWwdUgEhxXkkRSgttcLljZRcHk2MTmeL7p8/ML2DLg99QZ++q2SscyN0E24alyFERyq5VAkUKZLEigtVVjYsCnNLSn+AFcphLeiCOEOQxAqp0YI4KftCpaVWFkvHrKbKa2fGmPRooc9Gu+4Zl6shtKWvvDc6gXvGZQgR3Sx7+tIB3T0b6pTEKhsWZXJYxTwSFXk0beu9EiSxJciGopZxoM+NkyVS48yNebV0zMqXy+fRXJSEoc9Gu8jYvs9lUufqjqxRmUL3RicQ0QcwUzF9HdaNyhSdklj1EwvmS9xLXS+TR6JAwmpj75UgiRUgV/gwXRVeWYiKUitSn1m5lsWzWdV0//wxJhFEQ4l7qWAIopuqfBB092yId6MPrJ7GGM/xs59/4IJRueDtSI0firMns4UqpQwLRAXNt5Dqhind6Q1r9mhpbwviIIldUKcFceUrVJRaqSaDTZANHBDzLYvp3ugQIrppdDFmTpHxF/jZzz/IZSxl0EOk9NloF+YN5hBEO/TZaJfupC5JcnlWfqYmK39SqDIGZA3LeZSgjpWTzSOpETjQNhlsliCJzVC3BXHl8Wr4WSrKYBeXyefRXAlooLtnw1wauwniROKeVThE1PmA7p8/1rkA073RId0b/Rq6DcyskawYeGASuj8+Vl2oUsqw1GpZXCePpEYezarSMW0gSGI5dVsQV6Vey+Ian1mpPJr+siKDdP88oU/PbyLjyQlGSZ8PzC6+Pbo3Kh1OrIILA5NlO0pPZcQJGA/x81/8WreRVIbiQpXla4UtQISvwBIToXV1lpaT3u4l8cvTQ8lr6+8YzjtDitaU85Bgkqcz1wmvPEKUN/CZeEwRrkmNk0NAHH992r/YHHSiIbH6Z6KCzTOkZ4s/JAxBFeeb0V/K9qG4MtxDpPyUv0CHflX96ugYGMkMC4AOISR+19mau05OQwkA8NNoG0IMAL4BUDl5kTmFwAnGeA0guQzftrf20v3xMTA+BrDLTzsDCNoG8W+RYQtEq0/ozCkIQwg6QZa9xs/+x/GlIZF4TxkN0ZH8PrH8Q6SHSHkPO2pKEYmBkopwgUAgwHvdLWQcAxxDLBb3FCcQUeqU47oEfBDHODuLcX7en/sHQWkT348p/j+wpbQ5d4S+NwAAAABJRU5ErkJggg==;" vertex="1" parent="1">
          <mxGeometry x="610" y="650" width="127.44" height="70" as="geometry" />
        </mxCell>
        <mxCell id="A2xlnPnC4mBpnPeIcrtY-19" value="" style="edgeStyle=orthogonalEdgeStyle;html=1;endArrow=block;elbow=vertical;startArrow=block;startFill=1;endFill=1;strokeColor=#545B64;rounded=0;" edge="1" parent="1" source="A2xlnPnC4mBpnPeIcrtY-16" target="A2xlnPnC4mBpnPeIcrtY-15">
          <mxGeometry width="100" relative="1" as="geometry">
            <mxPoint x="370" y="590" as="sourcePoint" />
            <mxPoint x="470" y="590" as="targetPoint" />
            <Array as="points">
              <mxPoint x="240" y="520" />
              <mxPoint x="610" y="520" />
            </Array>
          </mxGeometry>
        </mxCell>
        <mxCell id="A2xlnPnC4mBpnPeIcrtY-21" value="" style="edgeStyle=orthogonalEdgeStyle;html=1;endArrow=block;elbow=vertical;startArrow=block;startFill=1;endFill=1;strokeColor=#545B64;rounded=0;exitX=0.5;exitY=0;exitDx=0;exitDy=0;" edge="1" parent="1" source="A2xlnPnC4mBpnPeIcrtY-17">
          <mxGeometry width="100" relative="1" as="geometry">
            <mxPoint x="370" y="590" as="sourcePoint" />
            <mxPoint x="610" y="410" as="targetPoint" />
            <Array as="points">
              <mxPoint x="444" y="520" />
              <mxPoint x="611" y="520" />
            </Array>
          </mxGeometry>
        </mxCell>
        <mxCell id="A2xlnPnC4mBpnPeIcrtY-22" value="" style="edgeStyle=orthogonalEdgeStyle;html=1;endArrow=block;elbow=vertical;startArrow=block;startFill=1;endFill=1;strokeColor=#545B64;rounded=0;exitX=0.5;exitY=0;exitDx=0;exitDy=0;entryX=0.5;entryY=1;entryDx=0;entryDy=0;" edge="1" parent="1" source="A2xlnPnC4mBpnPeIcrtY-18" target="A2xlnPnC4mBpnPeIcrtY-15">
          <mxGeometry width="100" relative="1" as="geometry">
            <mxPoint x="370" y="590" as="sourcePoint" />
            <mxPoint x="470" y="590" as="targetPoint" />
            <Array as="points">
              <mxPoint x="674" y="520" />
              <mxPoint x="610" y="520" />
            </Array>
          </mxGeometry>
        </mxCell>
        <mxCell id="A2xlnPnC4mBpnPeIcrtY-23" value="GET /api/v3/user/{userId}" style="text;html=1;strokeColor=none;fillColor=none;align=center;verticalAlign=middle;whiteSpace=wrap;rounded=0;" vertex="1" parent="1">
          <mxGeometry x="160.57999999999998" y="720" width="146.28" height="30" as="geometry" />
        </mxCell>
        <mxCell id="A2xlnPnC4mBpnPeIcrtY-24" value="GET /api/v3/user/{userId}/payments" style="text;html=1;strokeColor=none;fillColor=none;align=center;verticalAlign=middle;whiteSpace=wrap;rounded=0;" vertex="1" parent="1">
          <mxGeometry x="580" y="720" width="209.42" height="30" as="geometry" />
        </mxCell>
        <mxCell id="A2xlnPnC4mBpnPeIcrtY-25" value="GET /api/v3/user/{userId}/reservations" style="text;html=1;strokeColor=none;fillColor=none;align=center;verticalAlign=middle;whiteSpace=wrap;rounded=0;" vertex="1" parent="1">
          <mxGeometry x="350.58" y="720" width="209.42" height="30" as="geometry" />
        </mxCell>
        <mxCell id="A2xlnPnC4mBpnPeIcrtY-26" value="" style="shape=image;verticalLabelPosition=bottom;labelBackgroundColor=default;verticalAlign=top;aspect=fixed;imageAspect=0;image=data:image/png,iVBORw0KGgoAAAANSUhEUgAAArwAAAEsCAYAAAAhNGCdAAAACXBIWXMAAAsTAAALEwEAmpwYAAAgAElEQVR4nOzdeXxT55U38N957tVigwFj1gABnLAkJJAA2R1TWtImKSTNtDCdNm2WtqQ0OLOlL8zSd6bzeecdeGe6BdIE8r7NJE03aCYT7KRNoE0CZCGxoey72XeDDV5l6T7n/ePeKwuwjSVLupJ8vp9Pm0TW8lzJko/OPc85gBBCCCGEEEIIIYQQQgghhBBCCCGEEEIIIYQQQgghhBBCCCGEEEIIIYQQQgghhBBCCCGEEEIIIYQQQgghhBBCCCGEEEIIIYQQQgghhBBCCCGEEEIIIYQQQgghhBBCCCGEEEIIIYQQQgghhBBCCCGEEEIIIYQQQgghhBBCCCGEEEIIIYQQQgghhBBCCCGEEEIIIYQQQgghhBBCCCGEEEIIIYQQQgghhBBCCCGEEEIIIYQQQgghhBBCCCGEEEIIIYQQQgghhBBCCCGEEEIIIYQQQgghhBBCCCGEEEIIIYQQQgghhBBCCCGEEEIIIYQQQgghhBBCCCGEEEIIIYQQQgghhBBCCCGEEEIIIYQQQgghhBBCCCGEEEIIIYQQQgghhBBCCCGEEEIIIYQQQgghhBBCCCGEEEIIIYQQQgghhBBCCCGEEEIIIYQQQgghhBBCCCGEEEIIIYQQQgghhBBCCCGEEEIIIYQQQgghhBBCCCGEEEIIIYQQQgghhBBCCCGEEEIIIYQQQgghhBBCCCGEEEIIIUTGIK8XkMmYQf/n3W8OG1V03XCDfNcfrt89MtTamKfY0GzoHv/cMYOJQO4/tQYG9h56eljvMXu21qzbM2zwiBMPj/n+Ba/XKYQQQoierccHbe158eN/GnImdHh6Y6hpaovVeF9t0+mrDGX0VWTaTxhDnjkAzAwiivknAGhYHIn4jOCZIb2GV50P1/1hwuA7PmiJHN70xNTlYa/XLIQQQoieR8K2GEs2PD26MVz7QE39yTlhq+WWlkiDzyQThvKBwV4vLysQACb738KRZphkwG/2PlIQLHqrX7DoVzfdWbR2On0/4vEyhRBCCNGDSMAL4MV3/inYmHf+6wfP7fxWU7j+ZhAZihQUDGiwPElxYtIgVgAUiCxEtAazho98Z/v3Grry+oG3/nTOxL/Z6vU6hRBCCNEz9PhY7rc7fjJm87F1C882nXwExIZBBkAEsAZBgYndlKXoomiJAxiKFDQAYg0GELbCKAz031bU66p/ffruF35DJKlzIYQQQqRWj47kXtv+7Gc2HH3zx7UtZ2/wqwAIdpBGwCX/L7rKfv6cul5lX0ZagRWDmMAgWLoVpPjQVX3Gvnjndff/YPqgOQ3erloIIYQQuazHBrz/ufF/P1B17HfPW9oaaii/E+rawRoAMBEADWJIUUMc3Fpn+3m0WzhoBRADIAKzdr5EMCJWCKP6T3ix5Pov/GXJgAfrvVy3EEIIIXJXj4zkfrnpB/d/cPi1Fyzoq0zl83o5PRQBxGgJN2JM0aSf3T36c/PvGDGn2etVCSGEECL3mF4vIN2e3/APUz85/sbzYQ5f5TfyIAUL3iAwmIGA2Qt7azY/DsZxAN/zel1CCCGEyD3K6wWk0zsHXut3qG7bguZI4wi/kQ8Jdr3jPvMKQMAIYu+5rY+u3PbjmV6uSQghhBC5qUcFvLvPvD/7fOjkLJ8KAtBeL6dHI5Bd18sMpUyYhjF804m1f1Nx6KeFXq9NCCGEELmlxwS8v9r0o1F7z277FrMRYKKeWbycQRgMJntzIBPDJD/ONR69c//xPQ97vTYhhBBC5JYeE/Aerd/5tfqW2kmmMkFa5qZlFOfFMJQ/cODc1q+9vuun47xdkBBCCCFySY8IeN/e8/JtR+r3lPkMvx+w50qIzKPIQEuk8ZY9Z/70HeYVhtfrEUIIIURuyPmAt5IrfR8f/8MTra3NAw0YcPoDeL0s0R6yg94j53fNfn3n2Tu9Xo4QQgghckPOB7xbNv73547V7Z1tmH5AWSAo9ND2wxmPmWGSD6Fw69BNx9+Z986BF4Ner0kIIYQQ2S+nA94NZ9/ss/NU1TeIuLciBc0ETRokGd6MZJeaaPgNP042HL5v39n9n/Z6TUIIIYTIfjkd8O45/KevngudvtdQAYDbWmHJqOAMpZ39a0RQRP0Ont2yoPL4OwO8XpYQQgghslvOBrx/qH515KYT7z4RNPKCJLvUsgIRgcnO9JrKh5rmU6Ubj67+qtfrEkIIIUR2y9mAd+PR1d9oaj1/owETzDJkIhswGASys/FMMJQPu2o+mfvazqVjvV6bEEIIIbJXTga8v9n0H7ccubD7Kyb5lT3OS2QDIgUwwNBgBRhkorG1YdyOk1WPS5syIYQQQiQq5wLeN/e+Gdhbt/nxlkjjNaQMSMCbPdoy8cop5mX4lM84dmHXnFXbT93u4dKEEEIIkcVyLuC90Lzr3uP11Y/6jIBzijznDjGHXV5rTUTQrEdvPv3hdyuPl+d7sCghhBBCZLmcigbfOfBav22nP/iO1jpokIICoKV8N+uZyo/j9Qc/vatmx/1er0UIIYQQ2SenAt7tJ9/7Uk3D4emm6QOz3W2XiCGDJrIXE6BIgZgLtp384InXdi4t8npNQgghhMguORPwvnP01eF7zvzpG0r5fWDlDJfgaC2oyFLOS+gz/KhrPHXX4dqdX/R6SUIIIYTILjkR8DKz2n5iw/zmSOMtBhlQuLiOITvzu9TWoss5AAbD0mGEIs1oDjegOVyPlnAjWq1mWGyB7ekaORXeU8y/GYYv7+C5vU+vP/b6OA+XJIQQQogsY3q9gGT43e6fTd5x4oOHA2bQAGInqdmDDLISMZgBJgagENEhsNYY2qcYNwy5G6MKx8GvgmhsPY/qs9uw+fR61DadgF/5QcpAtob5l7OPg4lhkIGWyIUxHx946/F3+J1/mE7TIx4vTgghhBBZIOsD3jf3vhn4+MhLZRqRYSYF7SxnLmA7tatYoSXSgoARwH1jH8Gnir+EPH/BRVe9bcR9+Ezjl/H23lfw/qFVUBowVNa/tA7n6wszNAjK8KO6buujQ7eMqgCwzuPFCSGEECILZH1Jw4n6Tz59pv7YvT7yg4nBnCMBr1PSEOEQ8sx8fHXS3+G+8Y9dFOyyU6fMAAb1GoGv3LQAM8d/E2ALmi3PVp5c5GxAVABrKCJEdGTg9tMbvvHOgXeCXq9OCCGEEJkvqwPed3b/csDBs1ufCHPrIAKBGFCUO6fytdZgrXHfuEdx24jPAUBMBtst3CAQGAyGgsL94x7HpGHT0apDHq07+UjZ5R2KCGCGj3x0qv7QrBONGz/v9dqEEEIIkfmyOuDdf2H3l083HnrAr4JuT4bsrdm9DCNitWJ4v+tx98gvuBc5B+jU90aT2RS9nEC499pH0ddflCNZXvuVtb/H2PXMBAXT8PXfenztd9edWDHQ2/UJIYQQItNlbcD7RvX/HbmrZsO3DPITUcxh5EpFA+wpYxOvugv5voJoBwY78CMQ2f9ru659OQBc3W8sri26CRaHY7auZe8Tw26QD/efDNPw41zTqcmbDqz7qtfrE0IIIURmy9qAd/uJTx45Hzp7o6F8yOZgriMEO+Ad2++mtkviOMzi/hMQYR29CeVM1wbAzmQzDFK+w+f3ff3nG//tWq9XJIQQQojMlZUB7+92vzDxQM3WrwRUMMe6zrZhAMyMvnnuGXsdVwcKk3xQ7N5Xrj1H9kY2U/nR0HJu0pHzOx7xekVCCCGEyFxZF/Ae4HeCW09/ssDiyNiLShkyBDNDswXN8QWo7aOYDK1qm0DRBRHAruslu6433tpmBkOzhqUjsDiSkd0vmDR8RkCdaDj0nbf2vFTq9XqEEEIIkZkyL2K8go+2fvzZA7Xb7vMbwYzpx0AgWBxBi9WEVt0CgwwQgFCkCa2RFjBzQiUF9qQ1jvnvrlNkRYdWEACKI16N6DBCkUYAQO9AXwTNXmjVLWixmqFZt7MSL4Jh5zklQliH+3907PffqTxenu/BQoQQQgiR4bJqOsGaYy8Vrdn+6jwFKiQieJp0JAYxAQS0RJoQMPJx07BPYeyAm9En0B8RK4LTTYew+cQ6HKrdBdMwYSof2o0XO8DECQ9MYzely53nmaN73bR9TCGrBX2DAzF12Gcwqt/1KOo1FK2REE42HMKWk+uw+0wlwhyBX/ntu0dbdwhA24+blm8iba+/qXw4UX/owc3HPrkPwKvpeHQhhBBCZI+sCnh3HNr8YG3TqU/5VCCasfQu5lVgttAcacKIvmPx0HXzMX7gVPgM/0XXKhn5Baw/sAq/3/ufCEfCMAwzozaQMdh5EhVawo0YO3Ayvnj9fIzuf+NF1xs/8BbcPvxefHJ8Ncp3vIBzLaeR5+vl9MZVTsmEHfyme6yxPaKDgjtPb/jmmmOvvTtj2ENn07oAIYQQQmS0rClp+OOBV8Ydqds5T0EFSTmn+j2KdgkA6wgaw/WYfNVnMP+2H+LGIXfCZ/jBrC8qQ+gbGIDPj38cf37j37iBmTeL7gCxnZ9t1c24pugGPD71X6LBrn0Y7jQ3RtDXG3ePfAjzbv93jO43AaFwo3Mljjlub47PJBPnW85MO3h8y9c9WYAQQgghMlbWBLxbT1Q+Uhc6M9WnAmBmMMW/ESs5CGEdhsUa9419DI9O/h765w9BNPomZZciMDvZU/vykpEP4Jbh96A50uDFojvEpKC1hTxfPmZdNw/9g4PhDrYgYmf5ZJdvOAHw6MIJ+PZtizHxqlI0RRqhWTuBvLKv5wECwWcG87aefG/emj2/KPZkEUIIIYTISFkR8K7Y+ZMpe89u/LrfCEQ7H8SzCSuZWnULCMCscd/Cl254Cnlm75hMM4MYIFZgsqef2TMTGCCFO67+PHqbfWHpiDeLbxcjFGnENf1vwviiKc4l1DbZLNr4jYFoAMwoyh+Cb0z+PkpHPoTmcCNYR+yfK29eGHcYRbPVOKby1LvzPFmEEEIIITJSxge8K3iFsevEhrkRKzRUkc+eNpZAm61EudN8CUBYh+FXATw8aQHuG/do2zXc0lU4V3T/ccn+rRH9xqGo91CEdSg9i+8CZgaRwsh+46GUASB2zaqtCIPsAyPnnwCQ5yvAn0/8W3xq9Gy0REJgrUFMMc3UEB15nHr2pjmf8uNY3d4vvrTxf9+RhgcVQgghRBbI+IAXO47ec+zC3gd8RlB5UbRLABQrhHQIBhS+cuN3ccfIB5yf2i0X7Fi3gwic2zot+I0ATBVwWntlBmYNv+FDUd4Q95K4bu83Aph941+hdPRDaIk0QrPlVj44z0u66nrtBzRgImy1jD5Qt+XR8uPLpE2ZEEIIITK7S8PHx9YUle98/u8VfEOIyekrm2YERKxWaB3BAxOexO0jP+/8wO5xa1+lbTzEpRgUjfnY2QDm1cau9hARwpaF+tY695I4bm0fd8AM4ssTnwZAeO/gSuSZvUEKcF+z9NX1ElgxTPLjTMPhR+pPnX8XwK/S9OBCdGpeRUmxycb+hG5M1j1LZq5fk+QliRxQVl66GqAZ8dyGwdVLZ629JlVrEiITZXSGd9PxP375TMORWw3DAJM3WVFmjTCH8Pmxj+Oea7/qXgo3MOQrZGtjE7/nmk6hoeUcTJU53zNIGbB0BAfrdkGzFe+twWyH+z7Djy/eMB9TrpqBUKTFrmUGgVghfZl5AliD7CYega2n1s17e/9/DUrTgwshhBAiQ2VswPvqjqUj95zZ+IgiM0BuljTNGIyQ1Yzbh9+P+8Y9BiInlxtTl0pORMsdZUZjBjFsO/0RappOwmcEUr72riLW8Jt52FezCScuHOjgWh08+QynZMHOXef7CjDnxr/GqMLr0BxuhKY0Z7SdMcpggqFM1Laevmv7iT/MTs+DCyGEECJTZWzAu+dM1cONrbW3GMpA+gKmmP1nAEKRRlxbeBO+OOEp+I2gMyKYY4YsuP905oyxhhv8AXDqd+2A7/iF/Xhn/wooMjKqFy8DMA0fLrScwxt7foaIDtuXu8fCGh3OaqPo0IfoERXlD8VXJv0P9M0fiFYrlNbqjYtbMxMUfGpf7ZZv/m7ni6PStwohhBBCZJrMObce4619P7/zjZ0vzFVk2gGjBjSpi3f/pwITGBpEhIgVQlH+UPzFxKfRN1hk5ymdc+Xt709j2PMwYlt62Vc8Wl+Nlyq/j1ONR5Bn5qX2GOJFCsQaATMPVcdWI2gG8dD1ZSgIFDo/d2px0fG+vEuNKpyAL034S7y86X/ZJQZQnswIMchAS6Rhwr66zWXM/D+IKN6aDSGEEKJHKiuflsCfbl6zZNbae5K/mu7LuAzvdl7h33js3bnNkearDfIBcNp7paOzATkb0TTD0hY+P/abGNFvHOz+us6WM+qozRaBoUDkDpuwo8NNJ97D8xuexsHzO5xg17thyO0hZzAGK8Bv5GNt9X9j2cd/j2Pn99k/h7NZsIvBLjv3d9vwe1E68gtoam309IgDZp5vx+mPH161+/nbPVyGEEIIITyUcQFv5cbdnz1ct/MhvxEEEYPYcKZ+pefxGYymyAXcOuI+3OW0H2ubFOzWpF6Jvdg/VP8GL1X9M2oajiLf18u5aWY95fYREYgYigh5/j7YXfMJfrrhaew88wkAd/NZ1+6PYl6o+8Y9hlH9r0NTpAFedaYgGGBgUNXRP5a9c+DFoCeLEEIIIYSnMir6ennzv/fac3bjXJAuUMoe0ctsL5KTHPGS2yw29jINtIabMLj3KNw/9jEneLNLGBhOOYM7YKLD+7QLgVfvewWvbvsJwlYrAmYeAGVfgTMsw+tOh9MULdvI9/VGTfNJ/Kzqn/DJsdXuFQG0TV3r6CjYGanMDPQJFOHzYx9H0Agiwq2IvYf0Yfhh4kzT8Xv2ntt3X5ofXAghhBAZIKMC3qZQzVfONh4v9akgtY04Y2iipMdJbsjGTscFu1TY3uX/meK/wNCCUfZ1nCCWCCBS0VRzW09dp9QiZsDE23tfwWvbfwqCgmn44Wx1Q3RXXAZhZ2odx1zCBASMIBpDtXj5T/+KT469fdEt3LKF9is77GwwOx0abrpqOm4ZcR/CkZDzfFIn4XLykT3VGWDd/1DNtm+uPvyrq9L24EIIIYTICBkT8L5z4LVR+2r+9LdKmX3TEg4pAkFFN5ixIkR0K8YNnIo7R84C4MamHWVz7fZXHJMp1qzx9r5X8NsdzwBEMJWZ1uAuadjORPuMAMLhFvziT4ux9dT7zs8ITOSE8JcfW7R3BbsNyQj3Xvt1DMi/ClpHwERQ6KgOOvk0ARYRDPKhpvnk/QdObXs4LQ8shBBCiIyREQEvM6tNx9Z860Jr7ViDTCAdG9TYPv2unIlprCMwlIkZY76CoJkXze52Nt2Nie2sLwggwgeHy/FfO56FST74yJeNoa6DnHIOgt8Morm1Hr/avBiH6naBqG2+XPuF1RxtV+b8Fwb3HoG7Rz8Eiy0QtBMVp2fcMMFeL4FgkIkdpzZ88/VdPx2XhgcXQgghRIbIiLZkv9z6g5sP127/skk+itbLppjdU5eitbkhqwWTh83A9YPszfzklB90thKCtjszgLCnphL/teNZgO2pY2ALGfJ9Im6EaDUJwEDQl4czTcfxi82L8J3b/gP9ggNi2rNd8gyxXSIBcrO89o7Du0bOwqZjf8DRC3thGnlo55YpOhKAtR2Em+RDk1U/ZvuJykcB/F3KH16IGM/NXF+NjCtqEkKInsHziGw7b/fvOvXB4yEdKjaVL20lAHY9LkODYSGMPLM3Pj16NgwynOyuW6Pb0dAFBrMd7NY2n8avt/wIja0XEDCD9sl+UmnrLJESzvETMRgK+WYBDpzbgtd3Po+w1QoQtf/FhNxRHE6m13kS+gYG4M6rZ0EzOT9PB+exnMBcE+AnPw7Vbf+LV7f9+Ja0LEEIIYQQnvM84N29Y919Z5qOf005wS6lKUpkZwwtMRCKhDCm6CZcWzQJgJvddcOy9tfDbK/V0q34713P48j53Qg609jarpOGA0kBZ2hytGWZu0Uv6OuFDw+9gQ1Hfu9cw7lydMRZ7Kizy5+7KcNnoCh/KCJWa5oCXo45BrvnsF2Cokfsq9n83crjlflpWYYQQgghPOVpwLvu0C8KNx5b8x0wChTcU+hpyv257bNIQ0GhZOSDUGR0/fZkP3WVx/+IDUd+B7+Zl8U1u13BUGSCALy590WcbjhiX0ocM5iioxqQtjZld159P1qtZs/GKzMAv5mn9tdt//zO02tmerIIIYQQQqSVpwHv9lNbvlTTeHi6afrtzC7ZQWg6giF2Ck1bIy0YUzQR4wdOjfs+zjWfwu/3vAxihhFHsJyVyN5L6PP5UdNwBG/tfSnmtVLRBG9HNyZn89+kIaXolzcQId3qSdBrlzgQfOTP33Zq3bff3v/coLQvQgghhBBp5dmmtf/a+aOh71f/7lvK8Pvs3qyAW3OZjjpeAsCswWBMGFKKoK933Pex7sDrOHphN/LMAvcek73MzMFwglYFnxnEhqNvYYqzyS8atlLbSOXL2Zdf1acY1xRNRtWxNfApX+rXfQkmpzuHUqhvOXfnzlPbZgN4Nu0L6aJ5FSWFplZzAYCJiwn2v3eMq8BYCQBaofbZmWuXp36V8SlbVboAAJgwl0DFl/6coZcTU3VE6ZXORi/hsbKKkhnQagoIMwCacfk1eA0Ya6B01ZKZ69eke33zK6bNJs3FHa8PAPNiALVerTHbZMP7dF5FSbGp1WwAYKIpBMzu6LoMribGcgBgRdVLZ763Ml3r7EwuHEO28OS8MjPTTz566l92nqp82m/6g0Dbjn5i+7R4qkNHAtBqhdAr0A9/decSDO9zbVy3P1F/AD96/0lcCNUiYOTFDKJInogO439++pcY0ntk3Ldds/9XWLH1RwiaySlTtYdJAG533abWekwZ9ml885Z/hU/54fRw6+Q3qi0Y/uTI23hx0z+DSMGgNH/nipn/EbEiCPh7b3xg3GOPTL/my9vSu5COPVVRMoW1mgGiRcm4PwbXEmNxvH/oy8pLV3cYPHT8WNVLZ6295tLL51WUFBtMC64csF92j2tAenF3A5RkHkusttcKswGacsk9rFkya+096VhHqu6/bFXpAiYsIFBhHPdXy4SFqf6yFQ0UEn2fMC90g7X5FdNmE2NFvHcRIesar7+U5dL7tCvavnx1//ORgZXEXLXkgbWLk7G2rsq0YyirKJkBNlZ3dy2Jiuczrjs8yfC+vf+lydU1W77tV76gO6DA3VjElJ5MKTNgsYUx/SdhcK+r7cvQ4RY1ewMaMcipAvnwcAXONp9Anq8ADA1y23HlqLZhE3YW3m/mYdvpDdh15hPcOPguuJvcOn4K3NeVcHW/cSjKG4IzTcdhmKbdHi7aFSO1TyIR2XXHAAzDREPo3OQtpz56BMB3U/rAXWD/0eUFzDQlmU8DgQpBWAQ2UFY+7aI/9Ml7lI6VrSpdBKYFid2aZoCNGfPL716+dNa6J5K7ssQ9WVE6VzHmJvu1yhTzK6bNBvMigIrjPTwCFRJjWVl56dwI6Tmp+D2bX373MmI1t1vPPdEik41F88vvXk6aa7O7rU73Jed9Om3l0lnvzUnuymzu5yOS+J4jYDaIZpeVT1sE5oWpDnxz4RiyWdoD3ncOvBhcf/Dtvw5FWgYE3AEPAHDZP1PLnRM2duBUu28udDSYvVxbsAcA55pOYOPxd+AjPwxSdnJT6bRtuPPGxa+UT/nQ0FqHjw6/gQmDbocio/O/FzGx7MDeI3Bt0U041XDUnsxM7uBlhVS//vZZBPffFPxGAPtqqr72802LXvvazQs/SOmDd+CpipIpzGoZGFPSctLF+UOPFD9YWUXJDGa1DO2cDo0XQc0tKy+dEiF9z3Mz19cmY32JaHutLs3m5oZ5FSWFBhvLiDG7+78eNMVgtXpeRck9yQp6n6oomaJZrWjvFHuiCN0MnLNcct+nmF1WXlqZzC868ypKik3783FGSj+yiBbNLy+dC6KFyS4VyIVjyAVp37S27+z+T5+sP/JZ0/B3OsUs1ZgjKAwOwIi+Y5xLOvolbBuh615jy6n3cbrhSEwpgzNquAdhMIK+3th+6kMcO7/PuayzCXltAbMihdH9b4BpBMBk34aiGd7Us7uoERgWDOVDK4cH76/dPK+Sl6W9qLhsVekCZqPy8tPh2a1sVekCsLE6mYEJQFNMO4Dq8un1ZMrV18pVVlEyw2C1v7MawngRqNhI0ms2v2LabGajMrm/Uz1bqt6nyXrNnd/JynhLNhJFoGJirChbVZqUcjIgN44hV6Q14N1Vs75gd03VNzRHBhppyOZ1JqwtDO49CqP6XQfADYLaW4+7kc7+d80WNh5/F4bhAysCWDmDKnpWwAsAJhloCjdg88l1ANBhhtydtkag6DM8ZsBN6O0vgNYadheHdD1/FB2aQVAAW/CrAI6f33/v7s1nP5emRQBwTiEmqU43k5SVl65O3XHRFIONZam57/bNqygpTO0xeS8m8En6lwk76O3ea5Zoja3oWCp/pwlUbLLqVk3okxWlc1P1O3lFRAvs2ujuyYVjyCVpDXjfP/iHR8831zxoqgAsYkB7FyQSgGEFo2G6G67anxsGt37XjceO1x/Aobqd8JEPmtmZKEaeZqu9wgBMw4/NJ99DRIc7uaa7C5GjwyqG9i5GUf4waNYA65gNcanGICerbD+c3Z5OKaNo26kN//jRqVWD07AIO8CgROvlMpedKUptJoOA2U9WlMa5qSYxT1WUTElndsYLBCpOdTBPwOyyipKEnsOnKkqmSLCbXOl4nwI0xe30EK+yVaULFFNav9hejmZ0J2DMhWPINWkLeN/YuXzs1pNrv+03AgbciWoeJkVNw8A1A+zJanZ3AYX2F0SgmK4Rm4+/g9ZIM0CAckapZetEte4iApRSONt4DLtrKp1LL38yKPp/sRcA1xZNdAZXEEhT2vrysjPe2I3DCQwf+ehc0/Fbqg689xhzatP18yumJb6zXAAAiLEoDaUNhZpVkkQsoogAACAASURBVE/39mCs4g5+5lWUFGpWEuxmKSYsmFdREtf7J7M+H2lGIqUBuXAMuSgtAe8KXmFsO1P5cIvVeL07zczLhCiDYSg/ru47Hu5iOt9vZQdjESuMfee2QnMEbafGPY3bPcUaUDDQEK7H/nNbnUs7ezYu/tmofhPAbEU7XHBavznEjIAmBkjBNAJqz9mND/9m+4/Hp/ahWT58uolA0f7EqXwMT05F5iyaEW/wY2q1QL5wZC8CFRpxdH6YV1FSDGaPs6KXIFowv2Jal+vac+EYclVaAt7mzdunHKrb/ohJ6R800B6tIyjKG4q+gf4AuhJo2T8/2XgIZxqPQSnP5nVkFtW2me/khf0IWc1x3XxQ72EIGvnQbIFgwbO2QEwANAwyEQqHJuw88f7jzCtSMjqvbFWp/AFPEid7JAFpFnEb7HfFvIqS4lws++l5aHZX36cGG4sy8ksm87KedAy5KuWR25EjH+a9su/5pyzWQw3lg/fTyAgRjmBwrxHwGUHnIhXTdOzSoKttvWcaj6K26WTujxHuItJ2dtQgE0cu7ENd02kMLuj6kIxe/j4ozB+Mkw2HEUDAyaR78PvBZPd/JoZhKJxtPvnlN/Y2vAUg+U3UKfEd8O6UnY4m7MROZWt/EEJuIVChgpoNIOOmyYn2MXX9dzKezGCHj+e8Z0jpNc/MXF8V+zN3aMiVpluJ7ok5G9Npf1h7+EG3Ph9ribG4vdfa3jPRyRS+K3Ay1YsAdNoLPBeOIZelPOB9t+adzx08v2uOXwV83ge7Nq0t9MsfDMPJ1HYeZLVVlp5pPIRWbkVA5aV8jdnAHRJCZOB8cw3Oh87GFfDmmwXoFxiAExcO2GXUZHdsSDtiO7msGQYZaLGahlcdefs7m0++/eGkIZ9tTNbD2D1cEwxCmRcuvUJDcac/rXudxUD0Q9K74Jd5YXsjju3BBnpG/BOdLkZMMyABb1K5I2MvbWCfnNeMu/R7OK+ipJC4e78bmviJzqa9OQFFFeAMsujm72JWS/H71A7UOg94E6nxjrnxGov0nOdmtd+j2/ldXuxsFk6opIyg5s6rKFncaX/hLD0GZ0LeZX98y8qnJRC0XT5hMlOkNOCtPLe676uVS+YD5FNOWOlFyEtOfSg5M2UjuhVFeUNjr3HF+7DYwqmGYyACiNLevjiDERQUIojgVONRjB0wucu3DJq90DdvACyOgJQBcMS7r0SMaLsyv5GHY/XVn9ty6uN7AbyarIfQMOKeWuUsbeWVgt2ORD8kK0pmMBtz05HJ6spoWSdDvfKpipLl3RkkQMDseRUlhWkbRsG8GEBtR5Pqnqwonas0Cu1xvNmFoZdbxAs7ei7d16ysomRlomNICVTcldfL1N0bBkFkTX32kgyZuFg636dO/XaHr7uTDEiwawRXdTXAWvLA2sVlq0qRaMDolOS0+1mcC8eQ61Ia8B48vn1GbePJ23yGH5o83N7ltp8ihtYaPiMPfYL947qLcCSEuqbTADOIembf3UvZnQ4YIEBbGmcbD8d5B4Revj52Da/W0ORtb2Ybg0hBgfKra7Z+7QgfeXMEjYivOLkDpLk4sTpl3e1gzvkGv8aZFLYoVS2JGFy7dNbaLr+5npm5vmpeRck9BqvKROveDBgzAKRuqhDzYii9xnkOOxUTPGTNHxQG1xLpOUu7cHyA/btUtqp0cTfqawsBdP47bWcEE8KEOUsk2O1Upr1PWavZiYQHDK61SMc1ynjJA2sXzy+fllAZCxMWoIP3di4cQ65LWaqSmenI+f33W9C9iUyPWxmwMzyCwNAIKj8CZjCue4joVpwPnQWYQCwZXhe73So4jLrQubhvXxAYALsvs4b3wa6L4TPycLzh8Kd271uf2o4NXZK84PSZmeurlsxae8+SWe+l6h0Zd3D+3Mz11UxYmOgDku7aafJ4Mbh6yaz3aMkDaxd2JdjNYrXxHh8pnfAXDBPoNEtob6xJOFO2RkaqdklGvU85wb0NxFieyAhjRVZCAR+BCp+qKGn3OHLhGHJdyiK3n1V+b+yJ8/s/41MBAPB49C5F18Cs4Td7oZevX1z3ENatCFmNaZwIlg3sTDfBLvm40HwOmq247sGnTKjot6HMem4NMvpuPvHeQyu2/1NvL9dBoOKy8tLV8bZ0yibPzly7nMFxf+gDAJN0vUi3Z2aur2JwSspInExgYkj3yMxVujjv04Re947ep09VlExJuKQpwS9edv02J3QWgNvpNJILx9ATpCzg7d978NCzzScG+cjXNtnKQ+4kL80WTMMHf5wZ3larBRHdao+jzay4zDMM5UzdIBCZsDgcdy9dv5kHUvYXkcx6WhlgjbrQmWsG9p0Y37ejDmgVf1alDc0w2dg/v3zaikSnF2U64kTLElKT4RWdI2fDV9LvV3NCgQODq3M8E58RiBPdJNr++9SCSvD9y1WXdjKI7+aJfd60F7jnwjH0BCmr4b0QunCboVTQIvY4uxudauswAGgwdzUId2dxwS5lIHtSVzpOv8dOHmPmDrPLMStsuy3Zt2Zyymw5BeOPSTvlDAylCC2RJoR0K/Lj6FNcECiCTwWhdSSzvkjYE4cRYWvq+QtnbwFwtLt3aUBXMbrX0o6A2SCaXVY+zd6wwGyfYlS6Ktv/2LOiqkR+RaWvsTcYXJ2K6YhMXJzI/Sb+hUnEI9nvU6VRnNCvEXevbSQpvYY5kc9jvuwMRC4cQ0+QsgzvqfOHrjWNAIHZTpZ5XJ7p7pkjcjvudvW307meM1XNPpD0HExsCEvoeEAGXbQujl7KrO1glwBWqVozQ5GC/asUfx9doth1Z0oNLwC2+09EdMvQI+d3jEnGXYaB6qSfBiZaBKJFYGN1Wfk0LiufxmWrShc8WVGadS2WLFgJZzpyudwjUxFTSkoauvEFJj2dOno4BSuh0iOg/fdpN7KN3Xq9w0BCx0GgwksHOOTCMfQEKQt4G8K1RQRlZyWJQCkLuK7MznSyExO6QVl861FsZzPtzGl6joUAnG85A8DJ1HY6tZeczLPNsiIgUnYIyin6xsF2kMvM9ohgaKg4s/ka7LwaKvkZ6G5SpGDpsK+2+URRMu7PbslDqc/CEi1STMvKyqfx/PK7l2XLBoVENm4IT6UqwEzsD7HS0pkhDbpzCt7XzmtLSKyEpbuv93Mz19cmmoDwXbLxMheOoSdIWcB7rvHkIEWm27XK07PVOhpH2SNk7UA8kdMA2s5Wp+Fo7KIJC9W12+3/5osD2vZuEdsu7UjdLihlOMGucoLTZC9SA7CHRbAGAmZvmEZ846MbmutgWa1QmbgZkAnhSCR45sKxoVe+ctcQWWkdkkBQc5mNyrLy0tXZEPgmunHtSjv/RfbgBANekgxv2iS8ca2d19bL15sSzJBeuuZcOIaeIHX9tZTBBG3XvMLbvrUUjboZgEKrbkUo0hTXffiMfKd9VnxdCBLllglvOfk+WsJN0XKMjm/g3IiAk/UHsefsRhjKB1JOAUcqsqfs1jXb7d4UqbiHcrRaTXZnB7upb/LX2A3R3xvTTNqLvmTm+jWcyp6xHaIZzEZlrm54E+nXvU2YyReWgDedkvZcJ1rCkqTXO6H70FCXZHiz/xh6gpQFvJrDJpjATsCbjqxoxwisyc42K4XWSDOaQhcAOHWxncaC9g9N5YPfCII1p6ekgQHD8OFg3Q58dKTcudApH3CuYG+8s8sV2A3OALy152XUtpyBggF2NqulZsVOcQhrKEXoGyxy6nm7LsxhWND2+nRmBbxs//LC4nB8aesrsMhamGgms9uIFs0vv3uZJ4/dBYlmK4QQQojOpCzgLTD71WowoN3tTN7W8Conw6nIQFg3I6SbnJ9dqeOCHYT5DD/6BQZAuTWxaaDsmch4Y89L2Hxynb0a5zJ75c6zSs6/s8bqva9gw9Hfwe5/nOJ1xmyUUzDQNzgA8WZp65vPwdIRGDAyLcELEMNQRqSPryipmaPnZq6vVqTnpKqP6ZUQ1NyyVaUJjaUUQgghslHKAt5+eYNOW6yjG61SlWPsCmYnE0kMAwqtVgj1ISfWcNd3he4LASOIgb2GAUhBe6922TW7pvKhMVSHl6r+GWv2/xL1obq29mROoAsAZ5tOYOW2Z/Dfu56DUgYM1b32V11bIoEI0MxQyoeBvYbHdXMGoyl8wckKZ9KkNRuD4TN8zVf1HXki2ff9zMz1VRbpqYk2Du82ogVlFSUZ15qGpRZXJEjquIUQnUlZH96+eUWndd1OQJlgokub4aYVKUCzip76V+TD+da2MbhuvrR9djkGkcLg3iOj3R5SvseKGORUWxiGHy2RRqzc+mN8cmw1riu6BSP6jUO+vy/qmk/h6Pm92HF6A45d2AOfmQeDfOn5guEkx5kjMJQPg3tdHdfNWyPNOB+qBcEAoBA94AxAALRmGIa/cUDv4UkPeIFoV4KpZatKF4Ao/RlXVguA7vWBzBQRKYXIGU5ZS9zBK8PocZtwPJTQc93e+9Tp5+zVl5WEjkNBX3QcuXAMPUHKAt4R/cavqzr+h6cCCAa8jmLsKV5OSMuAqUycqT9sn0pXplMm0NGt3ZIHQv/8IfAZAdjZyNTt94OzzpiOujDNIBQzDtbuQPXZLcjzF8AkEyGrBa2RZpiGH3lmb4BU2rLpdqKboFmjMDAAfQL947p9U7gedS2nYRo+L78PtcvO92v4Vd4nowtu+CiVj7XkgbWLASwuW1W6gAkLCJSmP9w046mKkindmvSTZNKDVTCoNpF8QqIT2kR85lWUFBIn/Bl12fs00U4FTka/W0EbA4UJ/a5dsuZcOIaeIGVR29H6fUd7+/rWa1j27IkuTzZLBfvXwS1aUMrE6YYjaNWtzs/Zjd46uLV9+0EFIzGg11BonZ5jiQa8rAAGFAhBIw95vgKw1mi1QiAo5PsK4FfBaLeEdGFn45zFFkb0vRaF+YPjun1D63mcbT4BM6EWcckV+yWBnF7NRATTMA9tb/z4VDrWsOSBtYuXzlrbH2TdA+a0bGxjrTKmrCHR4REMrrV7HItcQJzY7z0TZXzbvVyQaP/Wjt6nDEro9U5Gl4FudFe4JMOb/cfQE6Ru01q/wP4hvUZubIk0QYE6HIvrBZNMnGk6jvqWswC6nlgc0utqDM4fBQuR1C0uhvuMxdYMR4NgUlBkQJFyAnk3ZEvf80wgMCloAEP7FMNvBOPK0p5pPIZQpAkEBS/Tuxf3EGEwaTAIrTrMEwbduvob1/9zWoOpJTPXr3GC32uWzHqP3AA4OkY4iTIpSDBgJLQW6eyQcxJ6vxEwuydOj0q3RL8kd/Q+TfQLjtLdq9lOtC95e4F7LhxDT5CykoaHx3z/wn9W/ssb+2u3fUpD+0HUWRI1zQiWjuBg3Q4M6j0i2r+2I3ZTBDvjN6rwemw9vT5tK81kmgDWFgp8fXBN/4n2he4M5y6oPrcNCiag7Ixq54M1UsfucOGMYHa+nFk6gr6B/h9PvmraWkpJE+OuWzJz/Rq01douBgCnn24hiLrVV5fAmRMgsJ6R0Hfwbs6jF5mFlF7DnNhZH1OrBQCS/sVQtGGiKQl9UnfwPmVFVQl9whK6dXbKgpqSSMaPgMtKwHLhGHqClBaijiwas6pXsN8+zRGQzphoFwCgOYLqc1vd/0JnGUYijpY1TBxyF/J8vdPWmiyjaYLWFgb0HoZxA6Y6T2HXPwqrz22xN/8x7D7JHvUlIyZnEyLbwzOYEdFNGNN/4q9H9bvpvCeLuoIlD6xdvOSBtQuXzHqPupP5zayuCDQ7kVuxoh754Z2runWqNeHuIypzvvhlMDuDzgkFaR29TxWsBF9vmpJoGRQAEFNiwSZfHizmwjEkUca+l1Ia8E4f/RcHJwy67f9GrHBGlTQA9mnsYxf2I6LDIFJ2FreDoDc2uB3W51pc238SWnUImdc4Nr0UgAhHMGHg7TCVL652bacbD6O25STI7SGs2ooy0o6i1d1gZrRazSgMDN0wdthtv01mdresvHT1/PLS/fMrpiUU2HVkyQNrF6ei3CGdnqwonZvoZj0LlmR4c4h9qrUb7frYWN3V99hTFSVTyspLVxOQ1PdkrjK1Svr71N40m9jrbWqV0Os2r6KkONHXnJS+bFJmLhxDsmRWEuViKW41AFzVd9yKovyhG1o54oSHbh7PbrvlVcioyMSZxqM4en6PvapOAnI7ILbDMSKFm4d+CswWGDp6TN5OkksPe0Qx2f9GgIaFfF8Bplxlf8kkJrSb+GZ3U1hb64ndZzehPlQHxYa9odEpG/EGAc5GNYYGsdF87aDJP5s+/ItHk/9IVEyMFfPLp61Iar2h0gl92GbCTl171zcSbMvGVT2xFi3ncffGbxNjRVl56er2RmnPqygpLltVuqCsvLSS2agEEsyS9TDzKkqKmZBgCdUV3qcJliUxYUEin6MGJ1YKxuDaDrva5MIxtHPdeO+fQIWJ1hanWsoD3pljHzk2uv+N/846UqPp4u1VXo6jMMiHuuZTOFS301lK57WndibSdsPgOzGszxi0RJqc2E9D5XqJA7cFrAQGmNAYacD1g27FsL7Xuldq9xnkmJ7C7hUOnduJ1kgLSFHbpDiPRgszMaAYTIClLRTkF626tv/kFal8TAJmm2ycK1tVuqg7p7RcifYgTXR3cTKZrFYn3Iqtm4GRyEyRpGSgaAaIFpWVT+PY/5ls7Lf7XmfOhs1MN6+ipNBktSJV79OI0ssTuVsCFZqs4vqsnl8xbTZBzU3o8djeQ9GeXDiGdiSUTNBMCa0t1VIe8ALA8H7XrR7Se+TvLCvkBD92Rg3KHjrsBSKGxYydNZV2e7I4Si4KAv1x6/DPgphhXRLI5SxyJ9YxNBiWFUK+2Qt3XD3LmZRmB4ztZ2ntQl33R2ebTmD/uS0gpaJPu5M39oTbpYG1BoFOXj/wlhemj36oLi0PTrTAZGN/R9morphXUVJMzAndltijSW+Ink6uTDTwYHBton9kRGazh7KwlKpkgLKKkhkGq5S+T7v3etOMsvLS1V3JkpatKl1AjISTGZ19EcuFY7hsVQnW0xPU3CcrSjMu6E1Zl4ZY9495+MKK7f+x/Oz+U5+B1lexAkgTWMPD09gKhmHi4NltONt4DEMLRsMdMNEVtw2/Fx8ersCphiMI+PJzfxMbu8Uo9nMUsloxech0jB841cnT2yUB7T1/xACTcn4OVJ/dhlP1h2AqP5jbSlxSP76ufe4XsLBuwejCG14deXPpex6sYgYIM8rKpy0CuMrNiDhDKS7zVEXJFNZqBhMXEyf2TR9IPCvREQIVl60qXQSgtqO12wM2aApz9+omibH4uVlSzpCzSC8GG1JukAIEKp5fPm0FMVeR0mvaO8VtT4DEDDDN6M4nc5ffp916vWmGc8ZsIZSucjrbALATAqZWs5kwF92YhsbQy53pmJ0sIweO4aLrc3Wim8kV07L55dNmMPGaZ2euvejvjHs8AACiRQyuXjpr7TUJPVAc0hLwAsCcCU+v/+H781fuPv3xX/oo3+l84G33VT/5ca7lNLadfN8JeLuuf/4Q3HH1LLy6/ZnoJLdcxooArQEQtA4j39cbny6eA5/yO1dAxwErIRoMa9b408n3ENYtyDMKnFIH+347HXiXYhaHkecrODp+8C3LptP09DRa7hBNAWEKANgB8OXcCpzu/N45H37JDxidVmkdrR3ofjafwbWWZHdz2pKZ69fML5+2UjaUpQYBs0E0m9lAWfm0lDxGPO9T+/W+e3mip+oBAESLcOnxRD8rE8fgWouuvDE4F47hoqUwVXfnQQmYTUyzy8qnLbtkMZ6c0k1LSYPrjqvvWRow/X/SCMN+9bybvuZO0gLsAKwl0oi2V4Bj/r899k/uHvUFjB0wBaFI00X3DDBUdKNWrrBrbRmMVqsVU0fMwPiBt8T82K3Pbk/bpScuVGNvTaUzotmNk+3et2nvw+s8HjEQslpaxhdN+skXxj+x9Qq3yhkWcTy1XBmFGItls1rus8hamMjGGZEZ4n2fWpSeCZPxYsLCrh5HLhyDi5TOqbKi9Aa8Ix7cN6rfhBc06zAzRwMOb9iBaZ6Rj+ra7dhd457Rid1S1/b/7d22t78vPjfmYQSMPFg64tSh2oG0JvLqDH1KKLZ7EYetFgzoNQyfu/Zrl1zDPvp2DzmmyHnT8XdxtvkUfGYwejN2ix3SUN7iBtcgbT8eKUQ4jL6BgR9fXXT9SylfQKZgXhjPqa3Mwms6KpcQueW5meurQfSE1+sQiYj/ffrczPW1ivScVK0oEQy9/NJT8p3JhWNwPTNzfVUmBu+JSmvACwDjh9y2sjAw4IOIDnka8NoPTWBFsKxmrD/0elstKgNgJ0vbaQzGmDSkFHeP+jOEdYvTuoxhx/IapBObFpSpLB2GQQZmjf8WBvce2eXbsRP5X2g5hw+OvAmfGQR7NIjErrV2S1AYYA0NHRo3cMry+8c8fsaTRaVd9gaMDK6OZNgfE5FaS2e+t1ITpzTozaU/6pmgO+/TZ2aur0r16911vGbprHVxryUXjiF6a4qrq0NGS3vAe/+Yx8/cOORTSxhotWs3vUFOyQGxgmn0xp6zVdhb86e2H7q5yvbStOx0LHAC9vvGfh3XFt2EFqsZKjpCmeIaxJDpGECL1Yw7Rj6A20fcH9dt3Wew6tganG0+3lb36wG7iAXQdksJtFjNGFIw+q27Rk163bNFpRWvWTJr7T1eryIRDK5VpOdIKUPP8+zMtcuZkPQvOgyuBVn3SEeI5EnG+/TZmWuXex8wdu+zMheOAXDeeznyhTDtAS8ADO3T/41BBSNfj3AEXjWjsltREZgZyjDRHGrE+oOvwWILgIoGq+2uzi5nBUGDNaMg0B9fuuEv0TdQhJZwE6AAxQRi7wL6ZGsJ1+O6AVPx0Ph5dr1tnPXJF0I1+OBIBYgZysPtivZ8C/vxNVsIUvB0cdENP50waE6DJwtKJ+bFWR7s3tPVhuki9yyd+d7KCFnXJCs4ZejlFulrYnfDJ0C+fMVI5vv02Zlrl4Ose7yo4WZgZTI+K3PhGAAg00o0EuVJwDt99GMt44om/4dSqhqwLvpZ2sLfaEcAhsEaQbMXNh7/I3ac3mD/nN2groPAjBkcrdNlFBfeiDk3/jVMI4CQ02+YL8oOZ1dBb+yxN4frUdRrOP580tPoFeiLaGa+w5j18h+8f/ANHDq/C6YRvEKZSOoRAAMES0d4cL+RL0+ZOOadtDxwgpN4uv+wXA2y7lnywNosHT/MVRbpqRLsiudmrq9eMmvtPXYQkeDQEebFEbKuWTpr3RPdPVsgZxtiJf99umTm+jUW6anpysAzuJYJc5bOei9pAV4uHMMzM9dX2WdCslva2pJdyjdpdNWI+nH/deDctqf9RsAOB7UCk0Za+lNxW8mCu6cqoiNYve8VXFs0EXlmb0Sj4vZiVXfyWszPbhn+WTSEa/HrzT+EhgUyDPtxyN70BSJAs7d79bqAmAEogCyErBYU5Q/FIzd/D8P7jHHa5Sq7uJnaeXKccg97D5sGQeFUwxG8d/C3MGE6Qyq0ff8eZHnZmRKnwfCbeXvG95/y8wk0pzUdj+3UzS62+9BiLnWjn2JXMLiaCYsT2azQnccE0UJ7EEYSJlkxL8zWemOROk5Wdg3g9IsFAMLs9n7nGFxNjOVaobaj90Ii78VsPs3LwEqLrIUGG4uS0vaNeXGqvlA7m2vvmV8xbXbSPlfaw7xwaYo+a3LhGJbMXL/mqYqSqcxqEbJ0HLdnAe8cmmO9sXP5C6frj97XEm6YYCgfoLQdIHqUATQNP3afqcSHh9/Ep4udL0dxBaeM6aPnIBRpxaodywArDJ/hcwIs576Uh7M2uoiVM4jBCqMwOASPTf2fGFc0pW36MnPHPWCd/sp26tv++Vt7f45zzScQ9PUGaYZFgPLoRSYQoIDWcIs1aWDJz790419tSfca3MB3XkVJoanVXCaaktReo8yLofSapd07VZuwpTPfWwlg5fyKabPBmJ3QsTEvjii9/LlZ2dpJQqRLzBeihP/QMzAl3jxEolOoMgExVznvrTnOEIC5bv/seNhlIbw4He9T93OlrKJkBrSaYo+H7i5eA0baNvFm+zE42Xs3cJ+bbYGv57nGFz7++7+tPL76//iNfAVn7LBX8SABCEWaUJg/FPPv+CGGFcQ3+MOtCwaAt/e9gvKdyxDRYfhN5zQ+E5wGvRmvOdKIAflX4bHJ38PYAVOja7b75mpoEJSbyb1I7LMA/OnEu3ih8h/BzDDJB2KCVuzpL15Et6Jv3sBP7h/36IOlI//shIdLuchF02cAdOXDkKGXE1M1YI+MTGarsbLy0tXxfqB1NDHHzcJ1lNl2s3BAx9PlhEiFpypKpjAblfHejqGXd2f3eyZ6sqJ0rtIovFK2HMiM92nsZ+aVEgcMriW2vxSxomon+PRcth9D22c7F3dl4AYDK92R9uk+Bs8D3vdPvj3otU0/fLkxdP5zppMNtbODHpzuJkBpRnOkAbdcfS++cfO/QKl4W4u5p+uBjw6/id9s/SEawueRZ+bbZRAZHu8yGE2hegzvdy0evunvMKbo5pgfxpRjcCd9hp1M8IXQOSz58K9wqG4n8ny97ZZg5HH/ZWY064a66Vd/cd5XJ//Dr71bSOZLZsArRKYqW1W6KJHsppTbCJFdPNm0FuuuIZ89Xdx/4vMgVa+Z7e4HHnU3ULA3mgV9vVB55G28f3iV/QNn/5bbmaD9DgXuldpqU2+/+n58+9bFGN5nDBpaz0NrZ4OeWxYAt7whfSEwOxPRKLpmd0mEsG5Fc2s9brpqGr5z+w8wpuhm+xruLjOnjIEYIOJLngfnuXHKHQCgfNdyHKjdjqCvd3QTHDOlOd61883OTDWEuRWD8q/+Q/HAMT2kDZkQoiPzKkqKEwp2kXtTqITIdZ7V8Ma6btB9v69pPFZ+/MK+rygj4N2EMnY3oimY5Ef5zhcwvO9YjC6cAMAut9DUVM2iWAAAFwhJREFU0el4ivlH2zXGDZyCstt/gP/e8Rwqj62GhgWfEYhunmLn/tIR8tqrUiBmu4sE7MCVmNASaUTAzMO947+Oe8c+goCZh2i2Olp03F5vYjuda8e5bcHu+4dex/pDryPP7A3Sbk9i5/lNY4qbiADWTt9kC6Yyz9049K6ld4yY05y+VQghEvVkRelcxbTMPZ0bUXp5MrojzKsoKTZYrU7s1lwlXUOEyC6eZ3gBYPro6S3jBtyyzGcGzjNreFfh6eQhGTANH+pazmDF1h/hQstZIJojbMsXdukemdE/fyi+dvM/4iuTFqJ/r6FoCjdAcwSAdmK/NL0MTmaZVduGs3CkFc2RJlxTNBFzb12EB6//djTYZfcLABTar35hJ/nL0W4XBMLBc9vx+o5l9n8RgZWH/YgZ0GQH3JYOY0Tf8b8dcsPU9d4tSAiRCAIVgmiRyca5svLS1dHuDAl4sqJ0rsGqMuFOKZxgSzQhhGcyIsMLAH8+8a/W/mT9ky9uP/1JWcCXb3hT6UpOlwEFZkaerxf2nduCX2/9dzw6+fvwGwF03KesPRwtR/YZfpSMehDjBk3F23t/jo3H/oi6lhr4jSD8KpDQMId42VlYgmYLrZEQmDX69xqG0tEPYXrxbASN/Oi6Ed2QxtHuDJcG+gQCqK0nLxHhbNNxvLL531AXOoM80yll8LJomRkKBiK6FX4zb9fto2cunUbTIx6uSAjRbTQDhBll5dMWdWUjVczGoEIQLejuZ1JE6bS1+hNCJEfGBLwAcM2gCUsOnN9eGrGsyUQeJJ/ZrWx1gjgiBI08VB5bg/75w/Bn138HigzEE/S6ZQN2bavCwPxh+Oqkhbh1+Oew/tDr2HJyPepD52AqP/xGMCWH1bYYjWarGQBjUK+rcevwGbh1+P0YUjCqbbVOjS05fYajGdz2jpcBdrLTREB9qBavbFqEI+f3Is/s5cTMHB3B7AVWALSGhhUeXjhmWenwB3d4thghRNIRqBiERQBQVj6t/c4m8eQproCRnJIKIUR6ZVTAO3Psd6p/8sFfv7zj1AcT/b6A6e6VcttfpX4WRVs9LTlBmlIEHwexZu/L6GX2wn3jHocTxtnXaW/4QhS13R85G7qcy8cU3Yxr+k/EkfN78dHhN7Gj5iOcuFANQEGRAZMUFJkAKfuxnDuyg0dt16ZGH8OuyaVowG7TYLC2YHEYlo7AIAPF/W/ApCGfwtThMzAwf1g7z8HFmVxya5LdpG9s8jc6fpnQarXgt9t+jC2n1qGXv69zZxxtq+xNyGs/eIQiyDcLPx474MYVRGRd+XZCCHE5BtdaxFk6sVCIni2jAl4AKC4a/4szjQe/UNN4/FOmEYhenq6tXW4I19Z+y67nZWi8vmsZmAzcN/br0VDW2bKFzkK6aPXvJVdRZGBkv/EY2W886ppPo7p2O7af3oA9NZWoD9WhqfU8GAylTJhkQsUEubHBs11yoKEBWGyBtYUIh+EjP/L9BeiXNxLXDbgF1w26DaMKJ6CXv0+HK+2w05ibrQVijt0u/whbrVix7Uf48EiFM6Eu5pXieCqek81eRcRqbZl0VcnzD44vO+7ZUoQQ2Y+o2+OIhRDeyLiAd9a4J2p+vvnfltccXHUrMfJBFG2l5U2e0K5h9akAIjqM8l3LQNC4d8wjIFLRBgZ2djjx9fXLG4TJeYMw+arpqA+dw6Hze3Hiwj6crK/GmcYTqAudwYWWswhbITvcdMf7up0RmOA3AxgUHISi/GEozBuI4X2uwdCCazGi31gEzfyLHo+dUcdXCtZddmbXKXeITlpTCEWa8dttP8HaQ68hYORDwUx5LXI8wlYThheMW33TsFte83otQogsxrx46ay1sllNiCyVcQEvAEwcPGXVnppNvz5z4fDjPjNgn7SP6e+aXmSfmgdgKBPQrVi1czk0A58f95hz1jz2PH+itP1YIBQE+uOGQbfhhkG3AQCawvVoiTQhFGlGS6QR9S010MSwW4wBpvKhT7A/fCqAoK8X8n0F7dYDs/sYHNtZrIu1yE65h5utBoALLTX45eYfYOOJNQiYQSg2M2CUSRtttyM7cv2gu344achnG71ejxAiOzH08qUPrJNSBiGyWEYGvJOGfLbx5c3/68W6xhP3MfNQkNPeypPVMIjsrg1EgGkEYFlhvL7zWdS1nMJD1z+JfF9Btx8j2suW7N63do2wvdEt31eQ+GMwAGgnHnc2ApI7BAIxtcCdo9giXiKcbDiEX2z6N+yqqULQDILIiCmzyAwRHcawfuNe5RuK1nm9FiFElmJeuPSBdTJRTYgslxF9eNsTnDj2w6v7X/+riA5x2+ADLziVq8rt0WvX1AaMfLxb/Sr+X9X3cLLhUDSzGZ0/dtkENSfI7OAx3J617ktit/yKKSS+yOUTzjo/BLfYInaAhOok2G1bJ7O7buWsR2HXmUo8v+G72HX2YwR9vezOFfZOP29fKrQ9ZZotBI28A5OH3Pn/5tAc2agmhIgTV4Gse2R8sBC5ISMzvAAwh+ZYbx345QvHzx/4QshqLDbI46Ve0lpLKQMBXy9sObEOZxqO4ksTyjBx6DQ7UGV7RLHd1oudDg1wxiZfVE9wBXTJPy+9vL2ftXdVuvL1LruZs33P2StIZAeRa/b/Er/f/XM0hGuR///bu7MguerrjuO//729zCrNaBntC1rRjkBgawF7bHZEkSK2QghVpIjLkFKVKyEPyHFcVB6cqsSVCiFI7AYr2AkkCGKTxBBsYgjgRTKCSKANgxAMEhJamBmpp/ve/8nD7Z4ZBArIYN3unu/nQRpJPaPTV3r43TP/e062Vfa+Mbunem3w8axcj1PsI80Z+5nvrJzzx1vSrAhAbTHZr83pr9eufJpZu0AdqdoOryRddNrV2xaMWfr3sY+6067lg0wZk5qyLdrfu0d3b/ymNmxdq+6+QwOBtjKPrNK9NXcSYTc9SXO68jBbUvO+njd076ab9cjWtSpEPWrINKvKTjCoUq+PS2rNtf/0s9OvuDftigB8MmtXPn2Xd3a9zNZI9uRv4+8w2SGZrZGLL7jt8qenE3aB+lO1Hd6K9pFt69veHX1Zd9/BC0OXTbucfmZS7JxCk3JBgyKL9fiu72rXwc26Ys4Nmj3qrEFHCSSp0vVNbyrtyUnuhUq+qI1vPqH/2Haf3u59Qw3ZBoXKylyyAjrtIwwDrP/hRnPqnTxi1u1LRp/3dtpVAfjkBgXQ/uMFqx8776uBV3vl1+Z0k5Nr/8Anf4BtGrwamCMLwNBQC8lL9/3q5iuf3/Of63Ousbl6GqQDHVDXP//A1Bf1qiHbqs9MukQXTL9ao5snll9eTobl6Qq1YNeBF/X4rvV6ce8zClygfCYvs0CqhN3y8Y2q4aQoKmp06/iHO8d+4Q87563uSbskAACQvjDtAj6ONX+x+vX93fvnH+nbNy8TVLq8A+dk05CsXBh4CKw8vECZIK/YR9r57mZt3fes+qKjGtY4Si254ZJz6p/WW87Lx/d7BxZZ6IMvOInmcP9L7f3XqfxsWf+X/zBvHNmpH+24X4+8fJt2v7dd+bBRGZdTskjYyZe3zKV771G52Rj4ODmK4Q8vnXjJTZcu+Nq2FIsDAABVpGr6pR/liZ3rP/eDV+580ExjwiCrE088SF9lJ1wxLsgs1tiWaTpn0kVaNmWl2hs6Br2y0hcetOPMBn4a6GZX3utJhMwPC8f9XebBlQ5488hOPffGD7W562kdOLpHmbBB2TBbXmc8qLgq4JzJWzCwBMM5FUrdmjX6nDv+bPm61S6Z7wYAAFAbHV5JWn/rN7o2732t5VBh3+cyQXh8IqxKYZBVxmXUXXpX2w9s0uaup3S48I4as81qzbcrcBmpfDQgORRRGUdWGa4w6NiEJSHvY9+jHN/GrXR6j5vaUIh6tX3/Jj22/W49+spd2nFgk4r+qLKZJoUuI6fBCyeqxaCbhCC5LrF5ZYLwxWVTr7xp1shF76RdIQAAqB7VlWM+woYta+c8s/uRB4txYUHgQp3UhK9UWHmCbbK4IlKkKCqoKdem6SMWasHYZZox8gyNaZ6k7IdsRqt8jco/08k97nbiV/cUD+vt7te19Z2faee7v9Lugy+r5IvKhnm5IFRgyTpns/LBjfJotWrizEnOy5dvGPriYzZ75OI1N664/dvOVc+jdAAAIH1VFmM+2rpf3HTj5q4f/01D0BTKBVV8sEEaOKibhLPKMokoLqovKigMM2rJDdf09vma0j5PE9tmaWrb6WrOtmngrPInr6EUF3W4sF+7D2/TnsPbtOPdF/TWe6+qUOqRzJTLNit04cCjd84UmCQL5CUFQTJst5qudKUDbgoV+z61ZNp+dsnMq7/cOfOaN9OuDQAAVJeaC7wbu3446uEt9z16uLB3edZlqyqEnYiZKSgfJbDKN+NN8vKKLVLkizLzas62qTXfrrbGDk1tm6vRLRPV0TJZ+bBBTdlWNWab5BQqn2lUNsz3n8ntiwsqxX2KLVIhOqpjxW71lA5rf8+b6up+XW+996reK+zXkb6DKpR6FLiMMmFWocsoKJ+fSL5SebSXBjazmVxylKLKAq+k8mFppyjuKy2fesV115yx5oG0SwIAANWn5gKvJD245Zbf/cmO76/LZhs6XP/cAJOzQHYy51yrRlKvt0ixj+TlFfSv/nVqyDapNdeulvwwOWXUlG1RPmxMzuUGTsdKPSpGR1XyJfUW31N330EVoz6Zk8ximUlBECjjMnIuVBVG199AMimiGBfj0S0THv7Sgm9et2jsot60qwIAANWn6hdPfJiOeYv+bXTXT3/nwLGuazJhg5wFknw5NwaqvUCX1Bu4UEGYKf+OL3dwTcXSMR0o9Wpfj08ebzMrB3wpeWpLci7o7806FygIwuTjIDNogJqp9q7NB5mUdKUtVjYMD5w2as46wi4AADiR2tiAcJxO1xktGLtibUa5feYr0w3qIcpJlVDq5BQ4l4RgFyrj8sqFjcqFDcpnmtSQaVI+26R8tkENYaNyQU7ZTKPCsEFhmFXgBjrEVidBt8JJCsypGJds0vDZ/7zwjInPpV0TAACoXjUZeCXJLZj0yykjF/5TFPeVZyGUN3/VUbCzyjIFlzxI5srLNiqBuH/ZgjM55+TMFDironW/vz2xRWrINnXN7Vh2zxJ3fSntegAAQPWq2cC7yq2Kl5628o7m3LCtJV8sbzGrs6RndtxpZCfnB28Vs3LEDwZ9islq7Qjzb6AUF0oLxyy/feWcP9qSdi0AAKC61WzglaTl4y/eOXH46bd58/HAIoo6SnvOvS/Cm6z8UN7An1cOcwwcWnD11ORW/+INNxD+Yx+pOT/imdPHzLsvzcoAAEBtqOnA65zzs9vnPNqWH/nfsS8la2brK+2hfLDDyg/qmUyx4t5ZI5bcv2Ly73elXR0AAKh+NR14Jemyeav3zh977p2RRb31191EMgI42fgmkyJf0pimiU/OH7f8sbRrAwAAtaHmA68kLT1j0Q8mDZv178X4mJyri7eEMnNO5py8S/ZIO+eOnD3+/H84d8rKQ2nXBgAAakNdpMOZ7tK+syeff4sUvOqNB/brS7LmODCnUlwoTWydec/Kudf/JO2qAABA7aiLwCtJF8+49vkJw2duSCY2SJJXssKXMw41rTxpLooj5XPNv54ycu7dzg2FwWsAAODTUjeBV5LOHLvinsZs63YfR+XNYxoSI7rqWnnMWslKNqNt7v3XLLxpe9olAQCA2lJXgfeyOV/dMWfUWXdEPpKZk7m4noaUDUlOTpEvqr2x44XTRyxfn3Y9AACg9tRV4JWkcyZf/r2RzeN+XIwLJnMyq7PZvEOMl+QtPrR43OdvueB0xpABAICTV3eBd/G4c/dPGTHrNueCHlPylL9jVlnN8hapvbHjybljFm5IuxYAAFCb6i7wStL48dOfGNsy5ZE4LsmZT7scfExOSgbvlnnzckHw9vzRS+9cNPbC3tQKAwAANa0uA+/l468/On/c0nucC99J3iEd3lpQWTBh8pLzin1Jk1pnb5jQvuzZtGsDAAC1qy4DryR9ae7Xnpk9evH3+0rHVMdvs644OZk3OWXkvdSYbdq9ZPyF6zpP6yykXRsAAKhddZ0EF0xcflsuzP8yYhlFTTBnUmByXir5QmHqiPl/e/7MVS+nXRcAAKhtdR14vzD5qldnjFz0QGxRiWMNtcDJmVNRBQ1v7Ng0Y9jsf0m7IgAAUPvqOvBK0oJxyx9sz3f8IvIlJadETTKTY1RZ9fHJg2qx98WZIxbeedm81XvTLgkAANS+ug+8X5x29b6FE867NTYrOgtUmclrdHyrj5OKcUETh01/fOaUxY+kXQ4AAKgPdR94JWnWyM7HJg6b/q8l31cKnCRHd7camXnlgtwbiyZ0ru3sWNWTdj0AAKA+DInAu2T8kqMT2mb8XSbM7vPei/O81SmyknW0TNtwxeyvPJF2LQAAoH4MicArSdMWf37z5LY534t86YMNXhq+KXPy5pUPG3fMH3PmXc457kgAAMCnZsgE3k7XGS2esOw7Dbmml0o+0sDCYVde7kXGOpWcOUmW/CuYV198tHfh2BV3XTn/T19JuzYAAFBfhkzglaTzp127Y9LwuX/lfdxnFimJXCZv5ctAp/fUcV5mkilQyfdpRGPHf80fPvuetMsCAAD1J0y7gFPt8Xt//sqbh3eFu7u3rwiDbBC4QJIpMAaVnUqmQM45RXFBjbnWl/7grBu/cvbkK99Ouy4AAFB/MmkXcKo55/xG2/it4vPHclv2Pfv1XNiowIXyrvxtdo6PnhLOpELco2H5ES9cNOPa687suHhX2jUBAID6NGSbmmZPZe76+eNff2n/s2ss9k1hmE1SGHn3U2A60X8tV35ALbJIHU3jnjt32u/dcMH0Vf97ausDAABDyZANvJJkZu6W/1l91WtHXv7zYlyYnw3zcj4Jaz6odHy9ZC55yM355ILZkL5s/cxMbtDICzOTXCC5WOadnHMyk4JBlyuySLH53tGNEx44d9ql37poxnV7UigdAAAMISQ3SQ9tu2X2rnc2f6Pr0M7LTWoLXNLtdZKsv1lpSQM4UOWHNEuuHmaDFnlYcq0G3xA4S66hj2XOKZfJv3DOxItuDRdM/cdVblWcQsUAAGCIIfCWPbT15tzrh7su7zl68MsHC/svlHy7t+Rb8KEyskqnt5x1WU18nPKNgUtGX8gkxRYrdE6R96Xm3LBXWnOjHhrTPPahGz777Z0pVwsAAIYQAu9x1r20pr374IElkS9cte/YW/OcdGZf6WhWcgpdRs4FMsXi0g1iSfx3zknmFVmsTJhVQ9C4O1K8ddrIRU9YVPjRn6y4fXvapQIAgKGH1HYCNz91c2bycHXs7d6zQhbNzrjcvO7iwZGxL2XNAnNDaoLx/8/kJYVy3tSYazranG177eDRrpfnjjl7445DO1/6y87vFtKuEQAAAAAAAAAAAAAAAAAAAAAAAAAAAAAAAAAAAAAAAAAAAAAAAAAAAAAAAAAAAAAAAAAAAAAAAAAAAAAAAAAAAAAAAAAAAAAAAAAAAAAAAAAAAAAAAAAAAAAAAAAAAAAAAAAAAAAAAAAAAAAAAAAAAAAAAAAAAAAAAAAAAAAAAAAAAAAAAAAAAAAAAAAAAAAAAAAAAAAAAAAAAAAAAAAAAAAAAAAAAAAAAAAAAAAAAAAAAAAAAAAAAAAAAAAAAAAAAAAAAAAAAAAAAAAAAAAAAAAAAAAAAAAAAAAAAAAAAAAAAAAAAAAAAAAAAAAAAAAAAAAAAAAAAAAAAAAAAAAAAAAAAAAAAAAAAAAAAAAAAAAAAAAAAAAAAAAAAAAAAAAAAAAAAAAAAAAAAAAAAAAAAAAAAAAAAAAAAAAAAAAAAACA+vF/aGYeqsrxR8gAAAAASUVORK5CYII=;" vertex="1" parent="1">
          <mxGeometry x="518" y="139" width="140" height="60" as="geometry" />
        </mxCell>
        <mxCell id="A2xlnPnC4mBpnPeIcrtY-27" value="Parallel requests" style="swimlane;horizontal=0;whiteSpace=wrap;html=1;" vertex="1" parent="1">
          <mxGeometry x="110" y="490" width="690" height="280" as="geometry" />
        </mxCell>
      </root>
    </mxGraphModel>
  </diagram>
</mxfile>
